<?xml version="1.0" standalone="no"?>
<!DOCTYPE svg PUBLIC "-//W3C//DTD SVG 1.1//EN" "http://www.w3.org/Graphics/SVG/1.1/DTD/svg11.dtd" >
<svg xmlns="http://www.w3.org/2000/svg" xmlns:xlink="http://www.w3.org/1999/xlink" version="1.1">
<metadata>
Created by FontForge 20161116 at Tue Nov 30 15:35:04 2010
 By Jimmy Warting
Copyright (c) Mark Simonson, 2005. All rights reserved.
</metadata>
<defs>
<font id="ProximaNovaCond-Semibold" horiz-adv-x="467" >
  <font-face 
    font-family="Proxima Nova Cn Lt"
    font-weight="600"
    font-stretch="normal"
    units-per-em="1000"
    panose-1="2 0 5 6 3 0 0 2 0 4"
    ascent="790"
    descent="-210"
    x-height="483"
    cap-height="667"
    bbox="-136 -280 954 887"
    underline-thickness="20"
    underline-position="-133"
    stemh="98"
    stemv="100"
    unicode-range="U+000D-FB04"
  />
<missing-glyph horiz-adv-x="479" 
d="M415 -90h-351v842h351v-842zM383 -60v782h-288v-782h288z" />
    <glyph glyph-name="f_b" unicode="fb" horiz-adv-x="767" 
d="M179 0h-100v396h-63v87h63v45c0 96 54 149 131 149c30 0 53 -5 73 -16l-21 -77c-7 6 -17 9 -31 9c-32 0 -52 -23 -52 -65v-45h80v-87h-80v-396zM433 142c17 -36 56 -66 94 -66c69 0 103 72 103 165c0 94 -34 166 -103 166c-38 0 -77 -31 -94 -67v-198zM433 0h-100v667
h100v-249c29 52 76 77 124 77c108 0 176 -101 176 -254c0 -155 -68 -253 -176 -253c-49 0 -95 28 -124 76v-64z" />
    <glyph glyph-name="f_f" unicode="ff" horiz-adv-x="547" 
d="M179 0h-100v396h-63v87h63v45c0 94 52 149 136 149c36 0 72 -10 97 -34l-34 -70c-13 13 -26 20 -45 20c-35 0 -54 -23 -54 -65v-45h80v-87h-80v-396zM453 0h-100v396h-63v87h63v45c0 94 52 149 136 149c36 0 72 -10 97 -34l-34 -70c-13 13 -26 20 -45 20
c-35 0 -54 -23 -54 -65v-45h80v-87h-80v-396z" />
    <glyph glyph-name="f_h" unicode="fh" horiz-adv-x="758" 
d="M179 0h-100v396h-63v87h63v45c0 96 54 149 131 149c30 0 53 -5 73 -16l-21 -77c-7 6 -17 9 -31 9c-32 0 -52 -23 -52 -65v-45h80v-87h-80v-396zM700 0h-99v331c0 56 -27 76 -70 76c-42 0 -79 -33 -98 -67v-340h-100v667h100v-249c26 39 81 77 141 77
c86 0 126 -45 126 -130v-365z" />
    <glyph glyph-name="fi" unicode="fi" horiz-adv-x="491" 
d="M179 0h-100v396h-63v87h63v45c0 96 54 149 131 149c30 0 53 -5 73 -16l-21 -77c-7 6 -17 9 -31 9c-32 0 -52 -23 -52 -65v-45h80v-87h-80v-396zM383 544c-34 0 -63 28 -63 62c0 35 29 63 63 63s62 -28 62 -63c0 -34 -28 -62 -62 -62zM433 0h-100v483h100v-483z" />
    <glyph glyph-name="f_j" unicode="fj" horiz-adv-x="491" 
d="M179 0h-100v396h-63v87h63v45c0 96 54 149 131 149c30 0 53 -5 73 -16l-21 -77c-7 6 -17 9 -31 9c-32 0 -52 -23 -52 -65v-45h80v-87h-80v-396zM383 544c-34 0 -63 28 -63 62c0 35 29 63 63 63s62 -28 62 -63c0 -34 -28 -62 -62 -62zM293 -196c-41 0 -64 10 -87 31l28 75
c12 -13 26 -22 47 -22c31 0 52 20 52 71v524h100v-524c0 -101 -46 -155 -140 -155z" />
    <glyph glyph-name="f_k" unicode="fk" horiz-adv-x="729" 
d="M179 0h-100v396h-63v87h63v45c0 96 54 149 131 149c30 0 53 -5 73 -16l-21 -77c-7 6 -17 9 -31 9c-32 0 -52 -23 -52 -65v-45h80v-87h-80v-396zM722 0h-117l-114 202l-58 -78v-124h-100v667h100v-421l170 237h116l-160 -217z" />
    <glyph glyph-name="fl" unicode="fl" horiz-adv-x="491" 
d="M179 0h-100v396h-63v87h63v45c0 96 54 149 131 149c30 0 53 -5 73 -16l-21 -77c-7 6 -17 9 -31 9c-32 0 -52 -23 -52 -65v-45h80v-87h-80v-396zM433 0h-100v667h100v-667z" />
    <glyph glyph-name="f_f_i" unicode="ffi" horiz-adv-x="765" 
d="M453 0h-100v396h-63v87h63v45c0 96 54 149 131 149c30 0 53 -5 73 -16l-21 -77c-7 6 -17 9 -31 9c-32 0 -52 -23 -52 -65v-45h80v-87h-80v-396zM656 544c-34 0 -63 28 -63 62c0 35 29 63 63 63s62 -28 62 -63c0 -34 -28 -62 -62 -62zM706 0h-100v483h100v-483zM179 0
h-100v396h-63v87h63v45c0 94 52 149 136 149c36 0 72 -10 97 -34l-34 -70c-13 13 -26 20 -45 20c-35 0 -54 -23 -54 -65v-45h80v-87h-80v-396z" />
    <glyph glyph-name="f_f_j" unicode="ffj" horiz-adv-x="765" 
d="M453 0h-100v396h-63v87h63v45c0 96 54 149 131 149c30 0 53 -5 73 -16l-21 -77c-7 6 -17 9 -31 9c-32 0 -52 -23 -52 -65v-45h80v-87h-80v-396zM656 544c-34 0 -63 28 -63 62c0 35 29 63 63 63s62 -28 62 -63c0 -34 -28 -62 -62 -62zM566 -196c-41 0 -64 10 -87 31l28 75
c12 -13 26 -22 47 -22c31 0 52 20 52 71v524h100v-524c0 -101 -46 -155 -140 -155zM179 0h-100v396h-63v87h63v45c0 94 52 149 136 149c36 0 72 -10 97 -34l-34 -70c-13 13 -26 20 -45 20c-35 0 -54 -23 -54 -65v-45h80v-87h-80v-396z" />
    <glyph glyph-name="f_f_l" unicode="ffl" horiz-adv-x="765" 
d="M453 0h-100v396h-63v87h63v45c0 96 54 149 131 149c30 0 53 -5 73 -16l-21 -77c-7 6 -17 9 -31 9c-32 0 -52 -23 -52 -65v-45h80v-87h-80v-396zM706 0h-100v667h100v-667zM179 0h-100v396h-63v87h63v45c0 94 52 149 136 149c36 0 72 -10 97 -34l-34 -70
c-13 13 -26 20 -45 20c-35 0 -54 -23 -54 -65v-45h80v-87h-80v-396z" />
    <glyph glyph-name=".notdef" horiz-adv-x="479" 
d="M415 -90h-351v842h351v-842zM383 -60v782h-288v-782h288z" />
    <glyph glyph-name=".null" horiz-adv-x="0" 
 />
    <glyph glyph-name=".null" horiz-adv-x="0" 
 />
    <glyph glyph-name="CR" unicode="&#xd;" horiz-adv-x="0" 
 />
    <glyph glyph-name="space" unicode=" " horiz-adv-x="212" 
 />
    <glyph glyph-name="nbspace" unicode="&#xa0;" horiz-adv-x="212" 
 />
    <glyph glyph-name="thinspace" unicode="&#x2009;" horiz-adv-x="42" 
 />
    <glyph glyph-name="zero" unicode="0" horiz-adv-x="526" 
d="M263 -12c-161 0 -224 179 -224 345c0 167 63 344 224 344c162 0 225 -177 225 -344c0 -166 -63 -345 -225 -345zM263 87c89 0 112 117 112 246c0 130 -23 246 -112 246c-88 0 -111 -116 -111 -246c0 -129 23 -246 111 -246z" />
    <glyph glyph-name="zero.pzero" horiz-adv-x="526" 
d="M263 -12c-52 0 -93 18 -125 48l-20 -36h-74l50 92c-39 66 -55 155 -55 241c0 167 63 344 224 344c51 0 92 -18 125 -47l20 37h74l-50 -92c39 -66 56 -155 56 -242c0 -166 -63 -345 -225 -345zM263 87c89 0 112 117 112 246c0 43 -3 84 -10 120l-176 -323
c17 -27 41 -43 74 -43zM152 333c0 -42 2 -83 8 -119l176 322c-17 27 -40 43 -73 43c-88 0 -111 -116 -111 -246z" />
    <glyph glyph-name="one" unicode="1" horiz-adv-x="352" 
d="M288 0h-110v523l-102 -107l-65 68l181 183h96v-667z" />
    <glyph glyph-name="two" unicode="2" horiz-adv-x="507" 
d="M458 0h-410v90c233 243 294 308 294 393c0 60 -44 96 -96 96c-61 0 -108 -29 -142 -79l-68 69c50 70 122 108 211 108c117 0 208 -73 208 -193c0 -106 -75 -198 -245 -386h248v-98z" />
    <glyph glyph-name="three" unicode="3" horiz-adv-x="496" 
d="M240 -12c-102 0 -177 49 -216 109l68 69c33 -47 84 -79 143 -79c75 0 110 42 110 105c0 75 -50 100 -116 100c-21 0 -49 0 -58 -2v100c10 -1 39 -1 56 -1c63 0 109 30 109 92c0 66 -43 98 -104 98c-56 0 -100 -27 -134 -72l-65 64c44 65 116 106 207 106
c121 0 206 -61 206 -179c0 -79 -57 -139 -123 -153c64 -10 132 -70 132 -163c0 -113 -81 -194 -215 -194z" />
    <glyph glyph-name="four" unicode="4" horiz-adv-x="492" 
d="M400 0h-110v155h-268v93l236 419h142v-415h70v-97h-70v-155zM290 252v300l-168 -300h168z" />
    <glyph glyph-name="five" unicode="5" horiz-adv-x="512" 
d="M256 -12c-101 0 -166 40 -212 107l69 70c34 -50 79 -78 140 -78c68 0 109 56 109 122c0 78 -39 123 -104 123c-45 0 -80 -17 -114 -58l-81 23v370h374v-97h-263v-198c25 32 70 56 122 56c99 0 178 -77 178 -216c0 -131 -87 -224 -218 -224z" />
    <glyph glyph-name="six" unicode="6" horiz-adv-x="511" 
d="M270 -12c-170 0 -231 163 -231 345c0 190 81 344 249 344c70 0 128 -30 164 -77l-56 -81c-26 38 -56 60 -107 60c-92 0 -138 -113 -138 -228v-15c24 46 79 90 144 90c99 0 182 -73 182 -215c0 -122 -80 -223 -207 -223zM264 87c69 0 100 62 100 120
c0 90 -48 124 -102 124c-48 0 -87 -38 -110 -83c4 -68 29 -161 112 -161z" />
    <glyph glyph-name="seven" unicode="7" horiz-adv-x="448" 
d="M217 0h-119l204 570h-279v97h404v-76z" />
    <glyph glyph-name="eight" unicode="8" horiz-adv-x="507" 
d="M254 -12c-126 0 -216 65 -216 180c0 84 62 150 129 176c-62 23 -120 77 -120 161c0 120 103 172 207 172c103 0 207 -52 207 -172c0 -84 -59 -138 -121 -161c67 -26 130 -92 130 -176c0 -114 -91 -180 -216 -180zM254 385c26 6 96 35 96 102c0 57 -39 92 -96 92
c-58 0 -96 -35 -96 -92c0 -67 70 -96 96 -102zM254 87c57 0 105 34 105 96c0 74 -77 112 -105 116c-28 -4 -105 -42 -105 -116c0 -62 46 -96 105 -96z" />
    <glyph glyph-name="nine" unicode="9" horiz-adv-x="511" 
d="M223 -11c-70 0 -128 30 -164 77l56 81c26 -38 57 -59 107 -59c95 0 138 114 138 227v16c-25 -47 -79 -91 -144 -91c-99 0 -182 73 -182 215c0 122 80 223 207 223c169 0 231 -162 231 -345c0 -190 -82 -344 -249 -344zM248 336c49 0 88 37 111 82c-4 68 -28 162 -111 162
c-69 0 -101 -63 -101 -121c0 -90 48 -123 101 -123z" />
    <glyph glyph-name="zero.tnum" unicode="&#xf639;" horiz-adv-x="516" 
d="M257 -12c-161 0 -224 179 -224 345c0 167 63 344 224 344c162 0 225 -177 225 -344c0 -166 -63 -345 -225 -345zM257 87c89 0 112 117 112 246c0 130 -23 246 -112 246c-88 0 -111 -116 -111 -246c0 -129 23 -246 111 -246z" />
    <glyph glyph-name="zero.tzero" unicode="&#xf638;" horiz-adv-x="516" 
d="M257 -12c-52 0 -93 18 -125 48l-20 -36h-74l50 92c-39 66 -55 155 -55 241c0 167 63 344 224 344c51 0 92 -18 125 -47l20 37h74l-50 -92c39 -66 56 -155 56 -242c0 -166 -63 -345 -225 -345zM257 87c89 0 112 117 112 246c0 43 -3 84 -10 120l-176 -323
c17 -27 41 -43 74 -43zM146 333c0 -42 2 -83 8 -119l176 322c-17 27 -40 43 -73 43c-88 0 -111 -116 -111 -246z" />
    <glyph glyph-name="one.tnum" unicode="&#xf6dc;" horiz-adv-x="516" 
d="M376 0h-110v523l-102 -107l-65 68l181 183h96v-667z" />
    <glyph glyph-name="two.tnum" unicode="&#xf63a;" horiz-adv-x="516" 
d="M469 0h-410v90c233 243 294 308 294 393c0 60 -44 96 -96 96c-61 0 -108 -29 -142 -79l-68 69c50 70 122 108 211 108c117 0 208 -73 208 -193c0 -106 -75 -198 -245 -386h248v-98z" />
    <glyph glyph-name="three.tnum" unicode="&#xf63b;" horiz-adv-x="516" 
d="M255 -12c-102 0 -177 49 -216 109l68 69c33 -47 84 -79 143 -79c75 0 110 42 110 105c0 75 -50 100 -116 100c-21 0 -49 0 -58 -2v100c10 -1 39 -1 56 -1c63 0 109 30 109 92c0 66 -43 98 -104 98c-56 0 -100 -27 -134 -72l-65 64c44 65 116 106 207 106
c121 0 206 -61 206 -179c0 -79 -57 -139 -123 -153c64 -10 132 -70 132 -163c0 -113 -81 -194 -215 -194z" />
    <glyph glyph-name="four.tnum" unicode="&#xf63c;" horiz-adv-x="516" 
d="M411 0h-110v155h-268v93l236 419h142v-415h70v-97h-70v-155zM301 252v300l-168 -300h168z" />
    <glyph glyph-name="five.tnum" unicode="&#xf63d;" horiz-adv-x="516" 
d="M257 -12c-101 0 -166 40 -212 107l69 70c34 -50 79 -78 140 -78c68 0 109 56 109 122c0 78 -39 123 -104 123c-45 0 -80 -17 -114 -58l-81 23v370h374v-97h-263v-198c25 32 70 56 122 56c99 0 178 -77 178 -216c0 -131 -87 -224 -218 -224z" />
    <glyph glyph-name="six.tnum" unicode="&#xf63e;" horiz-adv-x="516" 
d="M274 -12c-170 0 -231 163 -231 345c0 190 81 344 249 344c70 0 128 -30 164 -77l-56 -81c-26 38 -56 60 -107 60c-92 0 -138 -113 -138 -228v-15c24 46 79 90 144 90c99 0 182 -73 182 -215c0 -122 -80 -223 -207 -223zM268 87c69 0 100 62 100 120
c0 90 -48 124 -102 124c-48 0 -87 -38 -110 -83c4 -68 29 -161 112 -161z" />
    <glyph glyph-name="seven.tnum" unicode="&#xf63f;" horiz-adv-x="516" 
d="M250 0h-119l204 570h-279v97h404v-76z" />
    <glyph glyph-name="eight.tnum" unicode="&#xf640;" horiz-adv-x="516" 
d="M258 -12c-126 0 -216 65 -216 180c0 84 62 150 129 176c-62 23 -120 77 -120 161c0 120 103 172 207 172c103 0 207 -52 207 -172c0 -84 -59 -138 -121 -161c67 -26 130 -92 130 -176c0 -114 -91 -180 -216 -180zM258 385c26 6 96 35 96 102c0 57 -39 92 -96 92
c-58 0 -96 -35 -96 -92c0 -67 70 -96 96 -102zM258 87c57 0 105 34 105 96c0 74 -77 112 -105 116c-28 -4 -105 -42 -105 -116c0 -62 46 -96 105 -96z" />
    <glyph glyph-name="nine.tnum" unicode="&#xf641;" horiz-adv-x="516" 
d="M225 -11c-70 0 -128 30 -164 77l56 81c26 -38 57 -59 107 -59c95 0 138 114 138 227v16c-25 -47 -79 -91 -144 -91c-99 0 -182 73 -182 215c0 122 80 223 207 223c169 0 231 -162 231 -345c0 -190 -82 -344 -249 -344zM250 336c49 0 88 37 111 82c-4 68 -28 162 -111 162
c-69 0 -101 -63 -101 -121c0 -90 48 -123 101 -123z" />
    <glyph glyph-name="zero.tonum" unicode="&#xf643;" horiz-adv-x="516" 
d="M482 275c0 -140 -64 -287 -225 -287c-160 0 -224 147 -224 287c0 142 64 287 224 287s225 -145 225 -287zM369 275c0 91 -28 189 -112 189c-83 0 -111 -98 -111 -189s27 -188 111 -188s112 97 112 188z" />
    <glyph glyph-name="zero.tonumzero" horiz-adv-x="516" 
d="M482 275c0 -140 -64 -287 -225 -287c-51 0 -92 15 -125 39l-17 -27h-71l46 72c-40 55 -57 130 -57 203c0 142 64 287 224 287c49 0 90 -14 122 -37l16 25h72l-44 -69c41 -55 59 -131 59 -206zM369 275c0 34 -4 70 -14 101l-166 -260c17 -18 39 -29 68 -29
c84 0 112 97 112 188zM146 275c0 -33 3 -67 12 -97l164 258c-16 17 -38 28 -65 28c-83 0 -111 -98 -111 -189z" />
    <glyph glyph-name="one.tonum" unicode="&#xf644;" horiz-adv-x="516" 
d="M376 0h-110v406l-102 -107l-65 68l181 183h96v-550z" />
    <glyph glyph-name="two.tonum" unicode="&#xf645;" horiz-adv-x="516" 
d="M447 0h-385v91c211 118 283 210 283 280c0 54 -39 93 -93 93c-56 0 -103 -26 -139 -77l-68 67c49 70 125 108 212 108c119 0 200 -68 200 -174c0 -90 -77 -194 -219 -290h209v-98z" />
    <glyph glyph-name="three.tonum" unicode="&#xf646;" horiz-adv-x="516" 
d="M255 -127c-102 0 -177 49 -216 109l68 69c33 -47 84 -79 143 -79c75 0 110 42 110 105c0 75 -50 100 -116 100c-21 0 -49 0 -58 -2v100c10 -1 39 -1 56 -1c63 0 109 30 109 92c0 66 -43 98 -104 98c-56 0 -100 -27 -134 -72l-65 64c44 65 116 106 207 106
c121 0 206 -61 206 -179c0 -79 -57 -139 -123 -153c64 -10 132 -70 132 -163c0 -113 -81 -194 -215 -194z" />
    <glyph glyph-name="four.tonum" unicode="&#xf647;" horiz-adv-x="516" 
d="M481 42h-70v-159h-110v159h-268v94l236 414h142v-410h70v-98zM301 140v295l-168 -295h168z" />
    <glyph glyph-name="five.tonum" unicode="&#xf648;" horiz-adv-x="516" 
d="M257 -129c-101 0 -166 40 -212 107l69 70c34 -50 79 -78 140 -78c68 0 109 56 109 122c0 78 -39 123 -104 123c-45 0 -80 -17 -114 -58l-81 23v370h374v-97h-263v-198c25 32 70 56 122 56c99 0 178 -77 178 -216c0 -131 -87 -224 -218 -224z" />
    <glyph glyph-name="six.tonum" unicode="&#xf649;" horiz-adv-x="516" 
d="M274 -12c-170 0 -231 163 -231 345c0 190 81 344 249 344c70 0 128 -30 164 -77l-56 -81c-26 38 -56 60 -107 60c-92 0 -138 -113 -138 -228v-15c24 46 79 90 144 90c99 0 182 -73 182 -215c0 -122 -80 -223 -207 -223zM268 87c69 0 100 62 100 120
c0 90 -48 124 -102 124c-48 0 -87 -38 -110 -83c4 -68 29 -161 112 -161z" />
    <glyph glyph-name="seven.tonum" unicode="&#xf64a;" horiz-adv-x="516" 
d="M250 -117h-119l204 570h-279v97h404v-76z" />
    <glyph glyph-name="eight.tonum" unicode="&#xf64b;" horiz-adv-x="516" 
d="M258 -12c-126 0 -216 65 -216 180c0 84 62 150 129 176c-62 23 -120 77 -120 161c0 120 103 172 207 172c103 0 207 -52 207 -172c0 -84 -59 -138 -121 -161c67 -26 130 -92 130 -176c0 -114 -91 -180 -216 -180zM258 385c26 6 96 35 96 102c0 57 -39 92 -96 92
c-58 0 -96 -35 -96 -92c0 -67 70 -96 96 -102zM258 87c57 0 105 34 105 96c0 74 -77 112 -105 116c-28 -4 -105 -42 -105 -116c0 -62 46 -96 105 -96z" />
    <glyph glyph-name="nine.tonum" unicode="&#xf64c;" horiz-adv-x="516" 
d="M225 -127c-70 0 -128 30 -164 77l56 81c26 -38 57 -59 107 -59c95 0 138 114 138 227v16c-25 -47 -79 -91 -144 -91c-99 0 -182 73 -182 215c0 122 80 223 207 223c169 0 231 -162 231 -345c0 -190 -82 -344 -249 -344zM250 220c49 0 88 37 111 82
c-4 68 -28 162 -111 162c-69 0 -101 -63 -101 -121c0 -90 48 -123 101 -123z" />
    <glyph glyph-name="zero.onum" unicode="&#xf730;" horiz-adv-x="526" 
d="M488 275c0 -140 -64 -287 -225 -287c-160 0 -224 147 -224 287c0 142 64 287 224 287s225 -145 225 -287zM375 275c0 91 -28 189 -112 189c-83 0 -111 -98 -111 -189s27 -188 111 -188s112 97 112 188z" />
    <glyph glyph-name="zero.onumzero" horiz-adv-x="526" 
d="M487 275c0 -140 -64 -287 -225 -287c-51 0 -92 15 -125 39l-17 -27h-71l46 72c-40 55 -57 130 -57 203c0 142 64 287 224 287c49 0 90 -14 122 -37l16 25h72l-44 -69c41 -55 59 -131 59 -206zM374 275c0 34 -4 70 -14 101l-166 -260c17 -18 39 -29 68 -29
c84 0 112 97 112 188zM151 275c0 -33 3 -67 12 -97l164 258c-16 17 -38 28 -65 28c-83 0 -111 -98 -111 -189z" />
    <glyph glyph-name="one.onum" unicode="&#xf731;" horiz-adv-x="352" 
d="M288 0h-110v406l-102 -107l-65 68l181 183h96v-550z" />
    <glyph glyph-name="two.onum" unicode="&#xf732;" horiz-adv-x="495" 
d="M435 0h-385v91c211 118 283 210 283 280c0 54 -39 93 -93 93c-56 0 -103 -26 -139 -77l-68 67c49 70 125 108 212 108c119 0 200 -68 200 -174c0 -90 -77 -194 -219 -290h209v-98z" />
    <glyph glyph-name="three.onum" unicode="&#xf733;" horiz-adv-x="493" 
d="M237 -127c-102 0 -177 49 -216 109l68 69c33 -47 84 -79 143 -79c75 0 110 42 110 105c0 75 -50 100 -116 100c-21 0 -49 0 -58 -2v100c10 -1 39 -1 56 -1c63 0 109 30 109 92c0 66 -43 98 -104 98c-56 0 -100 -27 -134 -72l-65 64c44 65 116 106 207 106
c121 0 206 -61 206 -179c0 -79 -57 -139 -123 -153c64 -10 132 -70 132 -163c0 -113 -81 -194 -215 -194z" />
    <glyph glyph-name="four.onum" unicode="&#xf734;" horiz-adv-x="492" 
d="M470 42h-70v-159h-110v159h-268v94l236 414h142v-410h70v-98zM290 140v295l-168 -295h168z" />
    <glyph glyph-name="five.onum" unicode="&#xf735;" horiz-adv-x="512" 
d="M256 -129c-101 0 -166 40 -212 107l69 70c34 -50 79 -78 140 -78c68 0 109 56 109 122c0 78 -39 123 -104 123c-45 0 -80 -17 -114 -58l-81 23v370h374v-97h-263v-198c25 32 70 56 122 56c99 0 178 -77 178 -216c0 -131 -87 -224 -218 -224z" />
    <glyph glyph-name="six.onum" unicode="&#xf736;" horiz-adv-x="511" 
d="M270 -12c-170 0 -231 163 -231 345c0 190 81 344 249 344c70 0 128 -30 164 -77l-56 -81c-26 38 -56 60 -107 60c-92 0 -138 -113 -138 -228v-15c24 46 79 90 144 90c99 0 182 -73 182 -215c0 -122 -80 -223 -207 -223zM264 87c69 0 100 62 100 120
c0 90 -48 124 -102 124c-48 0 -87 -38 -110 -83c4 -68 29 -161 112 -161z" />
    <glyph glyph-name="seven.onum" unicode="&#xf737;" horiz-adv-x="448" 
d="M217 -117h-119l204 570h-279v97h404v-76z" />
    <glyph glyph-name="eight.onum" unicode="&#xf738;" horiz-adv-x="507" 
d="M254 -12c-126 0 -216 65 -216 180c0 84 62 150 129 176c-62 23 -120 77 -120 161c0 120 103 172 207 172c103 0 207 -52 207 -172c0 -84 -59 -138 -121 -161c67 -26 130 -92 130 -176c0 -114 -91 -180 -216 -180zM254 385c26 6 96 35 96 102c0 57 -39 92 -96 92
c-58 0 -96 -35 -96 -92c0 -67 70 -96 96 -102zM254 87c57 0 105 34 105 96c0 74 -77 112 -105 116c-28 -4 -105 -42 -105 -116c0 -62 46 -96 105 -96z" />
    <glyph glyph-name="nine.onum" unicode="&#xf739;" horiz-adv-x="511" 
d="M223 -127c-70 0 -128 30 -164 77l56 81c26 -38 57 -59 107 -59c95 0 138 114 138 227v16c-25 -47 -79 -91 -144 -91c-99 0 -182 73 -182 215c0 122 80 223 207 223c169 0 231 -162 231 -345c0 -190 -82 -344 -249 -344zM248 220c49 0 88 37 111 82
c-4 68 -28 162 -111 162c-69 0 -101 -63 -101 -121c0 -90 48 -123 101 -123z" />
    <glyph glyph-name="A" unicode="A" horiz-adv-x="536" 
d="M533 0h-120l-36 132h-219l-36 -132h-120l199 667h133zM355 230l-87 319l-87 -319h174z" />
    <glyph glyph-name="B" unicode="B" horiz-adv-x="540" 
d="M324 0h-260v667h252c113 0 172 -75 172 -170c0 -84 -46 -137 -105 -153c66 -10 116 -82 116 -164c0 -104 -58 -180 -175 -180zM292 389c56 0 82 37 82 90c0 52 -26 91 -82 91h-117v-181h117zM296 98c59 0 89 36 89 97c0 53 -29 96 -89 96h-121v-193h121z" />
    <glyph glyph-name="C" unicode="C" horiz-adv-x="547" 
d="M311 -12c-167 0 -272 145 -272 345c0 201 105 345 272 345c116 0 176 -73 211 -147l-92 -41c-23 53 -64 90 -119 90c-98 0 -159 -104 -159 -247c0 -142 61 -246 159 -246c58 0 99 42 120 98l92 -41c-34 -78 -94 -156 -212 -156z" />
    <glyph glyph-name="D" unicode="D" horiz-adv-x="583" 
d="M263 0h-199v667h199c179 0 281 -140 281 -334s-101 -333 -281 -333zM263 98c109 0 167 98 167 235c0 140 -56 237 -167 237h-88v-472h88z" />
    <glyph glyph-name="E" unicode="E" horiz-adv-x="472" 
d="M429 0h-365v667h365v-97h-254v-181h247v-98h-247v-193h254v-98z" />
    <glyph glyph-name="F" unicode="F" horiz-adv-x="464" 
d="M175 0h-111v667h365v-97h-254v-181h247v-98h-247v-291z" />
    <glyph glyph-name="G" unicode="G" horiz-adv-x="576" 
d="M311 -13c-164 0 -272 140 -272 346c0 207 108 345 272 345c108 0 174 -64 212 -142l-90 -42c-24 49 -64 86 -122 86c-95 0 -159 -95 -159 -247c0 -151 64 -247 159 -247c49 0 89 23 111 48v124h-140v97h245v-265c-53 -63 -124 -103 -216 -103z" />
    <glyph glyph-name="G.alt1" horiz-adv-x="590" 
d="M304 -13c-157 0 -265 140 -265 346c0 207 108 345 272 345c108 0 174 -64 212 -142l-90 -42c-24 49 -64 86 -122 86c-95 0 -159 -95 -159 -247c0 -151 64 -247 159 -247c85 0 126 83 136 172h-165v98h279c0 -229 -84 -369 -257 -369z" />
    <glyph glyph-name="H" unicode="H" horiz-adv-x="593" 
d="M530 0h-111v294h-244v-294h-111v667h111v-275h244v275h111v-667z" />
    <glyph glyph-name="I" unicode="I" horiz-adv-x="239" 
d="M175 0h-111v667h111v-667z" />
    <glyph glyph-name="J" unicode="J" horiz-adv-x="409" 
d="M150 -12c-54 0 -103 16 -142 55l43 87c23 -26 52 -43 89 -43c59 0 95 36 95 100v480h111v-483c0 -135 -82 -196 -196 -196z" />
    <glyph glyph-name="K" unicode="K" horiz-adv-x="535" 
d="M528 0h-131l-172 275l-50 -76v-199h-111v667h111v-321l207 321h130l-218 -315z" />
    <glyph glyph-name="L" unicode="L" horiz-adv-x="434" 
d="M406 0h-342v667h111v-569h231v-98z" />
    <glyph glyph-name="M" unicode="M" horiz-adv-x="713" 
d="M650 0h-110v460l-162 -460h-43l-160 460v-460h-111v667h150l143 -406l144 406h149v-667z" />
    <glyph glyph-name="N" unicode="N" horiz-adv-x="592" 
d="M528 0h-106l-247 431v-431h-111v667h112l241 -419v419h111v-667z" />
    <glyph glyph-name="O" unicode="O" horiz-adv-x="612" 
d="M306 -12c-169 0 -267 149 -267 345s98 345 267 345s267 -149 267 -345s-98 -345 -267 -345zM306 87c99 0 154 108 154 246c0 140 -55 247 -154 247c-100 0 -154 -107 -154 -247c0 -138 54 -246 154 -246z" />
    <glyph glyph-name="P" unicode="P" horiz-adv-x="513" 
d="M175 0h-111v667h227c131 0 197 -96 197 -207c0 -112 -66 -208 -197 -208h-116v-252zM278 350c59 0 97 44 97 110s-38 110 -97 110h-103v-220h103z" />
    <glyph glyph-name="Q" unicode="Q" horiz-adv-x="612" 
d="M306 -12c-169 0 -267 149 -267 345s98 345 267 345s267 -149 267 -345c0 -113 -32 -209 -92 -272l31 -48l-77 -49l-28 44c-30 -13 -64 -20 -101 -20zM306 87c17 0 32 3 46 9l-72 115l77 48l63 -101c26 44 40 106 40 175c0 140 -55 247 -154 247
c-100 0 -154 -107 -154 -247c0 -138 54 -246 154 -246z" />
    <glyph glyph-name="R" unicode="R" horiz-adv-x="533" 
d="M494 0h-124l-113 252h-82v-252h-111v667h230c115 0 194 -83 194 -206c0 -117 -64 -174 -123 -190zM278 350c59 0 97 44 97 110s-38 110 -97 110h-103v-220h103z" />
    <glyph glyph-name="S" unicode="S" horiz-adv-x="486" 
d="M237 -12c-95 0 -166 33 -215 85l56 86c36 -41 93 -72 159 -72c69 0 104 41 104 88c0 137 -299 95 -299 317c0 104 81 186 207 186c78 0 144 -26 192 -72l-54 -84c-39 39 -89 57 -141 57c-54 0 -91 -32 -91 -81c0 -119 299 -90 299 -314c0 -109 -74 -196 -217 -196z" />
    <glyph glyph-name="T" unicode="T" horiz-adv-x="462" 
d="M286 0h-110v570h-153v97h416v-97h-153v-570z" />
    <glyph glyph-name="U" unicode="U" horiz-adv-x="592" 
d="M296 -12c-144 0 -232 85 -232 236v443h111v-444c0 -89 44 -137 121 -137s121 48 121 137v444h111v-443c0 -151 -88 -236 -232 -236z" />
    <glyph glyph-name="V" unicode="V" horiz-adv-x="536" 
d="M334 0h-133l-199 667h120l146 -536l145 536h120z" />
    <glyph glyph-name="W" unicode="W" horiz-adv-x="745" 
d="M584 0h-116l-96 479l-95 -479h-116l-151 667h119l96 -498l103 498h89l104 -498l95 498h119z" />
    <glyph glyph-name="X" unicode="X" horiz-adv-x="535" 
d="M533 0h-128l-138 254l-137 -254h-128l197 341l-185 326h127l126 -240l126 240h128l-185 -325z" />
    <glyph glyph-name="Y" unicode="Y" horiz-adv-x="521" 
d="M316 0h-110v278l-207 389h123l139 -285l139 285h122l-206 -389v-278z" />
    <glyph glyph-name="Z" unicode="Z" horiz-adv-x="475" 
d="M437 0h-399v92l258 478h-258v97h392v-90l-259 -479h266v-98z" />
    <glyph glyph-name="a" unicode="a" 
d="M408 0h-99v49c-29 -40 -78 -61 -127 -61c-78 0 -148 58 -148 161c0 104 70 157 148 157c49 0 99 -19 127 -58v70c0 58 -34 92 -94 92c-43 0 -83 -17 -120 -55l-39 70c49 49 115 70 177 70c101 0 175 -47 175 -165v-330zM218 57c36 0 72 20 91 53v73c-19 34 -55 54 -91 54
c-52 0 -84 -38 -84 -90s32 -90 84 -90z" />
    <glyph glyph-name="a.alt1" horiz-adv-x="494" 
d="M435 0h-100v64c-29 -48 -76 -76 -124 -76c-108 0 -176 98 -176 253c0 153 67 254 176 254c47 0 95 -25 124 -77v65h100v-483zM241 76c38 0 77 30 94 66v198c-17 36 -56 66 -94 66c-69 0 -103 -71 -103 -165c0 -92 34 -165 103 -165z" />
    <glyph glyph-name="b" unicode="b" horiz-adv-x="494" 
d="M159 142c17 -36 56 -66 94 -66c69 0 103 72 103 165c0 94 -34 166 -103 166c-38 0 -77 -31 -94 -67v-198zM159 0h-100v667h100v-249c29 52 76 77 124 77c108 0 176 -101 176 -254c0 -155 -68 -253 -176 -253c-49 0 -95 28 -124 76v-64z" />
    <glyph glyph-name="c" unicode="c" horiz-adv-x="415" 
d="M247 -12c-129 0 -212 108 -212 254s83 253 212 253c72 0 118 -29 147 -65l-51 -68c-24 31 -51 45 -86 45c-76 0 -119 -73 -119 -165s43 -166 119 -166c35 0 62 15 86 45l51 -68c-29 -36 -75 -65 -147 -65z" />
    <glyph glyph-name="d" unicode="d" horiz-adv-x="494" 
d="M435 0h-100v64c-29 -48 -76 -76 -124 -76c-108 0 -176 98 -176 253c0 153 67 254 176 254c47 0 95 -25 124 -77v249h100v-667zM241 76c38 0 77 30 94 66v199c-17 36 -56 66 -94 66c-69 0 -103 -72 -103 -166c0 -92 34 -165 103 -165z" />
    <glyph glyph-name="e" unicode="e" horiz-adv-x="474" 
d="M252 -12c-133 0 -217 104 -217 254c0 140 78 253 207 253c131 0 201 -111 201 -257v-29h-307c4 -79 48 -139 126 -139c38 0 81 19 109 52l48 -60c-41 -47 -102 -74 -167 -74zM346 280c-1 60 -28 134 -105 134c-75 0 -103 -76 -106 -134h211z" />
    <glyph glyph-name="f" unicode="f" horiz-adv-x="274" 
d="M179 0h-100v396h-63v87h63v45c0 94 52 149 136 149c36 0 72 -10 97 -34l-34 -70c-13 13 -26 20 -45 20c-35 0 -54 -23 -54 -65v-45h80v-87h-80v-396z" />
    <glyph glyph-name="f.alt1" horiz-adv-x="274" 
d="M179 0h-100v396h-63v87h63v45c0 96 54 149 131 149c30 0 53 -5 73 -16l-21 -77c-7 6 -17 9 -31 9c-32 0 -52 -23 -52 -65v-45h80v-87h-80v-396z" />
    <glyph glyph-name="g" unicode="g" horiz-adv-x="493" 
d="M226 -196c-69 0 -123 16 -171 61l41 77c33 -36 75 -54 125 -54c60 0 114 33 114 121v69c-29 -49 -76 -79 -124 -79c-108 0 -176 93 -176 248c0 153 67 248 176 248c47 0 94 -25 124 -77v65h99v-466c0 -167 -104 -213 -208 -213zM241 88c38 0 77 30 94 66v187
c-17 36 -56 66 -94 66c-69 0 -103 -67 -103 -160c0 -92 34 -159 103 -159z" />
    <glyph glyph-name="h" unicode="h" horiz-adv-x="485" 
d="M426 0h-99v331c0 56 -27 76 -70 76c-42 0 -79 -33 -98 -67v-340h-100v667h100v-249c26 39 81 77 141 77c86 0 126 -45 126 -130v-365z" />
    <glyph glyph-name="i" unicode="i" horiz-adv-x="218" 
d="M109 544c-34 0 -63 28 -63 62c0 35 29 63 63 63s62 -28 62 -63c0 -34 -28 -62 -62 -62zM159 0h-100v483h100v-483z" />
    <glyph glyph-name="j" unicode="j" horiz-adv-x="218" 
d="M109 544c-34 0 -63 28 -63 62c0 35 29 63 63 63s62 -28 62 -63c0 -34 -28 -62 -62 -62zM19 -196c-41 0 -64 10 -87 31l28 75c12 -13 26 -22 47 -22c31 0 52 20 52 71v524h100v-524c0 -101 -46 -155 -140 -155z" />
    <glyph glyph-name="k" unicode="k" horiz-adv-x="456" 
d="M448 0h-117l-114 202l-58 -78v-124h-100v667h100v-421l170 237h116l-160 -217z" />
    <glyph glyph-name="l" unicode="l" horiz-adv-x="218" 
d="M159 0h-100v667h100v-667z" />
    <glyph glyph-name="l.alt1" horiz-adv-x="254" 
d="M171 -12c-76 0 -112 41 -112 120v559h100v-538c0 -33 11 -53 37 -53c16 0 30 7 38 16l23 -75c-17 -18 -45 -29 -86 -29z" />
    <glyph glyph-name="m" unicode="m" horiz-adv-x="722" 
d="M663 0h-100v336c0 45 -18 71 -60 71c-40 0 -76 -35 -92 -67v-340h-100v336c0 44 -18 71 -60 71c-40 0 -75 -35 -92 -67v-340h-100v483h100v-65c19 34 74 77 134 77c61 0 102 -31 113 -85c23 43 79 85 139 85c73 0 118 -39 118 -127v-368z" />
    <glyph glyph-name="n" unicode="n" horiz-adv-x="485" 
d="M426 0h-100v329c0 57 -26 78 -69 78s-80 -33 -98 -67v-340h-100v483h100v-65c26 39 80 77 140 77c87 0 127 -48 127 -131v-364z" />
    <glyph glyph-name="o" unicode="o" horiz-adv-x="488" 
d="M244 -12c-137 0 -209 118 -209 254s72 253 209 253s209 -117 209 -253s-72 -254 -209 -254zM244 76c73 0 106 79 106 166s-33 165 -106 165s-106 -78 -106 -165s33 -166 106 -166z" />
    <glyph glyph-name="p" unicode="p" horiz-adv-x="492" 
d="M283 -12c-48 0 -95 25 -124 77v-249h-100v667h100v-64c28 48 75 76 124 76c109 0 176 -97 176 -253c0 -154 -67 -254 -176 -254zM253 76c69 0 103 73 103 166s-34 165 -103 165c-38 0 -77 -29 -94 -66v-198c17 -36 56 -67 94 -67z" />
    <glyph glyph-name="q" unicode="q" horiz-adv-x="492" 
d="M240 76c38 0 77 31 94 67v198c-17 37 -56 66 -94 66c-69 0 -103 -72 -103 -165s34 -166 103 -166zM210 -12c-109 0 -176 100 -176 254c0 156 67 253 176 253c48 0 95 -28 124 -76v64h99v-667h-99v249c-30 -52 -77 -77 -124 -77z" />
    <glyph glyph-name="r" unicode="r" horiz-adv-x="308" 
d="M159 0h-100v483h100v-71c28 47 79 82 133 82v-99c-8 2 -17 3 -26 3c-41 0 -87 -31 -107 -67v-331z" />
    <glyph glyph-name="s" unicode="s" horiz-adv-x="401" 
d="M198 -12c-74 0 -136 25 -177 69l45 70c29 -32 80 -60 130 -60s80 25 80 63c0 93 -239 53 -239 227c0 75 60 138 166 138c67 0 121 -25 159 -62l-42 -68c-24 29 -67 51 -115 51c-45 0 -74 -24 -74 -56c0 -85 240 -49 240 -228c0 -83 -67 -144 -173 -144z" />
    <glyph glyph-name="t" unicode="t" horiz-adv-x="283" 
d="M189 -12c-76 0 -112 41 -112 120v288h-63v87h63v132h100v-132h80v-87h-80v-267c0 -33 11 -53 37 -53c16 0 31 7 38 16l24 -75c-18 -18 -46 -29 -87 -29z" />
    <glyph glyph-name="u" unicode="u" horiz-adv-x="485" 
d="M426 0h-100v64c-27 -40 -79 -76 -141 -76c-86 0 -126 46 -126 130v365h100v-330c0 -56 26 -77 69 -77c42 0 79 32 98 66v341h100v-483z" />
    <glyph glyph-name="v" unicode="v" horiz-adv-x="430" 
d="M269 0h-108l-159 483h106l107 -364l108 364h106z" />
    <glyph glyph-name="w" unicode="w" horiz-adv-x="667" 
d="M531 0h-104l-93 355l-94 -355h-104l-129 483h103l84 -352l92 352h92l94 -352l85 352h103z" />
    <glyph glyph-name="x" unicode="x" horiz-adv-x="424" 
d="M418 0h-109l-97 176l-97 -176h-109l144 246l-136 237h109l89 -166l89 166h109l-136 -237z" />
    <glyph glyph-name="y" unicode="y" horiz-adv-x="430" 
d="M42 -189l15 88c9 -5 23 -7 32 -7c27 0 44 10 55 40l20 58l-162 493h106l107 -363l108 363h106l-191 -574c-27 -81 -74 -105 -142 -105c-15 0 -41 3 -54 7z" />
    <glyph glyph-name="y.alt1" horiz-adv-x="485" 
d="M223 -196c-69 0 -125 20 -167 61l41 77c32 -37 78 -54 122 -54c67 0 107 43 107 123v67c-27 -40 -79 -75 -141 -75c-86 0 -126 45 -126 130v350h100v-316c0 -56 26 -76 69 -76c42 0 79 31 98 65v327h100v-466c0 -140 -79 -213 -203 -213z" />
    <glyph glyph-name="z" unicode="z" horiz-adv-x="399" 
d="M360 0h-322v76l193 320h-193v87h318v-73l-193 -323h197v-87z" />
    <glyph glyph-name="A.smcp" unicode="&#xf761;" 
d="M173 550h121l171 -550h-111l-30 107h-181l-30 -107h-112zM302 197l-69 241l-69 -241h138z" />
    <glyph glyph-name="B.smcp" unicode="&#xf762;" horiz-adv-x="471" 
d="M284 0h-225v550h218c100 0 151 -62 151 -141c0 -66 -36 -109 -85 -124c56 -14 95 -71 95 -136c0 -85 -51 -149 -154 -149zM264 90c45 0 68 28 68 72c0 39 -22 74 -68 74h-101v-146h101zM260 326c43 0 63 29 63 67c0 37 -20 67 -63 67h-97v-134h97z" />
    <glyph glyph-name="C.smcp" unicode="&#xf763;" horiz-adv-x="478" 
d="M272 -12c-147 0 -236 122 -236 287c0 167 89 287 236 287c97 0 152 -59 185 -128l-85 -35c-21 44 -55 72 -100 72c-82 0 -131 -83 -131 -196c0 -111 49 -196 131 -196c46 0 82 30 100 74l85 -34c-32 -70 -87 -131 -185 -131z" />
    <glyph glyph-name="D.smcp" unicode="&#xf764;" horiz-adv-x="515" 
d="M237 0h-178v550h177c157 0 244 -116 244 -276c0 -159 -87 -274 -243 -274zM236 90c91 0 138 78 138 184c0 110 -45 186 -138 186h-73v-370h73z" />
    <glyph glyph-name="E.smcp" unicode="&#xf765;" horiz-adv-x="421" 
d="M381 0h-322v550h322v-90h-218v-134h212v-90h-212v-146h218v-90z" />
    <glyph glyph-name="F.smcp" unicode="&#xf766;" horiz-adv-x="413" 
d="M163 0h-104v550h322v-90h-218v-134h212v-90h-212v-236z" />
    <glyph glyph-name="G.smcp" unicode="&#xf767;" horiz-adv-x="506" 
d="M272 -12c-144 0 -236 117 -236 287c0 171 92 287 236 287c91 0 149 -53 183 -119l-83 -39c-21 38 -53 67 -100 67c-80 0 -130 -77 -130 -196c0 -118 50 -196 132 -196c40 0 71 17 88 37v95h-105v86h204v-223c-49 -54 -110 -86 -189 -86z" />
    <glyph glyph-name="G.smcp.alt1" horiz-adv-x="514" 
d="M268 -12c-140 0 -232 117 -232 287c0 171 92 287 236 287c91 0 149 -53 183 -119l-83 -39c-21 39 -53 67 -100 67c-80 0 -130 -77 -130 -196c0 -118 50 -196 130 -196c64 0 105 62 113 132h-128v85h232c0 -185 -76 -308 -221 -308z" />
    <glyph glyph-name="H.smcp" unicode="&#xf768;" horiz-adv-x="530" 
d="M470 0h-103v237h-204v-237h-104v550h104v-223h204v223h103v-550z" />
    <glyph glyph-name="I.smcp" unicode="&#xf769;" horiz-adv-x="222" 
d="M163 0h-104v550h104v-550z" />
    <glyph glyph-name="J.smcp" unicode="&#xf76a;" horiz-adv-x="363" 
d="M129 -12c-47 0 -90 16 -123 50l37 79c19 -23 46 -38 77 -38c49 0 80 30 80 82v389h104v-399c0 -113 -72 -163 -175 -163z" />
    <glyph glyph-name="K.smcp" unicode="&#xf76b;" horiz-adv-x="475" 
d="M468 0h-121l-146 221l-38 -57v-164h-104v550h104v-250l171 250h120l-189 -260z" />
    <glyph glyph-name="L.smcp" unicode="&#xf76c;" horiz-adv-x="388" 
d="M361 0h-302v550h104v-460h198v-90z" />
    <glyph glyph-name="M.smcp" unicode="&#xf76d;" horiz-adv-x="630" 
d="M571 0h-103v359l-131 -359h-44l-130 359v-359h-104v550h135l121 -332l122 332h134v-550z" />
    <glyph glyph-name="N.smcp" unicode="&#xf76e;" horiz-adv-x="525" 
d="M466 0h-103l-200 345v-345h-104v550h109l195 -334v334h103v-550z" />
    <glyph glyph-name="O.smcp" unicode="&#xf76f;" horiz-adv-x="537" 
d="M268 -12c-149 0 -232 125 -232 287s83 287 232 287s233 -125 233 -287s-84 -287 -233 -287zM268 79c83 0 127 88 127 196c0 110 -44 196 -127 196c-84 0 -127 -86 -127 -196c0 -108 43 -196 127 -196z" />
    <glyph glyph-name="P.smcp" unicode="&#xf770;" horiz-adv-x="452" 
d="M163 0h-104v550h201c113 0 170 -80 170 -173c0 -95 -55 -175 -170 -175h-97v-202zM249 292c50 0 75 36 75 84s-25 84 -75 84h-86v-168h86z" />
    <glyph glyph-name="Q.smcp" unicode="&#xf771;" horiz-adv-x="537" 
d="M268 -12c-149 0 -232 125 -232 287s83 287 232 287s233 -125 233 -287c0 -95 -29 -177 -82 -229l24 -38l-68 -41l-23 36c-25 -9 -53 -15 -84 -15zM268 79c12 0 23 1 33 5l-55 88l68 41l48 -77c22 35 33 84 33 139c0 110 -44 196 -127 196c-84 0 -127 -86 -127 -196
c0 -108 43 -196 127 -196z" />
    <glyph glyph-name="R.smcp" unicode="&#xf772;" horiz-adv-x="471" 
d="M437 0h-116l-94 202h-64v-202h-104v550h202c108 0 169 -76 169 -173c0 -93 -51 -146 -105 -159zM249 292c50 0 76 36 76 85c0 48 -27 83 -76 83h-86v-168h86z" />
    <glyph glyph-name="S.smcp" unicode="&#xf773;" horiz-adv-x="423" 
d="M207 -12c-80 0 -142 27 -187 71l47 79c32 -35 83 -61 138 -61c56 0 87 29 87 71c0 107 -253 76 -253 259c0 87 71 155 180 155c71 0 126 -22 169 -61l-45 -77c-33 33 -79 49 -122 49c-44 0 -76 -25 -76 -64c0 -94 253 -70 253 -258c0 -95 -69 -163 -191 -163z" />
    <glyph glyph-name="T.smcp" unicode="&#xf774;" horiz-adv-x="387" 
d="M245 0h-103v460h-123v90h349v-90h-123v-460z" />
    <glyph glyph-name="U.smcp" unicode="&#xf775;" horiz-adv-x="525" 
d="M263 -12c-134 0 -204 78 -204 220v342h104v-356c0 -73 34 -115 100 -115c64 0 99 42 99 115v356h104v-342c0 -142 -70 -220 -203 -220z" />
    <glyph glyph-name="V.smcp" unicode="&#xf776;" 
d="M294 0h-121l-172 550h112l120 -422l121 422h111z" />
    <glyph glyph-name="W.smcp" unicode="&#xf777;" horiz-adv-x="649" 
d="M511 0h-106l-81 373l-80 -373h-107l-132 550h111l80 -387l87 387h83l87 -388l81 388h110z" />
    <glyph glyph-name="X.smcp" unicode="&#xf778;" horiz-adv-x="469" 
d="M468 0h-118l-116 204l-115 -204h-118l168 281l-159 269h118l106 -191l106 191h118l-158 -268z" />
    <glyph glyph-name="Y.smcp" unicode="&#xf779;" horiz-adv-x="458" 
d="M281 0h-103v230l-179 320h114l117 -225l115 225h114l-178 -320v-230z" />
    <glyph glyph-name="Z.smcp" unicode="&#xf77a;" horiz-adv-x="415" 
d="M384 0h-353v78l217 382h-217v90h346v-76l-216 -383h223v-91z" />
    <glyph glyph-name="Aacute" unicode="&#xc1;" horiz-adv-x="536" 
d="M533 0h-120l-36 132h-219l-36 -132h-120l199 667h133zM355 230l-87 319l-87 -319h174zM419 867l-134 -144h-68l110 144h92z" />
    <glyph glyph-name="Abreve" unicode="&#x102;" horiz-adv-x="536" 
d="M533 0h-120l-36 132h-219l-36 -132h-120l199 667h133zM355 230l-87 319l-87 -319h174zM417 783c-34 -46 -88 -75 -149 -75c-60 0 -114 29 -149 75l47 38c23 -33 60 -53 102 -53s79 20 102 53z" />
    <glyph glyph-name="Acircumflex" unicode="&#xc2;" horiz-adv-x="536" 
d="M394 723h-60l-67 97l-64 -97h-60l79 144h91zM533 0h-120l-36 132h-219l-36 -132h-120l199 667h133zM355 230l-87 319l-87 -319h174z" />
    <glyph glyph-name="Adieresis" unicode="&#xc4;" horiz-adv-x="536" 
d="M416 774c0 -31 -26 -56 -57 -56s-56 25 -56 56s25 56 56 56s57 -25 57 -56zM234 774c0 -31 -25 -56 -56 -56s-57 25 -57 56s26 56 57 56s56 -25 56 -56zM533 0h-120l-36 132h-219l-36 -132h-120l199 667h133zM355 230l-87 319l-87 -319h174z" />
    <glyph glyph-name="Agrave" unicode="&#xc0;" horiz-adv-x="536" 
d="M533 0h-120l-36 132h-219l-36 -132h-120l199 667h133zM355 230l-87 319l-87 -319h174zM319 723h-68l-134 144h93z" />
    <glyph glyph-name="Amacron" unicode="&#x100;" horiz-adv-x="536" 
d="M533 0h-120l-36 132h-219l-36 -132h-120l199 667h133zM355 230l-87 319l-87 -319h174zM422 734h-309v60h309v-60z" />
    <glyph glyph-name="Aogonek" unicode="&#x104;" horiz-adv-x="536" 
d="M537 -106l44 -25c-14 -31 -39 -55 -82 -55c-48 0 -86 26 -86 84c0 38 18 73 48 102h-48l-36 132h-219l-36 -132h-120l199 667h133l199 -667c-42 -25 -67 -58 -67 -99c0 -29 15 -42 33 -42c20 0 32 14 38 35zM355 230l-87 319l-87 -319h174z" />
    <glyph glyph-name="Aring" unicode="&#xc5;" horiz-adv-x="536" 
d="M533 0h-120l-36 132h-219l-36 -132h-120l199 667h133zM355 230l-87 319l-87 -319h174zM268 691c-51 0 -94 43 -94 95c0 51 43 94 94 94c52 0 94 -43 94 -94c0 -52 -42 -95 -94 -95zM268 738c27 0 47 22 47 48s-20 47 -47 47c-25 0 -47 -21 -47 -47s22 -48 47 -48z" />
    <glyph glyph-name="Atilde" unicode="&#xc3;" horiz-adv-x="536" 
d="M533 0h-120l-36 132h-219l-36 -132h-120l199 667h133zM355 230l-87 319l-87 -319h174zM318 721c-62 0 -69 81 -103 81c-18 0 -34 -23 -34 -75h-54c0 79 32 134 92 134c61 0 68 -80 103 -80c18 0 33 22 33 74h54c0 -79 -31 -134 -91 -134z" />
    <glyph glyph-name="uni1EA0" unicode="&#x1ea0;" horiz-adv-x="536" 
d="M533 0h-120l-36 132h-219l-36 -132h-120l199 667h133zM355 230l-87 319l-87 -319h174zM269 -189c-31 0 -57 25 -57 56s26 57 57 57s56 -26 56 -57s-25 -56 -56 -56z" />
    <glyph glyph-name="uni1EA2" unicode="&#x1ea2;" horiz-adv-x="536" 
d="M533 0h-120l-36 132h-219l-36 -132h-120l199 667h133zM355 230l-87 319l-87 -319h174zM238 757l-39 10c9 32 34 53 70 53c37 0 67 -20 67 -67c0 -22 -7 -39 -18 -56h-44c15 18 21 36 21 54c0 23 -12 32 -27 32c-16 0 -25 -10 -30 -26z" />
    <glyph glyph-name="uni1EA4" unicode="&#x1ea4;" horiz-adv-x="536" 
d="M394 682h-60l-67 73l-64 -73h-60l79 108h91zM533 0h-120l-36 132h-219l-36 -132h-120l199 667h133zM355 230l-87 319l-87 -319h174zM568 844l-134 -108h-68l110 108h92z" />
    <glyph glyph-name="uni1EAC" unicode="&#x1eac;" horiz-adv-x="536" 
d="M533 0h-120l-36 132h-219l-36 -132h-120l199 667h133zM355 230l-87 319l-87 -319h174zM394 723h-60l-67 97l-64 -97h-60l79 144h91zM269 -189c-31 0 -57 25 -57 56s26 57 57 57s56 -26 56 -57s-25 -56 -56 -56z" />
    <glyph glyph-name="uni1EA6" unicode="&#x1ea6;" horiz-adv-x="536" 
d="M394 682h-60l-67 73l-64 -73h-60l79 108h91zM533 0h-120l-36 132h-219l-36 -132h-120l199 667h133zM355 230l-87 319l-87 -319h174zM171 736h-68l-134 108h93z" />
    <glyph glyph-name="uni1EA8" unicode="&#x1ea8;" horiz-adv-x="536" 
d="M394 682h-60l-67 73l-64 -73h-60l79 108h91zM533 0h-120l-36 132h-219l-36 -132h-120l199 667h133zM355 230l-87 319l-87 -319h174zM373 789l-39 8c9 24 34 39 70 39c37 0 67 -15 67 -50c0 -16 -7 -29 -18 -42h-44c15 14 21 27 21 41c0 17 -12 24 -27 24
c-16 0 -25 -8 -30 -20z" />
    <glyph glyph-name="uni1EAE" unicode="&#x1eae;" horiz-adv-x="536" 
d="M533 0h-120l-36 132h-219l-36 -132h-120l199 667h133zM355 230l-87 319l-87 -319h174zM418 835l-134 -91h-68l110 91h92zM417 742c-34 -36 -88 -58 -149 -58c-60 0 -114 22 -149 58l47 29c23 -26 60 -41 102 -41s79 15 102 41z" />
    <glyph glyph-name="uni1EAA" unicode="&#x1eaa;" horiz-adv-x="536" 
d="M394 678h-60l-67 48l-64 -48h-60l79 72h91zM533 0h-120l-36 132h-219l-36 -132h-120l199 667h133zM355 230l-87 319l-87 -319h174zM317 757c-62 0 -69 40 -103 40c-18 0 -34 -11 -34 -37h-54c0 39 32 67 92 67c61 0 68 -40 103 -40c18 0 33 11 33 37h54
c0 -40 -31 -67 -91 -67z" />
    <glyph glyph-name="uni1EB0" unicode="&#x1eb0;" horiz-adv-x="536" 
d="M533 0h-120l-36 132h-219l-36 -132h-120l199 667h133zM355 230l-87 319l-87 -319h174zM321 744h-68l-134 91h93zM417 740c-34 -36 -88 -58 -149 -58c-60 0 -114 22 -149 58l47 29c23 -26 60 -41 102 -41s79 15 102 41z" />
    <glyph glyph-name="uni1EB2" unicode="&#x1eb2;" horiz-adv-x="536" 
d="M533 0h-120l-36 132h-219l-36 -132h-120l199 667h133zM355 230l-87 319l-87 -319h174zM238 784l-39 7c9 20 34 33 70 33c37 0 67 -13 67 -42c0 -14 -7 -25 -18 -36h-44c15 12 21 23 21 34c0 15 -12 21 -27 21c-16 0 -25 -7 -30 -17zM417 740c-34 -36 -88 -58 -149 -58
c-60 0 -114 22 -149 58l47 29c23 -26 60 -41 102 -41s79 15 102 41z" />
    <glyph glyph-name="uni1EB4" unicode="&#x1eb4;" horiz-adv-x="536" 
d="M533 0h-120l-36 132h-219l-36 -132h-120l199 667h133zM355 230l-87 319l-87 -319h174zM417 727c-34 -28 -88 -46 -149 -46c-60 0 -114 18 -149 46l47 23c23 -20 60 -32 102 -32s79 12 102 32zM317 757c-62 0 -69 40 -103 40c-18 0 -34 -11 -34 -37h-54c0 39 32 67 92 67
c61 0 68 -40 103 -40c18 0 33 11 33 37h54c0 -40 -31 -67 -91 -67z" />
    <glyph glyph-name="uni1EB6" unicode="&#x1eb6;" horiz-adv-x="536" 
d="M533 0h-120l-36 132h-219l-36 -132h-120l199 667h133zM355 230l-87 319l-87 -319h174zM269 -189c-31 0 -57 25 -57 56s26 57 57 57s56 -26 56 -57s-25 -56 -56 -56zM417 783c-34 -46 -88 -75 -149 -75c-60 0 -114 29 -149 75l47 38c23 -33 60 -53 102 -53s79 20 102 53z
" />
    <glyph glyph-name="AE" unicode="&#xc6;" horiz-adv-x="772" 
d="M730 0h-365v132h-183l-59 -132h-119l315 667h411v-97h-254v-181h247v-98h-247v-193h254v-98zM365 230v319l-142 -319h142z" />
    <glyph glyph-name="AEacute" unicode="&#x1fc;" horiz-adv-x="772" 
d="M573 867l-134 -144h-68l110 144h92zM730 0h-365v132h-183l-59 -132h-119l315 667h411v-97h-254v-181h247v-98h-247v-193h254v-98zM365 230v319l-142 -319h142z" />
    <glyph glyph-name="uni1E02" unicode="&#x1e02;" horiz-adv-x="540" 
d="M324 0h-260v667h252c113 0 172 -75 172 -170c0 -84 -46 -137 -105 -153c66 -10 116 -82 116 -164c0 -104 -58 -180 -175 -180zM292 389c56 0 82 37 82 90c0 52 -26 91 -82 91h-117v-181h117zM296 98c59 0 89 36 89 97c0 53 -29 96 -89 96h-121v-193h121zM270 717
c-31 0 -57 25 -57 56s26 57 57 57s56 -26 56 -57s-25 -56 -56 -56z" />
    <glyph glyph-name="Cacute" unicode="&#x106;" horiz-adv-x="547" 
d="M462 867l-134 -144h-68l110 144h92zM311 -12c-167 0 -272 145 -272 345c0 201 105 345 272 345c116 0 176 -73 211 -147l-92 -41c-23 53 -64 90 -119 90c-98 0 -159 -104 -159 -247c0 -142 61 -246 159 -246c58 0 99 42 120 98l92 -41c-34 -78 -94 -156 -212 -156z" />
    <glyph glyph-name="Ccedilla" unicode="&#xc7;" horiz-adv-x="547" 
d="M305 -190c-39 0 -74 15 -94 31l21 44c23 -19 47 -28 71 -28c26 0 50 13 50 37c0 18 -11 30 -30 30c-12 0 -23 -6 -30 -14l-39 22l22 59c-147 18 -237 156 -237 342c0 201 105 345 272 345c116 0 176 -73 211 -147l-92 -41c-23 53 -64 90 -119 90
c-98 0 -159 -104 -159 -247c0 -142 61 -246 159 -246c58 0 99 42 120 98l92 -41c-33 -75 -88 -148 -196 -155l-15 -39c9 7 19 11 32 11c35 0 62 -28 62 -68c0 -50 -45 -83 -101 -83z" />
    <glyph glyph-name="Ccircumflex" unicode="&#x108;" horiz-adv-x="547" 
d="M436 723h-60l-67 97l-64 -97h-60l79 144h91zM311 -12c-167 0 -272 145 -272 345c0 201 105 345 272 345c116 0 176 -73 211 -147l-92 -41c-23 53 -64 90 -119 90c-98 0 -159 -104 -159 -247c0 -142 61 -246 159 -246c58 0 99 42 120 98l92 -41
c-34 -78 -94 -156 -212 -156z" />
    <glyph glyph-name="Cdotaccent" unicode="&#x10a;" horiz-adv-x="547" 
d="M311 -12c-167 0 -272 145 -272 345c0 201 105 345 272 345c116 0 176 -73 211 -147l-92 -41c-23 53 -64 90 -119 90c-98 0 -159 -104 -159 -247c0 -142 61 -246 159 -246c58 0 99 42 120 98l92 -41c-34 -78 -94 -156 -212 -156zM312 717c-31 0 -57 25 -57 56s26 57 57 57
s56 -26 56 -57s-25 -56 -56 -56z" />
    <glyph glyph-name="Ccaron" unicode="&#x10c;" horiz-adv-x="547" 
d="M358 723h-91l-82 144h60l67 -97l64 97h60zM311 -12c-167 0 -272 145 -272 345c0 201 105 345 272 345c116 0 176 -73 211 -147l-92 -41c-23 53 -64 90 -119 90c-98 0 -159 -104 -159 -247c0 -142 61 -246 159 -246c58 0 99 42 120 98l92 -41c-34 -78 -94 -156 -212 -156z
" />
    <glyph glyph-name="Dcaron" unicode="&#x10e;" horiz-adv-x="583" 
d="M338 723h-91l-82 144h60l67 -97l64 97h60zM263 0h-199v667h199c179 0 281 -140 281 -334s-101 -333 -281 -333zM263 98c109 0 167 98 167 235c0 140 -56 237 -167 237h-88v-472h88z" />
    <glyph glyph-name="Dcroat" unicode="&#x110;" horiz-adv-x="606" 
d="M287 0h-199v287h-74v82h74v298h199c179 0 281 -140 281 -334s-101 -333 -281 -333zM287 98c109 0 167 98 167 235c0 140 -56 237 -167 237h-88v-201h114v-82h-114v-189h88z" />
    <glyph glyph-name="uni1E0A" unicode="&#x1e0a;" horiz-adv-x="583" 
d="M263 0h-199v667h199c179 0 281 -140 281 -334s-101 -333 -281 -333zM263 98c109 0 167 98 167 235c0 140 -56 237 -167 237h-88v-472h88zM292 717c-31 0 -57 25 -57 56s26 57 57 57s56 -26 56 -57s-25 -56 -56 -56z" />
    <glyph glyph-name="Eacute" unicode="&#xc9;" horiz-adv-x="472" 
d="M397 867l-134 -144h-68l110 144h92zM429 0h-365v667h365v-97h-254v-181h247v-98h-247v-193h254v-98z" />
    <glyph glyph-name="Ebreve" unicode="&#x114;" horiz-adv-x="472" 
d="M429 0h-365v667h365v-97h-254v-181h247v-98h-247v-193h254v-98zM397 783c-34 -46 -88 -75 -149 -75c-60 0 -114 29 -149 75l47 38c23 -33 60 -53 102 -53s79 20 102 53z" />
    <glyph glyph-name="Ecircumflex" unicode="&#xca;" horiz-adv-x="472" 
d="M373 723h-60l-67 97l-64 -97h-60l79 144h91zM429 0h-365v667h365v-97h-254v-181h247v-98h-247v-193h254v-98z" />
    <glyph glyph-name="Edieresis" unicode="&#xcb;" horiz-adv-x="472" 
d="M395 774c0 -31 -26 -56 -57 -56s-56 25 -56 56s25 56 56 56s57 -25 57 -56zM213 774c0 -31 -25 -56 -56 -56s-57 25 -57 56s26 56 57 56s56 -25 56 -56zM429 0h-365v667h365v-97h-254v-181h247v-98h-247v-193h254v-98z" />
    <glyph glyph-name="Edotaccent" unicode="&#x116;" horiz-adv-x="472" 
d="M429 0h-365v667h365v-97h-254v-181h247v-98h-247v-193h254v-98zM251 717c-31 0 -57 25 -57 56s26 57 57 57s56 -26 56 -57s-25 -56 -56 -56z" />
    <glyph glyph-name="Egrave" unicode="&#xc8;" horiz-adv-x="472" 
d="M429 0h-365v667h365v-97h-254v-181h247v-98h-247v-193h254v-98zM297 723h-68l-134 144h93z" />
    <glyph glyph-name="Emacron" unicode="&#x112;" horiz-adv-x="472" 
d="M429 0h-365v667h365v-97h-254v-181h247v-98h-247v-193h254v-98zM402 734h-309v60h309v-60z" />
    <glyph glyph-name="Eogonek" unicode="&#x118;" horiz-adv-x="472" 
d="M429 0c-42 -25 -67 -58 -67 -99c0 -29 15 -42 33 -42c20 0 32 14 38 35l44 -25c-14 -31 -39 -55 -82 -55c-48 0 -86 26 -86 84c0 38 18 73 48 102h-293v667h365v-97h-254v-181h247v-98h-247v-193h254v-98z" />
    <glyph glyph-name="Ecaron" unicode="&#x11a;" horiz-adv-x="472" 
d="M293 723h-91l-82 144h60l67 -97l64 97h60zM429 0h-365v667h365v-97h-254v-181h247v-98h-247v-193h254v-98z" />
    <glyph glyph-name="uni1EB8" unicode="&#x1eb8;" horiz-adv-x="472" 
d="M429 0h-365v667h365v-97h-254v-181h247v-98h-247v-193h254v-98zM251 -189c-31 0 -57 25 -57 56s26 57 57 57s56 -26 56 -57s-25 -56 -56 -56z" />
    <glyph glyph-name="uni1EBA" unicode="&#x1eba;" horiz-adv-x="472" 
d="M429 0h-365v667h365v-97h-254v-181h247v-98h-247v-193h254v-98zM212 757l-39 10c9 32 34 53 70 53c37 0 67 -20 67 -67c0 -22 -7 -39 -18 -56h-44c15 18 21 36 21 54c0 23 -12 32 -27 32c-16 0 -25 -10 -30 -26z" />
    <glyph glyph-name="uni1EBC" unicode="&#x1ebc;" horiz-adv-x="472" 
d="M429 0h-365v667h365v-97h-254v-181h247v-98h-247v-193h254v-98zM296 721c-62 0 -69 81 -103 81c-18 0 -34 -23 -34 -75h-54c0 79 32 134 92 134c61 0 68 -80 103 -80c18 0 33 22 33 74h54c0 -79 -31 -134 -91 -134z" />
    <glyph glyph-name="uni1EBE" unicode="&#x1ebe;" horiz-adv-x="472" 
d="M375 682h-60l-67 73l-64 -73h-60l79 108h91zM549 844l-134 -108h-68l110 108h92zM429 0h-365v667h365v-97h-254v-181h247v-98h-247v-193h254v-98z" />
    <glyph glyph-name="uni1EC0" unicode="&#x1ec0;" horiz-adv-x="472" 
d="M375 682h-60l-67 73l-64 -73h-60l79 108h91zM429 0h-365v667h365v-97h-254v-181h247v-98h-247v-193h254v-98zM151 736h-68l-134 108h93z" />
    <glyph glyph-name="uni1EC2" unicode="&#x1ec2;" horiz-adv-x="472" 
d="M375 682h-60l-67 73l-64 -73h-60l79 108h91zM429 0h-365v667h365v-97h-254v-181h247v-98h-247v-193h254v-98zM353 789l-39 8c9 24 34 39 70 39c37 0 67 -15 67 -50c0 -16 -7 -29 -18 -42h-44c15 14 21 27 21 41c0 17 -12 24 -27 24c-16 0 -25 -8 -30 -20z" />
    <glyph glyph-name="uni1EC4" unicode="&#x1ec4;" horiz-adv-x="472" 
d="M374 678h-60l-67 48l-64 -48h-60l79 72h91zM429 0h-365v667h365v-97h-254v-181h247v-98h-247v-193h254v-98zM297 757c-62 0 -69 40 -103 40c-18 0 -34 -11 -34 -37h-54c0 39 32 67 92 67c61 0 68 -40 103 -40c18 0 33 11 33 37h54c0 -40 -31 -67 -91 -67z" />
    <glyph glyph-name="uni1EC6" unicode="&#x1ec6;" horiz-adv-x="472" 
d="M373 723h-60l-67 97l-64 -97h-60l79 144h91zM429 0h-365v667h365v-97h-254v-181h247v-98h-247v-193h254v-98zM251 -189c-31 0 -57 25 -57 56s26 57 57 57s56 -26 56 -57s-25 -56 -56 -56z" />
    <glyph glyph-name="uni1E1E" unicode="&#x1e1e;" horiz-adv-x="464" 
d="M249 717c-31 0 -57 25 -57 56s26 57 57 57s56 -26 56 -57s-25 -56 -56 -56zM175 0h-111v667h365v-97h-254v-181h247v-98h-247v-291z" />
    <glyph glyph-name="Gcircumflex" unicode="&#x11c;" horiz-adv-x="576" 
d="M438 723h-60l-67 97l-64 -97h-60l79 144h91zM311 -13c-164 0 -272 140 -272 346c0 207 108 345 272 345c108 0 174 -64 212 -142l-90 -42c-24 49 -64 86 -122 86c-95 0 -159 -95 -159 -247c0 -151 64 -247 159 -247c49 0 89 23 111 48v124h-140v97h245v-265
c-53 -63 -124 -103 -216 -103z" />
    <glyph glyph-name="Gbreve" unicode="&#x11e;" horiz-adv-x="576" 
d="M311 -13c-164 0 -272 140 -272 346c0 207 108 345 272 345c108 0 174 -64 212 -142l-90 -42c-24 49 -64 86 -122 86c-95 0 -159 -95 -159 -247c0 -151 64 -247 159 -247c49 0 89 23 111 48v124h-140v97h245v-265c-53 -63 -124 -103 -216 -103zM462 783
c-34 -46 -88 -75 -149 -75c-60 0 -114 29 -149 75l47 38c23 -33 60 -53 102 -53s79 20 102 53z" />
    <glyph glyph-name="Gdotaccent" unicode="&#x120;" horiz-adv-x="576" 
d="M311 -13c-164 0 -272 140 -272 346c0 207 108 345 272 345c108 0 174 -64 212 -142l-90 -42c-24 49 -64 86 -122 86c-95 0 -159 -95 -159 -247c0 -151 64 -247 159 -247c49 0 89 23 111 48v124h-140v97h245v-265c-53 -63 -124 -103 -216 -103zM313 717
c-31 0 -57 25 -57 56s26 57 57 57s56 -26 56 -57s-25 -56 -56 -56z" />
    <glyph glyph-name="Gcommaaccent" unicode="&#x122;" horiz-adv-x="576" 
d="M369 -138c0 -58 -33 -110 -77 -142l-38 30c29 18 56 54 61 83c-2 0 -9 -1 -13 -1c-27 0 -47 20 -47 49c0 30 23 54 53 54c32 0 61 -26 61 -73zM311 -13c-164 0 -272 140 -272 346c0 207 108 345 272 345c108 0 174 -64 212 -142l-90 -42c-24 49 -64 86 -122 86
c-95 0 -159 -95 -159 -247c0 -151 64 -247 159 -247c49 0 89 23 111 48v124h-140v97h245v-265c-53 -63 -124 -103 -216 -103z" />
    <glyph glyph-name="Gbreve.alt1" horiz-adv-x="586" 
d="M461 783c-34 -46 -88 -75 -149 -75c-60 0 -114 29 -149 75l47 38c23 -33 60 -53 102 -53s79 20 102 53zM304 -13c-157 0 -265 140 -265 346c0 207 108 345 272 345c108 0 174 -64 212 -142l-90 -42c-24 49 -64 86 -122 86c-95 0 -159 -95 -159 -247
c0 -151 64 -247 159 -247c85 0 126 83 136 172h-165v98h279c0 -229 -84 -369 -257 -369z" />
    <glyph glyph-name="Gcommaaccent.alt1" horiz-adv-x="586" 
d="M373 -138c0 -58 -33 -110 -77 -142l-38 30c29 18 56 54 61 83c-2 0 -9 -1 -13 -1c-27 0 -47 20 -47 49c0 30 23 54 53 54c32 0 61 -26 61 -73zM304 -13c-157 0 -265 140 -265 346c0 207 108 345 272 345c108 0 174 -64 212 -142l-90 -42c-24 49 -64 86 -122 86
c-95 0 -159 -95 -159 -247c0 -151 64 -247 159 -247c85 0 126 83 136 172h-165v98h279c0 -229 -84 -369 -257 -369z" />
    <glyph glyph-name="Gcircumflex.alt1" horiz-adv-x="586" 
d="M435 723h-60l-67 97l-64 -97h-60l79 144h91zM304 -13c-157 0 -265 140 -265 346c0 207 108 345 272 345c108 0 174 -64 212 -142l-90 -42c-24 49 -64 86 -122 86c-95 0 -159 -95 -159 -247c0 -151 64 -247 159 -247c85 0 126 83 136 172h-165v98h279
c0 -229 -84 -369 -257 -369z" />
    <glyph glyph-name="Gdotaccent.alt1" horiz-adv-x="586" 
d="M310 717c-31 0 -57 25 -57 56s26 57 57 57s56 -26 56 -57s-25 -56 -56 -56zM304 -13c-157 0 -265 140 -265 346c0 207 108 345 272 345c108 0 174 -64 212 -142l-90 -42c-24 49 -64 86 -122 86c-95 0 -159 -95 -159 -247c0 -151 64 -247 159 -247c85 0 126 83 136 172
h-165v98h279c0 -229 -84 -369 -257 -369z" />
    <glyph glyph-name="Hbar" unicode="&#x126;" horiz-adv-x="620" 
d="M544 0h-111v294h-244v-294h-111v498h-64v60h64v109h111v-109h244v109h111v-109h56v-60h-56v-498zM189 392h244v106h-244v-106z" />
    <glyph glyph-name="Hcircumflex" unicode="&#x124;" horiz-adv-x="593" 
d="M421 723h-60l-67 97l-64 -97h-60l79 144h91zM530 0h-111v294h-244v-294h-111v667h111v-275h244v275h111v-667z" />
    <glyph glyph-name="uni1E22" unicode="&#x1e22;" horiz-adv-x="593" 
d="M530 0h-111v294h-244v-294h-111v667h111v-275h244v275h111v-667zM297 717c-31 0 -57 25 -57 56s26 57 57 57s56 -26 56 -57s-25 -56 -56 -56z" />
    <glyph glyph-name="Iacute" unicode="&#xcd;" horiz-adv-x="239" 
d="M175 0h-111v667h111v-667zM271 867l-134 -144h-68l110 144h92z" />
    <glyph glyph-name="Ibreve" unicode="&#x12c;" horiz-adv-x="239" 
d="M175 0h-111v667h111v-667zM269 783c-34 -46 -88 -75 -149 -75c-60 0 -114 29 -149 75l47 38c23 -33 60 -53 102 -53s79 20 102 53z" />
    <glyph glyph-name="Icircumflex" unicode="&#xce;" horiz-adv-x="239" 
d="M245 723h-60l-67 97l-64 -97h-60l79 144h91zM175 0h-111v667h111v-667z" />
    <glyph glyph-name="Idieresis" unicode="&#xcf;" horiz-adv-x="239" 
d="M268 774c0 -31 -26 -56 -57 -56s-56 25 -56 56s25 56 56 56s57 -25 57 -56zM86 774c0 -31 -25 -56 -56 -56s-57 25 -57 56s26 56 57 56s56 -25 56 -56zM175 0h-111v667h111v-667z" />
    <glyph glyph-name="Idotaccent" unicode="&#x130;" horiz-adv-x="239" 
d="M175 0h-111v667h111v-667zM121 717c-31 0 -57 25 -57 56s26 57 57 57s56 -26 56 -57s-25 -56 -56 -56z" />
    <glyph glyph-name="Igrave" unicode="&#xcc;" horiz-adv-x="239" 
d="M175 0h-111v667h111v-667zM170 723h-68l-134 144h93z" />
    <glyph glyph-name="Imacron" unicode="&#x12a;" horiz-adv-x="239" 
d="M175 0h-111v667h111v-667zM274 734h-309v60h309v-60z" />
    <glyph glyph-name="Iogonek" unicode="&#x12e;" horiz-adv-x="239" 
d="M179 -106l44 -25c-14 -31 -39 -55 -82 -55c-48 0 -86 26 -86 84c0 38 18 73 48 102h-39v667h111v-667c-42 -25 -67 -58 -67 -99c0 -29 15 -42 33 -42c20 0 32 14 38 35z" />
    <glyph glyph-name="Itilde" unicode="&#x128;" horiz-adv-x="239" 
d="M175 0h-111v667h111v-667zM170 721c-62 0 -69 81 -103 81c-18 0 -34 -23 -34 -75h-54c0 79 32 134 92 134c61 0 68 -80 103 -80c18 0 33 22 33 74h54c0 -79 -31 -134 -91 -134z" />
    <glyph glyph-name="uni1EC8" unicode="&#x1ec8;" horiz-adv-x="239" 
d="M175 0h-111v667h111v-667zM90 757l-39 10c9 32 34 53 70 53c37 0 67 -20 67 -67c0 -22 -7 -39 -18 -56h-44c15 18 21 36 21 54c0 23 -12 32 -27 32c-16 0 -25 -10 -30 -26z" />
    <glyph glyph-name="uni1ECA" unicode="&#x1eca;" horiz-adv-x="239" 
d="M175 0h-111v667h111v-667zM121 -189c-31 0 -57 25 -57 56s26 57 57 57s56 -26 56 -57s-25 -56 -56 -56z" />
    <glyph glyph-name="IJ" unicode="&#x132;" horiz-adv-x="647" 
d="M175 0h-111v667h111v-667zM389 -12c-54 0 -103 16 -142 55l43 87c23 -26 52 -43 89 -43c59 0 95 36 95 100v480h111v-483c0 -135 -82 -196 -196 -196z" />
    <glyph glyph-name="Jcircumflex" unicode="&#x134;" horiz-adv-x="409" 
d="M416 723h-60l-67 97l-64 -97h-60l79 144h91zM150 -12c-54 0 -103 16 -142 55l43 87c23 -26 52 -43 89 -43c59 0 95 36 95 100v480h111v-483c0 -135 -82 -196 -196 -196z" />
    <glyph glyph-name="Kcommaaccent" unicode="&#x136;" horiz-adv-x="539" 
d="M334 -138c0 -58 -33 -110 -77 -142l-38 30c29 18 56 54 61 83c-2 0 -9 -1 -13 -1c-27 0 -47 20 -47 49c0 30 23 54 53 54c32 0 61 -26 61 -73zM528 0h-131l-172 275l-50 -76v-199h-111v667h111v-321l207 321h130l-218 -315z" />
    <glyph glyph-name="Lacute" unicode="&#x139;" horiz-adv-x="434" 
d="M386 867l-134 -144h-68l110 144h92zM406 0h-342v667h111v-569h231v-98z" />
    <glyph glyph-name="Lcaron" unicode="&#x13d;" horiz-adv-x="434" 
d="M358 607c0 -58 -33 -110 -77 -142l-38 30c29 18 56 54 61 83c-2 0 -9 -1 -13 -1c-27 0 -47 20 -47 49c0 30 23 54 53 54c32 0 61 -26 61 -73zM406 0h-342v667h111v-569h231v-98z" />
    <glyph glyph-name="Lcommaaccent" unicode="&#x13b;" horiz-adv-x="434" 
d="M281 -138c0 -58 -33 -110 -77 -142l-38 30c29 18 56 54 61 83c-2 0 -9 -1 -13 -1c-27 0 -47 20 -47 49c0 30 23 54 53 54c32 0 61 -26 61 -73zM406 0h-342v667h111v-569h231v-98z" />
    <glyph glyph-name="Ldot" unicode="&#x13f;" horiz-adv-x="459" 
d="M406 0h-342v667h111v-569h231v-98zM415 342c0 -36 -30 -67 -67 -67s-67 31 -67 67s30 67 67 67s67 -31 67 -67z" />
    <glyph glyph-name="Lslash" unicode="&#x141;" horiz-adv-x="448" 
d="M14 218v92l64 37v320h111v-256l71 42v-93l-71 -41v-221h231v-98h-342v255z" />
    <glyph glyph-name="Nacute" unicode="&#x143;" horiz-adv-x="592" 
d="M447 867l-134 -144h-68l110 144h92zM528 0h-106l-247 431v-431h-111v667h112l241 -419v419h111v-667z" />
    <glyph glyph-name="Ncaron" unicode="&#x147;" horiz-adv-x="592" 
d="M343 723h-91l-82 144h60l67 -97l64 97h60zM528 0h-106l-247 431v-431h-111v667h112l241 -419v419h111v-667z" />
    <glyph glyph-name="Ncommaaccent" unicode="&#x145;" horiz-adv-x="592" 
d="M360 -138c0 -58 -33 -110 -77 -142l-38 30c29 18 56 54 61 83c-2 0 -9 -1 -13 -1c-27 0 -47 20 -47 49c0 30 23 54 53 54c32 0 61 -26 61 -73zM528 0h-106l-247 431v-431h-111v667h112l241 -419v419h111v-667z" />
    <glyph glyph-name="Ntilde" unicode="&#xd1;" horiz-adv-x="592" 
d="M344 721c-62 0 -69 81 -103 81c-18 0 -34 -23 -34 -75h-54c0 79 32 134 92 134c61 0 68 -80 103 -80c18 0 33 22 33 74h54c0 -79 -31 -134 -91 -134zM528 0h-106l-247 431v-431h-111v667h112l241 -419v419h111v-667z" />
    <glyph glyph-name="Eng" unicode="&#x14a;" horiz-adv-x="592" 
d="M333 -196c-54 0 -104 15 -143 55l43 86c23 -26 53 -44 90 -44c58 0 94 36 94 100v8l-242 442v-451h-111v667h112l241 -439v439h111v-668c0 -135 -81 -195 -195 -195z" />
    <glyph glyph-name="Oacute" unicode="&#xd3;" horiz-adv-x="612" 
d="M457 867l-134 -144h-68l110 144h92zM306 -12c-169 0 -267 149 -267 345s98 345 267 345s267 -149 267 -345s-98 -345 -267 -345zM306 87c99 0 154 108 154 246c0 140 -55 247 -154 247c-100 0 -154 -107 -154 -247c0 -138 54 -246 154 -246z" />
    <glyph glyph-name="Obreve" unicode="&#x14e;" horiz-adv-x="612" 
d="M306 -12c-169 0 -267 149 -267 345s98 345 267 345s267 -149 267 -345s-98 -345 -267 -345zM306 87c99 0 154 108 154 246c0 140 -55 247 -154 247c-100 0 -154 -107 -154 -247c0 -138 54 -246 154 -246zM455 783c-34 -46 -88 -75 -149 -75c-60 0 -114 29 -149 75l47 38
c23 -33 60 -53 102 -53s79 20 102 53z" />
    <glyph glyph-name="Ocircumflex" unicode="&#xd4;" horiz-adv-x="612" 
d="M433 723h-60l-67 97l-64 -97h-60l79 144h91zM306 -12c-169 0 -267 149 -267 345s98 345 267 345s267 -149 267 -345s-98 -345 -267 -345zM306 87c99 0 154 108 154 246c0 140 -55 247 -154 247c-100 0 -154 -107 -154 -247c0 -138 54 -246 154 -246z" />
    <glyph glyph-name="Odieresis" unicode="&#xd6;" horiz-adv-x="612" 
d="M454 774c0 -31 -26 -56 -57 -56s-56 25 -56 56s25 56 56 56s57 -25 57 -56zM272 774c0 -31 -25 -56 -56 -56s-57 25 -57 56s26 56 57 56s56 -25 56 -56zM306 -12c-169 0 -267 149 -267 345s98 345 267 345s267 -149 267 -345s-98 -345 -267 -345zM306 87
c99 0 154 108 154 246c0 140 -55 247 -154 247c-100 0 -154 -107 -154 -247c0 -138 54 -246 154 -246z" />
    <glyph glyph-name="Ograve" unicode="&#xd2;" horiz-adv-x="612" 
d="M357 723h-68l-134 144h93zM306 -12c-169 0 -267 149 -267 345s98 345 267 345s267 -149 267 -345s-98 -345 -267 -345zM306 87c99 0 154 108 154 246c0 140 -55 247 -154 247c-100 0 -154 -107 -154 -247c0 -138 54 -246 154 -246z" />
    <glyph glyph-name="Ohungarumlaut" unicode="&#x150;" horiz-adv-x="612" 
d="M353 867l-97 -144h-57l73 144h81zM487 867l-97 -144h-56l72 144h81zM306 -12c-169 0 -267 149 -267 345s98 345 267 345s267 -149 267 -345s-98 -345 -267 -345zM306 87c99 0 154 108 154 246c0 140 -55 247 -154 247c-100 0 -154 -107 -154 -247
c0 -138 54 -246 154 -246z" />
    <glyph glyph-name="Omacron" unicode="&#x14c;" horiz-adv-x="612" 
d="M460 734h-309v60h309v-60zM306 -12c-169 0 -267 149 -267 345s98 345 267 345s267 -149 267 -345s-98 -345 -267 -345zM306 87c99 0 154 108 154 246c0 140 -55 247 -154 247c-100 0 -154 -107 -154 -247c0 -138 54 -246 154 -246z" />
    <glyph glyph-name="Oslash" unicode="&#xd8;" horiz-adv-x="612" 
d="M306 -12c-55 0 -103 16 -142 44l-19 -32h-76l46 79c-49 62 -76 151 -76 254c0 196 98 345 267 345c53 0 99 -15 138 -42l18 31h75l-44 -76c52 -62 80 -153 80 -258c0 -196 -98 -345 -267 -345zM306 87c99 0 154 108 154 246c0 59 -10 112 -29 154l-213 -364
c23 -23 53 -36 88 -36zM152 333c0 -56 9 -107 26 -148l213 361c-23 22 -52 34 -85 34c-100 0 -154 -107 -154 -247z" />
    <glyph glyph-name="Oslashacute" unicode="&#x1fe;" horiz-adv-x="612" 
d="M457 867l-134 -144h-68l110 144h92zM306 -12c-55 0 -103 16 -142 44l-19 -32h-76l46 79c-49 62 -76 151 -76 254c0 196 98 345 267 345c53 0 99 -15 138 -42l18 31h75l-44 -76c52 -62 80 -153 80 -258c0 -196 -98 -345 -267 -345zM306 87c99 0 154 108 154 246
c0 59 -10 112 -29 154l-213 -364c23 -23 53 -36 88 -36zM152 333c0 -56 9 -107 26 -148l213 361c-23 22 -52 34 -85 34c-100 0 -154 -107 -154 -247z" />
    <glyph glyph-name="Otilde" unicode="&#xd5;" horiz-adv-x="612" 
d="M306 -12c-169 0 -267 149 -267 345s98 345 267 345s267 -149 267 -345s-98 -345 -267 -345zM306 87c99 0 154 108 154 246c0 140 -55 247 -154 247c-100 0 -154 -107 -154 -247c0 -138 54 -246 154 -246zM357 721c-62 0 -69 81 -103 81c-18 0 -34 -23 -34 -75h-54
c0 79 32 134 92 134c61 0 68 -80 103 -80c18 0 33 22 33 74h54c0 -79 -31 -134 -91 -134z" />
    <glyph glyph-name="uni1ECC" unicode="&#x1ecc;" horiz-adv-x="612" 
d="M306 -12c-169 0 -267 149 -267 345s98 345 267 345s267 -149 267 -345s-98 -345 -267 -345zM306 87c99 0 154 108 154 246c0 140 -55 247 -154 247c-100 0 -154 -107 -154 -247c0 -138 54 -246 154 -246zM309 -189c-31 0 -57 25 -57 56s26 57 57 57s56 -26 56 -57
s-25 -56 -56 -56z" />
    <glyph glyph-name="uni1ECE" unicode="&#x1ece;" horiz-adv-x="612" 
d="M306 -12c-169 0 -267 149 -267 345s98 345 267 345s267 -149 267 -345s-98 -345 -267 -345zM306 87c99 0 154 108 154 246c0 140 -55 247 -154 247c-100 0 -154 -107 -154 -247c0 -138 54 -246 154 -246zM276 757l-39 10c9 32 34 53 70 53c37 0 67 -20 67 -67
c0 -22 -7 -39 -18 -56h-44c15 18 21 36 21 54c0 23 -12 32 -27 32c-16 0 -25 -10 -30 -26z" />
    <glyph glyph-name="uni1ED0" unicode="&#x1ed0;" horiz-adv-x="612" 
d="M429 682h-60l-67 73l-64 -73h-60l79 108h91zM603 844l-134 -108h-68l110 108h92zM306 -12c-169 0 -267 149 -267 345s98 345 267 345s267 -149 267 -345s-98 -345 -267 -345zM306 87c99 0 154 108 154 246c0 140 -55 247 -154 247c-100 0 -154 -107 -154 -247
c0 -138 54 -246 154 -246z" />
    <glyph glyph-name="uni1ED2" unicode="&#x1ed2;" horiz-adv-x="612" 
d="M427 682h-60l-67 73l-64 -73h-60l79 108h91zM306 -12c-169 0 -267 149 -267 345s98 345 267 345s267 -149 267 -345s-98 -345 -267 -345zM306 87c99 0 154 108 154 246c0 140 -55 247 -154 247c-100 0 -154 -107 -154 -247c0 -138 54 -246 154 -246zM204 736h-68
l-134 108h93z" />
    <glyph glyph-name="uni1ED4" unicode="&#x1ed4;" horiz-adv-x="612" 
d="M427 682h-60l-67 73l-64 -73h-60l79 108h91zM306 -12c-169 0 -267 149 -267 345s98 345 267 345s267 -149 267 -345s-98 -345 -267 -345zM306 87c99 0 154 108 154 246c0 140 -55 247 -154 247c-100 0 -154 -107 -154 -247c0 -138 54 -246 154 -246zM405 789l-39 8
c9 24 34 39 70 39c37 0 67 -15 67 -50c0 -16 -7 -29 -18 -42h-44c15 14 21 27 21 41c0 17 -12 24 -27 24c-16 0 -25 -8 -30 -20z" />
    <glyph glyph-name="uni1ED6" unicode="&#x1ed6;" horiz-adv-x="612" 
d="M431 678h-60l-67 48l-64 -48h-60l79 72h91zM306 -12c-169 0 -267 149 -267 345s98 345 267 345s267 -149 267 -345s-98 -345 -267 -345zM306 87c99 0 154 108 154 246c0 140 -55 247 -154 247c-100 0 -154 -107 -154 -247c0 -138 54 -246 154 -246zM354 757
c-62 0 -69 40 -103 40c-18 0 -34 -11 -34 -37h-54c0 39 32 67 92 67c61 0 68 -40 103 -40c18 0 33 11 33 37h54c0 -40 -31 -67 -91 -67z" />
    <glyph glyph-name="uni1ED8" unicode="&#x1ed8;" horiz-adv-x="612" 
d="M433 723h-60l-67 97l-64 -97h-60l79 144h91zM306 -12c-169 0 -267 149 -267 345s98 345 267 345s267 -149 267 -345s-98 -345 -267 -345zM306 87c99 0 154 108 154 246c0 140 -55 247 -154 247c-100 0 -154 -107 -154 -247c0 -138 54 -246 154 -246zM309 -189
c-31 0 -57 25 -57 56s26 57 57 57s56 -26 56 -57s-25 -56 -56 -56z" />
    <glyph glyph-name="Ohorn" unicode="&#x1a0;" horiz-adv-x="612" 
d="M306 -12c-169 0 -267 149 -267 345s98 345 267 345c87 0 155 -40 201 -105c20 18 37 44 40 67c-1 -1 -7 -2 -12 -2c-25 0 -43 19 -43 46s21 49 49 49c29 0 55 -25 55 -68c0 -51 -28 -99 -67 -129c28 -57 44 -126 44 -203c0 -196 -98 -345 -267 -345zM306 87
c99 0 154 108 154 246c0 140 -55 247 -154 247c-100 0 -154 -107 -154 -247c0 -138 54 -246 154 -246z" />
    <glyph glyph-name="uni1EDA" unicode="&#x1eda;" horiz-adv-x="612" 
d="M457 867l-134 -144h-68l110 144h92zM306 -12c-169 0 -267 149 -267 345s98 345 267 345c87 0 155 -40 201 -105c20 18 37 44 40 67c-1 -1 -7 -2 -12 -2c-25 0 -43 19 -43 46s21 49 49 49c29 0 55 -25 55 -68c0 -51 -28 -99 -67 -129c28 -57 44 -126 44 -203
c0 -196 -98 -345 -267 -345zM306 87c99 0 154 108 154 246c0 140 -55 247 -154 247c-100 0 -154 -107 -154 -247c0 -138 54 -246 154 -246z" />
    <glyph glyph-name="uni1EDC" unicode="&#x1edc;" horiz-adv-x="612" 
d="M306 -12c-169 0 -267 149 -267 345s98 345 267 345c87 0 155 -40 201 -105c20 18 37 44 40 67c-1 -1 -7 -2 -12 -2c-25 0 -43 19 -43 46s21 49 49 49c29 0 55 -25 55 -68c0 -51 -28 -99 -67 -129c28 -57 44 -126 44 -203c0 -196 -98 -345 -267 -345zM306 87
c99 0 154 108 154 246c0 140 -55 247 -154 247c-100 0 -154 -107 -154 -247c0 -138 54 -246 154 -246zM357 723h-68l-134 144h93z" />
    <glyph glyph-name="uni1EDE" unicode="&#x1ede;" horiz-adv-x="612" 
d="M306 -12c-169 0 -267 149 -267 345s98 345 267 345c87 0 155 -40 201 -105c20 18 37 44 40 67c-1 -1 -7 -2 -12 -2c-25 0 -43 19 -43 46s21 49 49 49c29 0 55 -25 55 -68c0 -51 -28 -99 -67 -129c28 -57 44 -126 44 -203c0 -196 -98 -345 -267 -345zM306 87
c99 0 154 108 154 246c0 140 -55 247 -154 247c-100 0 -154 -107 -154 -247c0 -138 54 -246 154 -246zM276 757l-39 10c9 32 34 53 70 53c37 0 67 -20 67 -67c0 -22 -7 -39 -18 -56h-44c15 18 21 36 21 54c0 23 -12 32 -27 32c-16 0 -25 -10 -30 -26z" />
    <glyph glyph-name="uni1EE0" unicode="&#x1ee0;" horiz-adv-x="612" 
d="M306 -12c-169 0 -267 149 -267 345s98 345 267 345c87 0 155 -40 201 -105c20 18 37 44 40 67c-1 -1 -7 -2 -12 -2c-25 0 -43 19 -43 46s21 49 49 49c29 0 55 -25 55 -68c0 -51 -28 -99 -67 -129c28 -57 44 -126 44 -203c0 -196 -98 -345 -267 -345zM306 87
c99 0 154 108 154 246c0 140 -55 247 -154 247c-100 0 -154 -107 -154 -247c0 -138 54 -246 154 -246zM357 721c-62 0 -69 81 -103 81c-18 0 -34 -23 -34 -75h-54c0 79 32 134 92 134c61 0 68 -80 103 -80c18 0 33 22 33 74h54c0 -79 -31 -134 -91 -134z" />
    <glyph glyph-name="uni1EE2" unicode="&#x1ee2;" horiz-adv-x="612" 
d="M306 -12c-169 0 -267 149 -267 345s98 345 267 345c87 0 155 -40 201 -105c20 18 37 44 40 67c-1 -1 -7 -2 -12 -2c-25 0 -43 19 -43 46s21 49 49 49c29 0 55 -25 55 -68c0 -51 -28 -99 -67 -129c28 -57 44 -126 44 -203c0 -196 -98 -345 -267 -345zM306 87
c99 0 154 108 154 246c0 140 -55 247 -154 247c-100 0 -154 -107 -154 -247c0 -138 54 -246 154 -246zM309 -189c-31 0 -57 25 -57 56s26 57 57 57s56 -26 56 -57s-25 -56 -56 -56z" />
    <glyph glyph-name="OE" unicode="&#x152;" horiz-adv-x="855" 
d="M813 0h-365v77c-36 -63 -101 -89 -157 -89c-160 0 -252 149 -252 345c0 197 92 344 252 344c56 0 121 -25 157 -87v77h365v-97h-254v-181h247v-98h-247v-193h254v-98zM448 206v254c-25 78 -77 119 -140 119c-103 0 -156 -106 -156 -246c0 -139 53 -246 156 -246
c63 0 115 42 140 119z" />
    <glyph glyph-name="uni1E56" unicode="&#x1e56;" horiz-adv-x="513" 
d="M175 0h-111v667h227c131 0 197 -96 197 -207c0 -112 -66 -208 -197 -208h-116v-252zM278 350c59 0 97 44 97 110s-38 110 -97 110h-103v-220h103zM257 717c-31 0 -57 25 -57 56s26 57 57 57s56 -26 56 -57s-25 -56 -56 -56z" />
    <glyph glyph-name="Racute" unicode="&#x154;" horiz-adv-x="533" 
d="M425 867l-134 -144h-68l110 144h92zM494 0h-124l-113 252h-82v-252h-111v667h230c115 0 194 -83 194 -206c0 -117 -64 -174 -123 -190zM278 350c59 0 97 44 97 110s-38 110 -97 110h-103v-220h103z" />
    <glyph glyph-name="Rcaron" unicode="&#x158;" horiz-adv-x="533" 
d="M314 723h-91l-82 144h60l67 -97l64 97h60zM494 0h-124l-113 252h-82v-252h-111v667h230c115 0 194 -83 194 -206c0 -117 -64 -174 -123 -190zM278 350c59 0 97 44 97 110s-38 110 -97 110h-103v-220h103z" />
    <glyph glyph-name="Rcommaaccent" unicode="&#x156;" horiz-adv-x="533" 
d="M331 -138c0 -58 -33 -110 -77 -142l-38 30c29 18 56 54 61 83c-2 0 -9 -1 -13 -1c-27 0 -47 20 -47 49c0 30 23 54 53 54c32 0 61 -26 61 -73zM494 0h-124l-113 252h-82v-252h-111v667h230c115 0 194 -83 194 -206c0 -117 -64 -174 -123 -190zM278 350c59 0 97 44 97 110
s-38 110 -97 110h-103v-220h103z" />
    <glyph glyph-name="Sacute" unicode="&#x15a;" horiz-adv-x="486" 
d="M394 867l-134 -144h-68l110 144h92zM237 -12c-95 0 -166 33 -215 85l56 86c36 -41 93 -72 159 -72c69 0 104 41 104 88c0 137 -299 95 -299 317c0 104 81 186 207 186c78 0 144 -26 192 -72l-54 -84c-39 39 -89 57 -141 57c-54 0 -91 -32 -91 -81
c0 -119 299 -90 299 -314c0 -109 -74 -196 -217 -196z" />
    <glyph glyph-name="Scaron" unicode="&#x160;" horiz-adv-x="486" 
d="M295 723h-91l-82 144h60l67 -97l64 97h60zM237 -12c-95 0 -166 33 -215 85l56 86c36 -41 93 -72 159 -72c69 0 104 41 104 88c0 137 -299 95 -299 317c0 104 81 186 207 186c78 0 144 -26 192 -72l-54 -84c-39 39 -89 57 -141 57c-54 0 -91 -32 -91 -81
c0 -119 299 -90 299 -314c0 -109 -74 -196 -217 -196z" />
    <glyph glyph-name="Scircumflex" unicode="&#x15c;" horiz-adv-x="486" 
d="M373 723h-60l-67 97l-64 -97h-60l79 144h91zM237 -12c-95 0 -166 33 -215 85l56 86c36 -41 93 -72 159 -72c69 0 104 41 104 88c0 137 -299 95 -299 317c0 104 81 186 207 186c78 0 144 -26 192 -72l-54 -84c-39 39 -89 57 -141 57c-54 0 -91 -32 -91 -81
c0 -119 299 -90 299 -314c0 -109 -74 -196 -217 -196z" />
    <glyph glyph-name="Scedilla" unicode="&#x15e;" horiz-adv-x="486" 
d="M230 -194c-39 0 -74 15 -94 31l21 44c23 -19 47 -28 71 -28c26 0 50 13 50 37c0 18 -11 30 -30 30c-12 0 -23 -6 -30 -14l-39 22l23 62c-78 7 -137 37 -180 83l56 86c36 -41 93 -72 159 -72c69 0 104 41 104 88c0 137 -299 95 -299 317c0 104 81 186 207 186
c78 0 144 -26 192 -72l-54 -84c-39 39 -89 57 -141 57c-54 0 -91 -32 -91 -81c0 -119 299 -90 299 -314c0 -105 -68 -189 -200 -195l-17 -43c9 7 19 11 32 11c35 0 62 -28 62 -68c0 -50 -45 -83 -101 -83z" />
    <glyph glyph-name="Scommaaccent" unicode="&#x218;" horiz-adv-x="486" 
d="M302 -138c0 -58 -33 -110 -77 -142l-38 30c29 18 56 54 61 83c-2 0 -9 -1 -13 -1c-27 0 -47 20 -47 49c0 30 23 54 53 54c32 0 61 -26 61 -73zM237 -12c-95 0 -166 33 -215 85l56 86c36 -41 93 -72 159 -72c69 0 104 41 104 88c0 137 -299 95 -299 317
c0 104 81 186 207 186c78 0 144 -26 192 -72l-54 -84c-39 39 -89 57 -141 57c-54 0 -91 -32 -91 -81c0 -119 299 -90 299 -314c0 -109 -74 -196 -217 -196z" />
    <glyph glyph-name="uni1E60" unicode="&#x1e60;" horiz-adv-x="486" 
d="M237 -12c-95 0 -166 33 -215 85l56 86c36 -41 93 -72 159 -72c69 0 104 41 104 88c0 137 -299 95 -299 317c0 104 81 186 207 186c78 0 144 -26 192 -72l-54 -84c-39 39 -89 57 -141 57c-54 0 -91 -32 -91 -81c0 -119 299 -90 299 -314c0 -109 -74 -196 -217 -196z
M243 717c-31 0 -57 25 -57 56s26 57 57 57s56 -26 56 -57s-25 -56 -56 -56z" />
    <glyph glyph-name="Tbar" unicode="&#x166;" horiz-adv-x="462" 
d="M286 0h-110v279h-107v60h107v231h-153v97h416v-97h-153v-231h103v-60h-103v-279z" />
    <glyph glyph-name="Tcaron" unicode="&#x164;" horiz-adv-x="462" 
d="M278 723h-91l-82 144h60l67 -97l64 97h60zM286 0h-110v570h-153v97h416v-97h-153v-570z" />
    <glyph glyph-name="Tcommaaccent" unicode="&#x162;" horiz-adv-x="462" 
d="M294 -138c0 -58 -33 -110 -77 -142l-38 30c29 18 56 54 61 83c-2 0 -9 -1 -13 -1c-27 0 -47 20 -47 49c0 30 23 54 53 54c32 0 61 -26 61 -73zM286 0h-110v570h-153v97h416v-97h-153v-570z" />
    <glyph glyph-name="uni021A" unicode="&#x21a;" horiz-adv-x="462" 
d="M294 -138c0 -58 -33 -110 -77 -142l-38 30c29 18 56 54 61 83c-2 0 -9 -1 -13 -1c-27 0 -47 20 -47 49c0 30 23 54 53 54c32 0 61 -26 61 -73zM286 0h-110v570h-153v97h416v-97h-153v-570z" />
    <glyph glyph-name="uni1E6A" unicode="&#x1e6a;" horiz-adv-x="462" 
d="M286 0h-110v570h-153v97h416v-97h-153v-570zM231 717c-31 0 -57 25 -57 56s26 57 57 57s56 -26 56 -57s-25 -56 -56 -56z" />
    <glyph glyph-name="Uacute" unicode="&#xda;" horiz-adv-x="592" 
d="M447 867l-134 -144h-68l110 144h92zM296 -12c-144 0 -232 85 -232 236v443h111v-444c0 -89 44 -137 121 -137s121 48 121 137v444h111v-443c0 -151 -88 -236 -232 -236z" />
    <glyph glyph-name="Ubreve" unicode="&#x16c;" horiz-adv-x="592" 
d="M296 -12c-144 0 -232 85 -232 236v443h111v-444c0 -89 44 -137 121 -137s121 48 121 137v444h111v-443c0 -151 -88 -236 -232 -236zM447 783c-34 -46 -88 -75 -149 -75c-60 0 -114 29 -149 75l47 38c23 -33 60 -53 102 -53s79 20 102 53z" />
    <glyph glyph-name="Ucircumflex" unicode="&#xdb;" horiz-adv-x="592" 
d="M423 723h-60l-67 97l-64 -97h-60l79 144h91zM296 -12c-144 0 -232 85 -232 236v443h111v-444c0 -89 44 -137 121 -137s121 48 121 137v444h111v-443c0 -151 -88 -236 -232 -236z" />
    <glyph glyph-name="Udieresis" unicode="&#xdc;" horiz-adv-x="592" 
d="M445 774c0 -31 -26 -56 -57 -56s-56 25 -56 56s25 56 56 56s57 -25 57 -56zM263 774c0 -31 -25 -56 -56 -56s-57 25 -57 56s26 56 57 56s56 -25 56 -56zM296 -12c-144 0 -232 85 -232 236v443h111v-444c0 -89 44 -137 121 -137s121 48 121 137v444h111v-443
c0 -151 -88 -236 -232 -236z" />
    <glyph glyph-name="Ugrave" unicode="&#xd9;" horiz-adv-x="592" 
d="M296 -12c-144 0 -232 85 -232 236v443h111v-444c0 -89 44 -137 121 -137s121 48 121 137v444h111v-443c0 -151 -88 -236 -232 -236zM347 723h-68l-134 144h93z" />
    <glyph glyph-name="Uhungarumlaut" unicode="&#x170;" horiz-adv-x="592" 
d="M296 -12c-144 0 -232 85 -232 236v443h111v-444c0 -89 44 -137 121 -137s121 48 121 137v444h111v-443c0 -151 -88 -236 -232 -236zM344 867l-97 -144h-57l73 144h81zM478 867l-97 -144h-56l72 144h81z" />
    <glyph glyph-name="Umacron" unicode="&#x16a;" horiz-adv-x="592" 
d="M296 -12c-144 0 -232 85 -232 236v443h111v-444c0 -89 44 -137 121 -137s121 48 121 137v444h111v-443c0 -151 -88 -236 -232 -236zM451 734h-309v60h309v-60z" />
    <glyph glyph-name="Uogonek" unicode="&#x172;" horiz-adv-x="592" 
d="M296 -12c-144 0 -232 85 -232 236v443h111v-444c0 -89 44 -137 121 -137s121 48 121 137v444h111v-443c0 -118 -54 -196 -146 -224c-42 -25 -67 -58 -67 -99c0 -29 15 -42 33 -42c20 0 32 14 38 35l44 -25c-14 -31 -39 -55 -82 -55c-48 0 -86 26 -86 84c0 33 13 64 36 90
h-2z" />
    <glyph glyph-name="Uring" unicode="&#x16e;" horiz-adv-x="592" 
d="M297 698c-51 0 -94 43 -94 95c0 51 43 94 94 94c52 0 94 -43 94 -94c0 -52 -42 -95 -94 -95zM297 745c27 0 47 22 47 48s-20 47 -47 47c-25 0 -47 -21 -47 -47s22 -48 47 -48zM296 -12c-144 0 -232 85 -232 236v443h111v-444c0 -89 44 -137 121 -137s121 48 121 137v444
h111v-443c0 -151 -88 -236 -232 -236z" />
    <glyph glyph-name="Utilde" unicode="&#x168;" horiz-adv-x="592" 
d="M296 -12c-144 0 -232 85 -232 236v443h111v-444c0 -89 44 -137 121 -137s121 48 121 137v444h111v-443c0 -151 -88 -236 -232 -236zM348 721c-62 0 -69 81 -103 81c-18 0 -34 -23 -34 -75h-54c0 79 32 134 92 134c61 0 68 -80 103 -80c18 0 33 22 33 74h54
c0 -79 -31 -134 -91 -134z" />
    <glyph glyph-name="uni1EE4" unicode="&#x1ee4;" horiz-adv-x="592" 
d="M296 -12c-144 0 -232 85 -232 236v443h111v-444c0 -89 44 -137 121 -137s121 48 121 137v444h111v-443c0 -151 -88 -236 -232 -236zM299 -189c-31 0 -57 25 -57 56s26 57 57 57s56 -26 56 -57s-25 -56 -56 -56z" />
    <glyph glyph-name="Uhorn" unicode="&#x1af;" horiz-adv-x="592" 
d="M631 728c0 -58 -36 -117 -103 -151v-353c0 -151 -88 -236 -232 -236s-232 85 -232 236v443h111v-444c0 -89 44 -137 121 -137s121 48 121 137v444h111v-43c27 19 50 51 54 79c-2 -1 -7 -2 -12 -2c-25 0 -43 19 -43 46c0 26 21 48 48 48c30 0 56 -24 56 -67z" />
    <glyph glyph-name="uni1EE6" unicode="&#x1ee6;" horiz-adv-x="592" 
d="M296 -12c-144 0 -232 85 -232 236v443h111v-444c0 -89 44 -137 121 -137s121 48 121 137v444h111v-443c0 -151 -88 -236 -232 -236zM267 757l-39 10c9 32 34 53 70 53c37 0 67 -20 67 -67c0 -22 -7 -39 -18 -56h-44c15 18 21 36 21 54c0 23 -12 32 -27 32
c-16 0 -25 -10 -30 -26z" />
    <glyph glyph-name="uni1EE8" unicode="&#x1ee8;" horiz-adv-x="592" 
d="M447 867l-134 -144h-68l110 144h92zM631 728c0 -58 -36 -117 -103 -151v-353c0 -151 -88 -236 -232 -236s-232 85 -232 236v443h111v-444c0 -89 44 -137 121 -137s121 48 121 137v444h111v-43c27 19 50 51 54 79c-2 -1 -7 -2 -12 -2c-25 0 -43 19 -43 46
c0 26 21 48 48 48c30 0 56 -24 56 -67z" />
    <glyph glyph-name="uni1EEA" unicode="&#x1eea;" horiz-adv-x="592" 
d="M347 723h-68l-134 144h93zM631 728c0 -58 -36 -117 -103 -151v-353c0 -151 -88 -236 -232 -236s-232 85 -232 236v443h111v-444c0 -89 44 -137 121 -137s121 48 121 137v444h111v-43c27 19 50 51 54 79c-2 -1 -7 -2 -12 -2c-25 0 -43 19 -43 46c0 26 21 48 48 48
c30 0 56 -24 56 -67z" />
    <glyph glyph-name="uni1EEC" unicode="&#x1eec;" horiz-adv-x="592" 
d="M267 757l-39 10c9 32 34 53 70 53c37 0 67 -20 67 -67c0 -22 -7 -39 -18 -56h-44c15 18 21 36 21 54c0 23 -12 32 -27 32c-16 0 -25 -10 -30 -26zM631 728c0 -58 -36 -117 -103 -151v-353c0 -151 -88 -236 -232 -236s-232 85 -232 236v443h111v-444
c0 -89 44 -137 121 -137s121 48 121 137v444h111v-43c27 19 50 51 54 79c-2 -1 -7 -2 -12 -2c-25 0 -43 19 -43 46c0 26 21 48 48 48c30 0 56 -24 56 -67z" />
    <glyph glyph-name="uni1EEE" unicode="&#x1eee;" horiz-adv-x="592" 
d="M631 728c0 -58 -36 -117 -103 -151v-353c0 -151 -88 -236 -232 -236s-232 85 -232 236v443h111v-444c0 -89 44 -137 121 -137s121 48 121 137v444h111v-43c27 19 50 51 54 79c-2 -1 -7 -2 -12 -2c-25 0 -43 19 -43 46c0 26 21 48 48 48c30 0 56 -24 56 -67zM346 721
c-62 0 -69 81 -103 81c-18 0 -34 -23 -34 -75h-54c0 79 32 134 92 134c61 0 68 -80 103 -80c18 0 33 22 33 74h54c0 -79 -31 -134 -91 -134z" />
    <glyph glyph-name="uni1EF0" unicode="&#x1ef0;" horiz-adv-x="592" 
d="M299 -189c-31 0 -57 25 -57 56s26 57 57 57s56 -26 56 -57s-25 -56 -56 -56zM631 728c0 -58 -36 -117 -103 -151v-353c0 -151 -88 -236 -232 -236s-232 85 -232 236v443h111v-444c0 -89 44 -137 121 -137s121 48 121 137v444h111v-43c27 19 50 51 54 79
c-2 -1 -7 -2 -12 -2c-25 0 -43 19 -43 46c0 26 21 48 48 48c30 0 56 -24 56 -67z" />
    <glyph glyph-name="Wacute" unicode="&#x1e82;" horiz-adv-x="745" 
d="M523 867l-134 -144h-68l110 144h92zM584 0h-116l-96 479l-95 -479h-116l-151 667h119l96 -498l103 498h89l104 -498l95 498h119z" />
    <glyph glyph-name="Wcircumflex" unicode="&#x174;" horiz-adv-x="745" 
d="M498 723h-60l-67 97l-64 -97h-60l79 144h91zM584 0h-116l-96 479l-95 -479h-116l-151 667h119l96 -498l103 498h89l104 -498l95 498h119z" />
    <glyph glyph-name="Wdieresis" unicode="&#x1e84;" horiz-adv-x="745" 
d="M520 774c0 -31 -26 -56 -57 -56s-56 25 -56 56s25 56 56 56s57 -25 57 -56zM338 774c0 -31 -25 -56 -56 -56s-57 25 -57 56s26 56 57 56s56 -25 56 -56zM584 0h-116l-96 479l-95 -479h-116l-151 667h119l96 -498l103 498h89l104 -498l95 498h119z" />
    <glyph glyph-name="Wgrave" unicode="&#x1e80;" horiz-adv-x="745" 
d="M584 0h-116l-96 479l-95 -479h-116l-151 667h119l96 -498l103 498h89l104 -498l95 498h119zM423 723h-68l-134 144h93z" />
    <glyph glyph-name="Yacute" unicode="&#xdd;" horiz-adv-x="521" 
d="M316 0h-110v278l-207 389h123l139 -285l139 285h122l-206 -389v-278zM412 867l-134 -144h-68l110 144h92z" />
    <glyph glyph-name="Ycircumflex" unicode="&#x176;" horiz-adv-x="521" 
d="M387 723h-60l-67 97l-64 -97h-60l79 144h91zM316 0h-110v278l-207 389h123l139 -285l139 285h122l-206 -389v-278z" />
    <glyph glyph-name="Ydieresis" unicode="&#x178;" horiz-adv-x="521" 
d="M410 774c0 -31 -26 -56 -57 -56s-56 25 -56 56s25 56 56 56s57 -25 57 -56zM228 774c0 -31 -25 -56 -56 -56s-57 25 -57 56s26 56 57 56s56 -25 56 -56zM316 0h-110v278l-207 389h123l139 -285l139 285h122l-206 -389v-278z" />
    <glyph glyph-name="Ygrave" unicode="&#x1ef2;" horiz-adv-x="521" 
d="M316 0h-110v278l-207 389h123l139 -285l139 285h122l-206 -389v-278zM312 723h-68l-134 144h93z" />
    <glyph glyph-name="Zacute" unicode="&#x179;" horiz-adv-x="475" 
d="M388 867l-134 -144h-68l110 144h92zM437 0h-399v92l258 478h-258v97h392v-90l-259 -479h266v-98z" />
    <glyph glyph-name="Zcaron" unicode="&#x17d;" horiz-adv-x="475" 
d="M283 723h-91l-82 144h60l67 -97l64 97h60zM437 0h-399v92l258 478h-258v97h392v-90l-259 -479h266v-98z" />
    <glyph glyph-name="Zdotaccent" unicode="&#x17b;" horiz-adv-x="475" 
d="M437 0h-399v92l258 478h-258v97h392v-90l-259 -479h266v-98zM235 717c-31 0 -57 25 -57 56s26 57 57 57s56 -26 56 -57s-25 -56 -56 -56z" />
    <glyph glyph-name="Eth" unicode="&#xd0;" horiz-adv-x="606" 
d="M287 0h-199v287h-74v82h74v298h199c179 0 281 -140 281 -334s-101 -333 -281 -333zM287 98c109 0 167 98 167 235c0 140 -56 237 -167 237h-88v-201h114v-82h-114v-189h88z" />
    <glyph glyph-name="Thorn" unicode="&#xde;" horiz-adv-x="513" 
d="M175 0h-111v667h111v-114h116c131 0 197 -96 197 -208c0 -111 -66 -206 -197 -206h-116v-139zM278 236c59 0 97 44 97 109c0 66 -38 111 -97 111h-103v-220h103z" />
    <glyph glyph-name="aacute" unicode="&#xe1;" 
d="M408 0h-99v49c-29 -40 -78 -61 -127 -61c-78 0 -148 58 -148 161c0 104 70 157 148 157c49 0 99 -19 127 -58v70c0 58 -34 92 -94 92c-43 0 -83 -17 -120 -55l-39 70c49 49 115 70 177 70c101 0 175 -47 175 -165v-330zM218 57c36 0 72 20 91 53v73c-19 34 -55 54 -91 54
c-52 0 -84 -38 -84 -90s32 -90 84 -90zM384 700l-134 -144h-68l110 144h92z" />
    <glyph glyph-name="abreve" unicode="&#x103;" 
d="M408 0h-99v49c-29 -40 -78 -61 -127 -61c-78 0 -148 58 -148 161c0 104 70 157 148 157c49 0 99 -19 127 -58v70c0 58 -34 92 -94 92c-43 0 -83 -17 -120 -55l-39 70c49 49 115 70 177 70c101 0 175 -47 175 -165v-330zM218 57c36 0 72 20 91 53v73c-19 34 -55 54 -91 54
c-52 0 -84 -38 -84 -90s32 -90 84 -90zM383 616c-34 -46 -88 -75 -149 -75c-60 0 -114 29 -149 75l47 38c23 -33 60 -53 102 -53s79 20 102 53z" />
    <glyph glyph-name="acircumflex" unicode="&#xe2;" 
d="M408 0h-99v49c-29 -40 -78 -61 -127 -61c-78 0 -148 58 -148 161c0 104 70 157 148 157c49 0 99 -19 127 -58v70c0 58 -34 92 -94 92c-43 0 -83 -17 -120 -55l-39 70c49 49 115 70 177 70c101 0 175 -47 175 -165v-330zM218 57c36 0 72 20 91 53v73c-19 34 -55 54 -91 54
c-52 0 -84 -38 -84 -90s32 -90 84 -90zM360 556h-60l-67 97l-64 -97h-60l79 144h91z" />
    <glyph glyph-name="adieresis" unicode="&#xe4;" 
d="M408 0h-99v49c-29 -40 -78 -61 -127 -61c-78 0 -148 58 -148 161c0 104 70 157 148 157c49 0 99 -19 127 -58v70c0 58 -34 92 -94 92c-43 0 -83 -17 -120 -55l-39 70c49 49 115 70 177 70c101 0 175 -47 175 -165v-330zM218 57c36 0 72 20 91 53v73c-19 34 -55 54 -91 54
c-52 0 -84 -38 -84 -90s32 -90 84 -90zM382 607c0 -31 -26 -56 -57 -56s-56 25 -56 56s25 56 56 56s57 -25 57 -56zM200 607c0 -31 -25 -56 -56 -56s-57 25 -57 56s26 56 57 56s56 -25 56 -56z" />
    <glyph glyph-name="agrave" unicode="&#xe0;" 
d="M408 0h-99v49c-29 -40 -78 -61 -127 -61c-78 0 -148 58 -148 161c0 104 70 157 148 157c49 0 99 -19 127 -58v70c0 58 -34 92 -94 92c-43 0 -83 -17 -120 -55l-39 70c49 49 115 70 177 70c101 0 175 -47 175 -165v-330zM218 57c36 0 72 20 91 53v73c-19 34 -55 54 -91 54
c-52 0 -84 -38 -84 -90s32 -90 84 -90zM284 556h-68l-134 144h93z" />
    <glyph glyph-name="amacron" unicode="&#x101;" 
d="M408 0h-99v49c-29 -40 -78 -61 -127 -61c-78 0 -148 58 -148 161c0 104 70 157 148 157c49 0 99 -19 127 -58v70c0 58 -34 92 -94 92c-43 0 -83 -17 -120 -55l-39 70c49 49 115 70 177 70c101 0 175 -47 175 -165v-330zM218 57c36 0 72 20 91 53v73c-19 34 -55 54 -91 54
c-52 0 -84 -38 -84 -90s32 -90 84 -90zM388 567h-309v60h309v-60z" />
    <glyph glyph-name="aogonek" unicode="&#x105;" 
d="M412 -106l44 -25c-14 -31 -39 -55 -82 -55c-48 0 -86 26 -86 84c0 38 18 73 48 102h-27v49c-29 -40 -78 -61 -127 -61c-78 0 -148 58 -148 161c0 104 70 157 148 157c49 0 99 -19 127 -58v70c0 58 -34 92 -94 92c-43 0 -83 -17 -120 -55l-39 70c49 49 115 70 177 70
c101 0 175 -47 175 -165v-330c-42 -25 -67 -58 -67 -99c0 -29 15 -42 33 -42c20 0 32 14 38 35zM218 57c36 0 72 20 91 53v73c-19 34 -55 54 -91 54c-52 0 -84 -38 -84 -90s32 -90 84 -90z" />
    <glyph glyph-name="aring" unicode="&#xe5;" 
d="M408 0h-99v49c-29 -40 -78 -61 -127 -61c-78 0 -148 58 -148 161c0 104 70 157 148 157c49 0 99 -19 127 -58v70c0 58 -34 92 -94 92c-43 0 -83 -17 -120 -55l-39 70c49 49 115 70 177 70c101 0 175 -47 175 -165v-330zM218 57c36 0 72 20 91 53v73c-19 34 -55 54 -91 54
c-52 0 -84 -38 -84 -90s32 -90 84 -90zM234 538c-51 0 -94 43 -94 95c0 51 43 94 94 94c52 0 94 -43 94 -94c0 -52 -42 -95 -94 -95zM234 585c27 0 47 22 47 48s-20 47 -47 47c-25 0 -47 -21 -47 -47s22 -48 47 -48z" />
    <glyph glyph-name="atilde" unicode="&#xe3;" 
d="M408 0h-99v49c-29 -40 -78 -61 -127 -61c-78 0 -148 58 -148 161c0 104 70 157 148 157c49 0 99 -19 127 -58v70c0 58 -34 92 -94 92c-43 0 -83 -17 -120 -55l-39 70c49 49 115 70 177 70c101 0 175 -47 175 -165v-330zM218 57c36 0 72 20 91 53v73c-19 34 -55 54 -91 54
c-52 0 -84 -38 -84 -90s32 -90 84 -90zM284 554c-62 0 -69 81 -103 81c-18 0 -34 -23 -34 -75h-54c0 79 32 134 92 134c61 0 68 -80 103 -80c18 0 33 22 33 74h54c0 -79 -31 -134 -91 -134z" />
    <glyph glyph-name="uni1EA1" unicode="&#x1ea1;" 
d="M408 0h-99v49c-29 -40 -78 -61 -127 -61c-78 0 -148 58 -148 161c0 104 70 157 148 157c49 0 99 -19 127 -58v70c0 58 -34 92 -94 92c-43 0 -83 -17 -120 -55l-39 70c49 49 115 70 177 70c101 0 175 -47 175 -165v-330zM218 57c36 0 72 20 91 53v73c-19 34 -55 54 -91 54
c-52 0 -84 -38 -84 -90s32 -90 84 -90zM235 -189c-31 0 -57 25 -57 56s26 57 57 57s56 -26 56 -57s-25 -56 -56 -56z" />
    <glyph glyph-name="uni1EA3" unicode="&#x1ea3;" 
d="M408 0h-99v49c-29 -40 -78 -61 -127 -61c-78 0 -148 58 -148 161c0 104 70 157 148 157c49 0 99 -19 127 -58v70c0 58 -34 92 -94 92c-43 0 -83 -17 -120 -55l-39 70c49 49 115 70 177 70c101 0 175 -47 175 -165v-330zM218 57c36 0 72 20 91 53v73c-19 34 -55 54 -91 54
c-52 0 -84 -38 -84 -90s32 -90 84 -90zM204 587l-39 10c9 32 34 53 70 53c37 0 67 -20 67 -67c0 -22 -7 -39 -18 -56h-44c15 18 21 36 21 54c0 23 -12 32 -27 32c-16 0 -25 -10 -30 -26z" />
    <glyph glyph-name="uni1EA5" unicode="&#x1ea5;" 
d="M408 0h-99v49c-29 -40 -78 -61 -127 -61c-78 0 -148 58 -148 161c0 104 70 157 148 157c49 0 99 -19 127 -58v70c0 58 -34 92 -94 92c-43 0 -83 -17 -120 -55l-39 70c49 49 115 70 177 70c101 0 175 -47 175 -165v-330zM218 57c36 0 72 20 91 53v73c-19 34 -55 54 -91 54
c-52 0 -84 -38 -84 -90s32 -90 84 -90zM360 556h-60l-67 97l-64 -97h-60l79 144h91zM531 771l-134 -144h-68l110 144h92z" />
    <glyph glyph-name="uni1EAD" unicode="&#x1ead;" 
d="M408 0h-99v49c-29 -40 -78 -61 -127 -61c-78 0 -148 58 -148 161c0 104 70 157 148 157c49 0 99 -19 127 -58v70c0 58 -34 92 -94 92c-43 0 -83 -17 -120 -55l-39 70c49 49 115 70 177 70c101 0 175 -47 175 -165v-330zM218 57c36 0 72 20 91 53v73c-19 34 -55 54 -91 54
c-52 0 -84 -38 -84 -90s32 -90 84 -90zM359 556h-60l-67 97l-64 -97h-60l79 144h91zM235 -189c-31 0 -57 25 -57 56s26 57 57 57s56 -26 56 -57s-25 -56 -56 -56z" />
    <glyph glyph-name="uni1EA7" unicode="&#x1ea7;" 
d="M408 0h-99v49c-29 -40 -78 -61 -127 -61c-78 0 -148 58 -148 161c0 104 70 157 148 157c49 0 99 -19 127 -58v70c0 58 -34 92 -94 92c-43 0 -83 -17 -120 -55l-39 70c49 49 115 70 177 70c101 0 175 -47 175 -165v-330zM218 57c36 0 72 20 91 53v73c-19 34 -55 54 -91 54
c-52 0 -84 -38 -84 -90s32 -90 84 -90zM360 556h-60l-67 97l-64 -97h-60l79 144h91zM138 627h-68l-134 144h93z" />
    <glyph glyph-name="uni1EA9" unicode="&#x1ea9;" 
d="M408 0h-99v49c-29 -40 -78 -61 -127 -61c-78 0 -148 58 -148 161c0 104 70 157 148 157c49 0 99 -19 127 -58v70c0 58 -34 92 -94 92c-43 0 -83 -17 -120 -55l-39 70c49 49 115 70 177 70c101 0 175 -47 175 -165v-330zM218 57c36 0 72 20 91 53v73c-19 34 -55 54 -91 54
c-52 0 -84 -38 -84 -90s32 -90 84 -90zM360 556h-60l-67 97l-64 -97h-60l79 144h91zM293 727l-39 10c9 32 34 53 70 53c37 0 67 -20 67 -67c0 -22 -7 -39 -18 -56h-44c15 18 21 36 21 54c0 23 -12 32 -27 32c-16 0 -25 -10 -30 -26z" />
    <glyph glyph-name="uni1EAF" unicode="&#x1eaf;" 
d="M408 0h-99v49c-29 -40 -78 -61 -127 -61c-78 0 -148 58 -148 161c0 104 70 157 148 157c49 0 99 -19 127 -58v70c0 58 -34 92 -94 92c-43 0 -83 -17 -120 -55l-39 70c49 49 115 70 177 70c101 0 175 -47 175 -165v-330zM218 57c36 0 72 20 91 53v73c-19 34 -55 54 -91 54
c-52 0 -84 -38 -84 -90s32 -90 84 -90zM385 772l-134 -144h-68l110 144h92zM383 595c-34 -46 -88 -75 -149 -75c-60 0 -114 29 -149 75l47 38c23 -33 60 -53 102 -53s79 20 102 53z" />
    <glyph glyph-name="uni1EAB" unicode="&#x1eab;" 
d="M408 0h-99v49c-29 -40 -78 -61 -127 -61c-78 0 -148 58 -148 161c0 104 70 157 148 157c49 0 99 -19 127 -58v70c0 58 -34 92 -94 92c-43 0 -83 -17 -120 -55l-39 70c49 49 115 70 177 70c101 0 175 -47 175 -165v-330zM218 57c36 0 72 20 91 53v73c-19 34 -55 54 -91 54
c-52 0 -84 -38 -84 -90s32 -90 84 -90zM360 523h-60l-67 97l-64 -97h-60l79 144h91zM283 682c-62 0 -69 81 -103 81c-18 0 -34 -23 -34 -75h-54c0 79 32 134 92 134c61 0 68 -80 103 -80c18 0 33 22 33 74h54c0 -79 -31 -134 -91 -134z" />
    <glyph glyph-name="uni1EB1" unicode="&#x1eb1;" 
d="M408 0h-99v49c-29 -40 -78 -61 -127 -61c-78 0 -148 58 -148 161c0 104 70 157 148 157c49 0 99 -19 127 -58v70c0 58 -34 92 -94 92c-43 0 -83 -17 -120 -55l-39 70c49 49 115 70 177 70c101 0 175 -47 175 -165v-330zM218 57c36 0 72 20 91 53v73c-19 34 -55 54 -91 54
c-52 0 -84 -38 -84 -90s32 -90 84 -90zM283 628h-68l-134 144h93zM383 596c-34 -46 -88 -75 -149 -75c-60 0 -114 29 -149 75l47 38c23 -33 60 -53 102 -53s79 20 102 53z" />
    <glyph glyph-name="uni1EB3" unicode="&#x1eb3;" 
d="M408 0h-99v49c-29 -40 -78 -61 -127 -61c-78 0 -148 58 -148 161c0 104 70 157 148 157c49 0 99 -19 127 -58v70c0 58 -34 92 -94 92c-43 0 -83 -17 -120 -55l-39 70c49 49 115 70 177 70c101 0 175 -47 175 -165v-330zM218 57c36 0 72 20 91 53v73c-19 34 -55 54 -91 54
c-52 0 -84 -38 -84 -90s32 -90 84 -90zM205 687l-39 10c9 32 34 53 70 53c37 0 67 -20 67 -67c0 -22 -7 -39 -18 -56h-44c15 18 21 36 21 54c0 23 -12 32 -27 32c-16 0 -25 -10 -30 -26zM383 596c-34 -46 -88 -75 -149 -75c-60 0 -114 29 -149 75l47 38
c23 -33 60 -53 102 -53s79 20 102 53z" />
    <glyph glyph-name="uni1EB5" unicode="&#x1eb5;" 
d="M408 0h-99v49c-29 -40 -78 -61 -127 -61c-78 0 -148 58 -148 161c0 104 70 157 148 157c49 0 99 -19 127 -58v70c0 58 -34 92 -94 92c-43 0 -83 -17 -120 -55l-39 70c49 49 115 70 177 70c101 0 175 -47 175 -165v-330zM218 57c36 0 72 20 91 53v73c-19 34 -55 54 -91 54
c-52 0 -84 -38 -84 -90s32 -90 84 -90zM383 596c-34 -46 -88 -75 -149 -75c-60 0 -114 29 -149 75l47 38c23 -33 60 -53 102 -53s79 20 102 53zM283 653c-62 0 -69 81 -103 81c-18 0 -34 -23 -34 -75h-54c0 79 32 134 92 134c61 0 68 -80 103 -80c18 0 33 22 33 74h54
c0 -79 -31 -134 -91 -134z" />
    <glyph glyph-name="uni1EB7" unicode="&#x1eb7;" 
d="M408 0h-99v49c-29 -40 -78 -61 -127 -61c-78 0 -148 58 -148 161c0 104 70 157 148 157c49 0 99 -19 127 -58v70c0 58 -34 92 -94 92c-43 0 -83 -17 -120 -55l-39 70c49 49 115 70 177 70c101 0 175 -47 175 -165v-330zM218 57c36 0 72 20 91 53v73c-19 34 -55 54 -91 54
c-52 0 -84 -38 -84 -90s32 -90 84 -90zM235 -189c-31 0 -57 25 -57 56s26 57 57 57s56 -26 56 -57s-25 -56 -56 -56zM382 616c-34 -46 -88 -75 -149 -75c-60 0 -114 29 -149 75l47 38c23 -33 60 -53 102 -53s79 20 102 53z" />
    <glyph glyph-name="ae" unicode="&#xe6;" horiz-adv-x="745" 
d="M713 209h-293c5 -79 45 -138 119 -138c36 0 77 19 103 52l48 -61c-41 -47 -102 -74 -159 -74c-75 0 -124 30 -159 88c-31 -48 -91 -88 -169 -88c-97 0 -169 57 -169 159c0 101 67 159 153 159c52 0 105 -19 136 -57v69c0 58 -37 92 -100 92c-46 0 -88 -17 -128 -55
l-39 70c49 49 116 70 176 70c75 0 126 -35 144 -85c27 44 67 85 148 85c123 0 189 -112 189 -258v-28zM420 280h197c-1 60 -26 134 -98 134c-71 0 -97 -76 -99 -134zM323 167v16c-22 33 -60 54 -99 54c-53 0 -90 -32 -90 -84c0 -55 37 -84 90 -84c55 0 99 49 99 98z" />
    <glyph glyph-name="aeacute" unicode="&#x1fd;" horiz-adv-x="745" 
d="M510 700l-134 -144h-68l110 144h92zM713 209h-293c5 -79 45 -138 119 -138c36 0 77 19 103 52l48 -61c-41 -47 -102 -74 -159 -74c-75 0 -124 30 -159 88c-31 -48 -91 -88 -169 -88c-97 0 -169 57 -169 159c0 101 67 159 153 159c52 0 105 -19 136 -57v69
c0 58 -37 92 -100 92c-46 0 -88 -17 -128 -55l-39 70c49 49 116 70 176 70c75 0 126 -35 144 -85c27 44 67 85 148 85c123 0 189 -112 189 -258v-28zM420 280h197c-1 60 -26 134 -98 134c-71 0 -97 -76 -99 -134zM323 167v16c-22 33 -60 54 -99 54c-53 0 -90 -32 -90 -84
c0 -55 37 -84 90 -84c55 0 99 49 99 98z" />
    <glyph glyph-name="aacute.alt1" horiz-adv-x="494" 
d="M392 700l-134 -144h-68l110 144h92zM435 0h-100v64c-29 -48 -76 -76 -124 -76c-108 0 -176 98 -176 253c0 153 67 254 176 254c47 0 95 -25 124 -77v65h100v-483zM241 76c38 0 77 30 94 66v198c-17 36 -56 66 -94 66c-69 0 -103 -71 -103 -165c0 -92 34 -165 103 -165z
" />
    <glyph glyph-name="abreve.alt1" horiz-adv-x="494" 
d="M435 0h-100v64c-29 -48 -76 -76 -124 -76c-108 0 -176 98 -176 253c0 153 67 254 176 254c47 0 95 -25 124 -77v65h100v-483zM241 76c38 0 77 30 94 66v198c-17 36 -56 66 -94 66c-69 0 -103 -71 -103 -165c0 -92 34 -165 103 -165zM401 616c-34 -46 -88 -75 -149 -75
c-60 0 -114 29 -149 75l47 38c23 -33 60 -53 102 -53s79 20 102 53z" />
    <glyph glyph-name="acircumflex.alt1" horiz-adv-x="494" 
d="M377 556h-60l-67 97l-64 -97h-60l79 144h91zM435 0h-100v64c-29 -48 -76 -76 -124 -76c-108 0 -176 98 -176 253c0 153 67 254 176 254c47 0 95 -25 124 -77v65h100v-483zM241 76c38 0 77 30 94 66v198c-17 36 -56 66 -94 66c-69 0 -103 -71 -103 -165
c0 -92 34 -165 103 -165z" />
    <glyph glyph-name="adieresis.alt1" horiz-adv-x="494" 
d="M399 607c0 -31 -26 -56 -57 -56s-56 25 -56 56s25 56 56 56s57 -25 57 -56zM217 607c0 -31 -25 -56 -56 -56s-57 25 -57 56s26 56 57 56s56 -25 56 -56zM435 0h-100v64c-29 -48 -76 -76 -124 -76c-108 0 -176 98 -176 253c0 153 67 254 176 254c47 0 95 -25 124 -77v65
h100v-483zM241 76c38 0 77 30 94 66v198c-17 36 -56 66 -94 66c-69 0 -103 -71 -103 -165c0 -92 34 -165 103 -165z" />
    <glyph glyph-name="agrave.alt1" horiz-adv-x="494" 
d="M435 0h-100v64c-29 -48 -76 -76 -124 -76c-108 0 -176 98 -176 253c0 153 67 254 176 254c47 0 95 -25 124 -77v65h100v-483zM241 76c38 0 77 30 94 66v198c-17 36 -56 66 -94 66c-69 0 -103 -71 -103 -165c0 -92 34 -165 103 -165zM292 556h-68l-134 144h93z" />
    <glyph glyph-name="amacron.alt1" horiz-adv-x="494" 
d="M407 567h-309v60h309v-60zM435 0h-100v64c-29 -48 -76 -76 -124 -76c-108 0 -176 98 -176 253c0 153 67 254 176 254c47 0 95 -25 124 -77v65h100v-483zM241 76c38 0 77 30 94 66v198c-17 36 -56 66 -94 66c-69 0 -103 -71 -103 -165c0 -92 34 -165 103 -165z" />
    <glyph glyph-name="aogonek.alt1" horiz-adv-x="494" 
d="M435 0c-42 -25 -67 -58 -67 -99c0 -29 15 -42 33 -42c20 0 32 14 38 35l44 -25c-14 -31 -39 -55 -82 -55c-48 0 -86 26 -86 84c0 38 18 73 48 102h-28v64c-29 -48 -76 -76 -124 -76c-108 0 -176 98 -176 253c0 153 67 254 176 254c47 0 95 -25 124 -77v65h100v-483z
M241 76c38 0 77 30 94 66v198c-17 36 -56 66 -94 66c-69 0 -103 -71 -103 -165c0 -92 34 -165 103 -165z" />
    <glyph glyph-name="aring.alt1" horiz-adv-x="494" 
d="M252 538c-51 0 -94 43 -94 95c0 51 43 94 94 94c52 0 94 -43 94 -94c0 -52 -42 -95 -94 -95zM252 585c27 0 47 22 47 48s-20 47 -47 47c-25 0 -47 -21 -47 -47s22 -48 47 -48zM435 0h-100v64c-29 -48 -76 -76 -124 -76c-108 0 -176 98 -176 253c0 153 67 254 176 254
c47 0 95 -25 124 -77v65h100v-483zM241 76c38 0 77 30 94 66v198c-17 36 -56 66 -94 66c-69 0 -103 -71 -103 -165c0 -92 34 -165 103 -165z" />
    <glyph glyph-name="atilde.alt1" horiz-adv-x="494" 
d="M435 0h-100v64c-29 -48 -76 -76 -124 -76c-108 0 -176 98 -176 253c0 153 67 254 176 254c47 0 95 -25 124 -77v65h100v-483zM241 76c38 0 77 30 94 66v198c-17 36 -56 66 -94 66c-69 0 -103 -71 -103 -165c0 -92 34 -165 103 -165zM302 554c-62 0 -69 81 -103 81
c-18 0 -34 -23 -34 -75h-54c0 79 32 134 92 134c61 0 68 -80 103 -80c18 0 33 22 33 74h54c0 -79 -31 -134 -91 -134z" />
    <glyph glyph-name="uni1EA1.alt1" horiz-adv-x="494" 
d="M435 0h-100v64c-29 -48 -76 -76 -124 -76c-108 0 -176 98 -176 253c0 153 67 254 176 254c47 0 95 -25 124 -77v65h100v-483zM241 76c38 0 77 30 94 66v198c-17 36 -56 66 -94 66c-69 0 -103 -71 -103 -165c0 -92 34 -165 103 -165zM253 -189c-31 0 -57 25 -57 56
s26 57 57 57s56 -26 56 -57s-25 -56 -56 -56z" />
    <glyph glyph-name="uni1EA3.alt1" horiz-adv-x="494" 
d="M435 0h-100v64c-29 -48 -76 -76 -124 -76c-108 0 -176 98 -176 253c0 153 67 254 176 254c47 0 95 -25 124 -77v65h100v-483zM241 76c38 0 77 30 94 66v198c-17 36 -56 66 -94 66c-69 0 -103 -71 -103 -165c0 -92 34 -165 103 -165zM223 587l-39 10c9 32 34 53 70 53
c37 0 67 -20 67 -67c0 -22 -7 -39 -18 -56h-44c15 18 21 36 21 54c0 23 -12 32 -27 32c-16 0 -25 -10 -30 -26z" />
    <glyph glyph-name="uni1EA5.alt1" horiz-adv-x="494" 
d="M378 556h-60l-67 97l-64 -97h-60l79 144h91zM547 771l-134 -144h-68l110 144h92zM435 0h-100v64c-29 -48 -76 -76 -124 -76c-108 0 -176 98 -176 253c0 153 67 254 176 254c47 0 95 -25 124 -77v65h100v-483zM241 76c38 0 77 30 94 66v198c-17 36 -56 66 -94 66
c-69 0 -103 -71 -103 -165c0 -92 34 -165 103 -165z" />
    <glyph glyph-name="uni1EAD.alt1" horiz-adv-x="494" 
d="M378 556h-60l-67 97l-64 -97h-60l79 144h91zM435 0h-100v64c-29 -48 -76 -76 -124 -76c-108 0 -176 98 -176 253c0 153 67 254 176 254c47 0 95 -25 124 -77v65h100v-483zM241 76c38 0 77 30 94 66v198c-17 36 -56 66 -94 66c-69 0 -103 -71 -103 -165
c0 -92 34 -165 103 -165zM253 -189c-31 0 -57 25 -57 56s26 57 57 57s56 -26 56 -57s-25 -56 -56 -56z" />
    <glyph glyph-name="uni1EA7.alt1" horiz-adv-x="494" 
d="M378 556h-60l-67 97l-64 -97h-60l79 144h91zM435 0h-100v64c-29 -48 -76 -76 -124 -76c-108 0 -176 98 -176 253c0 153 67 254 176 254c47 0 95 -25 124 -77v65h100v-483zM241 76c38 0 77 30 94 66v198c-17 36 -56 66 -94 66c-69 0 -103 -71 -103 -165
c0 -92 34 -165 103 -165zM156 627h-68l-134 144h93z" />
    <glyph glyph-name="uni1EA9.alt1" horiz-adv-x="494" 
d="M378 556h-60l-67 97l-64 -97h-60l79 144h91zM435 0h-100v64c-29 -48 -76 -76 -124 -76c-108 0 -176 98 -176 253c0 153 67 254 176 254c47 0 95 -25 124 -77v65h100v-483zM241 76c38 0 77 30 94 66v198c-17 36 -56 66 -94 66c-69 0 -103 -71 -103 -165
c0 -92 34 -165 103 -165zM310 727l-39 10c9 32 34 53 70 53c37 0 67 -20 67 -67c0 -22 -7 -39 -18 -56h-44c15 18 21 36 21 54c0 23 -12 32 -27 32c-16 0 -25 -10 -30 -26z" />
    <glyph glyph-name="uni1EAF.alt1" horiz-adv-x="494" 
d="M401 772l-134 -144h-68l110 144h92zM435 0h-100v64c-29 -48 -76 -76 -124 -76c-108 0 -176 98 -176 253c0 153 67 254 176 254c47 0 95 -25 124 -77v65h100v-483zM241 76c38 0 77 30 94 66v198c-17 36 -56 66 -94 66c-69 0 -103 -71 -103 -165c0 -92 34 -165 103 -165z
M401 595c-34 -46 -88 -75 -149 -75c-60 0 -114 29 -149 75l47 38c23 -33 60 -53 102 -53s79 20 102 53z" />
    <glyph glyph-name="uni1EAB.alt1" horiz-adv-x="494" 
d="M380 523h-60l-67 97l-64 -97h-60l79 144h91zM435 0h-100v64c-29 -48 -76 -76 -124 -76c-108 0 -176 98 -176 253c0 153 67 254 176 254c47 0 95 -25 124 -77v65h100v-483zM241 76c38 0 77 30 94 66v198c-17 36 -56 66 -94 66c-69 0 -103 -71 -103 -165
c0 -92 34 -165 103 -165zM301 682c-62 0 -69 81 -103 81c-18 0 -34 -23 -34 -75h-54c0 79 32 134 92 134c61 0 68 -80 103 -80c18 0 33 22 33 74h54c0 -79 -31 -134 -91 -134z" />
    <glyph glyph-name="uni1EB1.alt1" horiz-adv-x="494" 
d="M435 0h-100v64c-29 -48 -76 -76 -124 -76c-108 0 -176 98 -176 253c0 153 67 254 176 254c47 0 95 -25 124 -77v65h100v-483zM241 76c38 0 77 30 94 66v198c-17 36 -56 66 -94 66c-69 0 -103 -71 -103 -165c0 -92 34 -165 103 -165zM300 628h-68l-134 144h93zM401 596
c-34 -46 -88 -75 -149 -75c-60 0 -114 29 -149 75l47 38c23 -33 60 -53 102 -53s79 20 102 53z" />
    <glyph glyph-name="uni1EB3.alt1" horiz-adv-x="494" 
d="M435 0h-100v64c-29 -48 -76 -76 -124 -76c-108 0 -176 98 -176 253c0 153 67 254 176 254c47 0 95 -25 124 -77v65h100v-483zM241 76c38 0 77 30 94 66v198c-17 36 -56 66 -94 66c-69 0 -103 -71 -103 -165c0 -92 34 -165 103 -165zM223 687l-39 10c9 32 34 53 70 53
c37 0 67 -20 67 -67c0 -22 -7 -39 -18 -56h-44c15 18 21 36 21 54c0 23 -12 32 -27 32c-16 0 -25 -10 -30 -26zM401 596c-34 -46 -88 -75 -149 -75c-60 0 -114 29 -149 75l47 38c23 -33 60 -53 102 -53s79 20 102 53z" />
    <glyph glyph-name="uni1EB5.alt1" horiz-adv-x="494" 
d="M401 596c-34 -46 -88 -75 -149 -75c-60 0 -114 29 -149 75l47 38c23 -33 60 -53 102 -53s79 20 102 53zM435 0h-100v64c-29 -48 -76 -76 -124 -76c-108 0 -176 98 -176 253c0 153 67 254 176 254c47 0 95 -25 124 -77v65h100v-483zM241 76c38 0 77 30 94 66v198
c-17 36 -56 66 -94 66c-69 0 -103 -71 -103 -165c0 -92 34 -165 103 -165zM302 654c-62 0 -69 81 -103 81c-18 0 -34 -23 -34 -75h-54c0 79 32 134 92 134c61 0 68 -80 103 -80c18 0 33 22 33 74h54c0 -79 -31 -134 -91 -134z" />
    <glyph glyph-name="uni1EB7.alt1" horiz-adv-x="494" 
d="M435 0h-100v64c-29 -48 -76 -76 -124 -76c-108 0 -176 98 -176 253c0 153 67 254 176 254c47 0 95 -25 124 -77v65h100v-483zM241 76c38 0 77 30 94 66v198c-17 36 -56 66 -94 66c-69 0 -103 -71 -103 -165c0 -92 34 -165 103 -165zM256 -189c-31 0 -57 25 -57 56
s26 57 57 57s56 -26 56 -57s-25 -56 -56 -56zM404 616c-34 -46 -88 -75 -149 -75c-60 0 -114 29 -149 75l47 38c23 -33 60 -53 102 -53s79 20 102 53z" />
    <glyph glyph-name="ae.alt1" horiz-adv-x="773" 
d="M241 76c38 0 77 30 94 66v198c-17 36 -56 66 -94 66c-69 0 -103 -71 -103 -165c0 -92 34 -165 103 -165zM435 78v-78h-100v64c-29 -48 -76 -76 -124 -76c-108 0 -176 98 -176 253c0 153 67 254 176 254c47 0 95 -25 124 -77v65h100v-73c24 49 63 85 130 85
c116 0 176 -111 176 -257v-29h-306c4 -79 47 -137 126 -137c38 0 80 19 109 52l47 -64c-33 -43 -82 -72 -140 -72c-82 0 -122 47 -142 90zM645 280c-1 60 -28 134 -105 134c-75 0 -103 -76 -105 -134h210z" />
    <glyph glyph-name="aeacute.alt1" horiz-adv-x="773" 
d="M241 76c38 0 77 30 94 66v198c-17 36 -56 66 -94 66c-69 0 -103 -71 -103 -165c0 -92 34 -165 103 -165zM435 78v-78h-100v64c-29 -48 -76 -76 -124 -76c-108 0 -176 98 -176 253c0 153 67 254 176 254c47 0 95 -25 124 -77v65h100v-73c24 49 63 85 130 85
c116 0 176 -111 176 -257v-29h-306c4 -79 47 -137 126 -137c38 0 80 19 109 52l47 -64c-33 -43 -82 -72 -140 -72c-82 0 -122 47 -142 90zM645 280c-1 60 -28 134 -105 134c-75 0 -103 -76 -105 -134h210zM537 700l-134 -144h-68l110 144h92z" />
    <glyph glyph-name="uni1E03" unicode="&#x1e03;" horiz-adv-x="494" 
d="M159 142c17 -36 56 -66 94 -66c69 0 103 72 103 165c0 94 -34 166 -103 166c-38 0 -77 -31 -94 -67v-198zM159 0h-100v667h100v-249c29 52 76 77 124 77c108 0 176 -101 176 -254c0 -155 -68 -253 -176 -253c-49 0 -95 28 -124 76v-64zM254 717c-31 0 -57 25 -57 56
s26 57 57 57s56 -26 56 -57s-25 -56 -56 -56z" />
    <glyph glyph-name="cacute" unicode="&#x107;" horiz-adv-x="415" 
d="M397 700l-134 -144h-68l110 144h92zM247 -12c-129 0 -212 108 -212 254s83 253 212 253c72 0 118 -29 147 -65l-51 -68c-24 31 -51 45 -86 45c-76 0 -119 -73 -119 -165s43 -166 119 -166c35 0 62 15 86 45l51 -68c-29 -36 -75 -65 -147 -65z" />
    <glyph glyph-name="ccedilla" unicode="&#xe7;" horiz-adv-x="415" 
d="M247 -192c-39 0 -74 15 -94 31l21 44c23 -19 47 -28 71 -28c26 0 50 13 50 37c0 18 -11 30 -30 30c-12 0 -23 -6 -30 -14l-39 22l22 60c-112 14 -183 117 -183 252c0 146 83 253 212 253c72 0 118 -29 147 -65l-51 -68c-24 31 -51 45 -86 45c-76 0 -119 -73 -119 -165
s43 -166 119 -166c35 0 62 15 86 45l51 -68c-26 -32 -65 -58 -124 -64l-16 -41c9 7 19 11 32 11c35 0 62 -28 62 -68c0 -50 -45 -83 -101 -83z" />
    <glyph glyph-name="ccircumflex" unicode="&#x109;" horiz-adv-x="415" 
d="M373 556h-60l-67 97l-64 -97h-60l79 144h91zM247 -12c-129 0 -212 108 -212 254s83 253 212 253c72 0 118 -29 147 -65l-51 -68c-24 31 -51 45 -86 45c-76 0 -119 -73 -119 -165s43 -166 119 -166c35 0 62 15 86 45l51 -68c-29 -36 -75 -65 -147 -65z" />
    <glyph glyph-name="cdotaccent" unicode="&#x10b;" horiz-adv-x="415" 
d="M247 -12c-129 0 -212 108 -212 254s83 253 212 253c72 0 118 -29 147 -65l-51 -68c-24 31 -51 45 -86 45c-76 0 -119 -73 -119 -165s43 -166 119 -166c35 0 62 15 86 45l51 -68c-29 -36 -75 -65 -147 -65zM248 550c-31 0 -57 25 -57 56s26 57 57 57s56 -26 56 -57
s-25 -56 -56 -56z" />
    <glyph glyph-name="ccaron" unicode="&#x10d;" horiz-adv-x="415" 
d="M295 556h-91l-82 144h60l67 -97l64 97h60zM247 -12c-129 0 -212 108 -212 254s83 253 212 253c72 0 118 -29 147 -65l-51 -68c-24 31 -51 45 -86 45c-76 0 -119 -73 -119 -165s43 -166 119 -166c35 0 62 15 86 45l51 -68c-29 -36 -75 -65 -147 -65z" />
    <glyph glyph-name="dcaron" unicode="&#x10f;" horiz-adv-x="588" 
d="M594 606c0 -58 -33 -110 -77 -142l-38 30c29 18 56 54 61 83c-2 0 -9 -1 -13 -1c-27 0 -47 20 -47 49c0 30 23 54 53 54c32 0 61 -26 61 -73zM435 0h-100v64c-29 -48 -76 -76 -124 -76c-108 0 -176 98 -176 253c0 153 67 254 176 254c47 0 95 -25 124 -77v249h100v-667z
M241 76c38 0 77 30 94 66v199c-17 36 -56 66 -94 66c-69 0 -103 -72 -103 -166c0 -92 34 -165 103 -165z" />
    <glyph glyph-name="dcroat" unicode="&#x111;" horiz-adv-x="502" 
d="M435 0h-100v64c-29 -48 -76 -76 -124 -76c-108 0 -176 98 -176 253c0 153 67 254 176 254c47 0 95 -25 124 -77v114h-134v60h134v75h100v-75h56v-60h-56v-532zM241 76c38 0 77 30 94 66v199c-17 36 -56 66 -94 66c-69 0 -103 -72 -103 -166c0 -92 34 -165 103 -165z" />
    <glyph glyph-name="uni1E0B" unicode="&#x1e0b;" horiz-adv-x="494" 
d="M435 0h-100v64c-29 -48 -76 -76 -124 -76c-108 0 -176 98 -176 253c0 153 67 254 176 254c47 0 95 -25 124 -77v249h100v-667zM241 76c38 0 77 30 94 66v199c-17 36 -56 66 -94 66c-69 0 -103 -72 -103 -166c0 -92 34 -165 103 -165zM242 717c-31 0 -57 25 -57 56
s26 57 57 57s56 -26 56 -57s-25 -56 -56 -56z" />
    <glyph glyph-name="eacute" unicode="&#xe9;" horiz-adv-x="474" 
d="M394 700l-134 -144h-68l110 144h92zM252 -12c-133 0 -217 104 -217 254c0 140 78 253 207 253c131 0 201 -111 201 -257v-29h-307c4 -79 48 -139 126 -139c38 0 81 19 109 52l48 -60c-41 -47 -102 -74 -167 -74zM346 280c-1 60 -28 134 -105 134
c-75 0 -103 -76 -106 -134h211z" />
    <glyph glyph-name="ebreve" unicode="&#x115;" horiz-adv-x="474" 
d="M252 -12c-133 0 -217 104 -217 254c0 140 78 253 207 253c131 0 201 -111 201 -257v-29h-307c4 -79 48 -139 126 -139c38 0 81 19 109 52l48 -60c-41 -47 -102 -74 -167 -74zM346 280c-1 60 -28 134 -105 134c-75 0 -103 -76 -106 -134h211zM392 616
c-34 -46 -88 -75 -149 -75c-60 0 -114 29 -149 75l47 38c23 -33 60 -53 102 -53s79 20 102 53z" />
    <glyph glyph-name="ecircumflex" unicode="&#xea;" horiz-adv-x="474" 
d="M369 556h-60l-67 97l-64 -97h-60l79 144h91zM252 -12c-133 0 -217 104 -217 254c0 140 78 253 207 253c131 0 201 -111 201 -257v-29h-307c4 -79 48 -139 126 -139c38 0 81 19 109 52l48 -60c-41 -47 -102 -74 -167 -74zM346 280c-1 60 -28 134 -105 134
c-75 0 -103 -76 -106 -134h211z" />
    <glyph glyph-name="edieresis" unicode="&#xeb;" horiz-adv-x="474" 
d="M391 607c0 -31 -26 -56 -57 -56s-56 25 -56 56s25 56 56 56s57 -25 57 -56zM209 607c0 -31 -25 -56 -56 -56s-57 25 -57 56s26 56 57 56s56 -25 56 -56zM252 -12c-133 0 -217 104 -217 254c0 140 78 253 207 253c131 0 201 -111 201 -257v-29h-307
c4 -79 48 -139 126 -139c38 0 81 19 109 52l48 -60c-41 -47 -102 -74 -167 -74zM346 280c-1 60 -28 134 -105 134c-75 0 -103 -76 -106 -134h211z" />
    <glyph glyph-name="edotaccent" unicode="&#x117;" horiz-adv-x="474" 
d="M252 -12c-133 0 -217 104 -217 254c0 140 78 253 207 253c131 0 201 -111 201 -257v-29h-307c4 -79 48 -139 126 -139c38 0 81 19 109 52l48 -60c-41 -47 -102 -74 -167 -74zM346 280c-1 60 -28 134 -105 134c-75 0 -103 -76 -106 -134h211zM244 550c-31 0 -57 25 -57 56
s26 57 57 57s56 -26 56 -57s-25 -56 -56 -56z" />
    <glyph glyph-name="egrave" unicode="&#xe8;" horiz-adv-x="474" 
d="M252 -12c-133 0 -217 104 -217 254c0 140 78 253 207 253c131 0 201 -111 201 -257v-29h-307c4 -79 48 -139 126 -139c38 0 81 19 109 52l48 -60c-41 -47 -102 -74 -167 -74zM346 280c-1 60 -28 134 -105 134c-75 0 -103 -76 -106 -134h211zM294 556h-68l-134 144h93z
" />
    <glyph glyph-name="emacron" unicode="&#x113;" horiz-adv-x="474" 
d="M252 -12c-133 0 -217 104 -217 254c0 140 78 253 207 253c131 0 201 -111 201 -257v-29h-307c4 -79 48 -139 126 -139c38 0 81 19 109 52l48 -60c-41 -47 -102 -74 -167 -74zM346 280c-1 60 -28 134 -105 134c-75 0 -103 -76 -106 -134h211zM398 567h-309v60h309v-60z
" />
    <glyph glyph-name="eogonek" unicode="&#x119;" horiz-adv-x="474" 
d="M330 -106l44 -25c-14 -31 -39 -55 -82 -55c-48 0 -86 26 -86 84c0 33 13 64 36 90c-127 5 -207 107 -207 254c0 140 78 253 207 253c131 0 201 -111 201 -257v-29h-307c4 -79 48 -139 126 -139c38 0 81 19 109 52l48 -60c-25 -29 -57 -50 -93 -62
c-42 -25 -67 -58 -67 -99c0 -29 15 -42 33 -42c20 0 32 14 38 35zM346 280c-1 60 -28 134 -105 134c-75 0 -103 -76 -106 -134h211z" />
    <glyph glyph-name="ecaron" unicode="&#x11b;" horiz-adv-x="474" 
d="M290 556h-91l-82 144h60l67 -97l64 97h60zM252 -12c-133 0 -217 104 -217 254c0 140 78 253 207 253c131 0 201 -111 201 -257v-29h-307c4 -79 48 -139 126 -139c38 0 81 19 109 52l48 -60c-41 -47 -102 -74 -167 -74zM346 280c-1 60 -28 134 -105 134
c-75 0 -103 -76 -106 -134h211z" />
    <glyph glyph-name="uni1EB9" unicode="&#x1eb9;" horiz-adv-x="474" 
d="M252 -12c-133 0 -217 104 -217 254c0 140 78 253 207 253c131 0 201 -111 201 -257v-29h-307c4 -79 48 -139 126 -139c38 0 81 19 109 52l48 -60c-41 -47 -102 -74 -167 -74zM346 280c-1 60 -28 134 -105 134c-75 0 -103 -76 -106 -134h211zM244 -189
c-31 0 -57 25 -57 56s26 57 57 57s56 -26 56 -57s-25 -56 -56 -56z" />
    <glyph glyph-name="uni1EBB" unicode="&#x1ebb;" horiz-adv-x="474" 
d="M252 -12c-133 0 -217 104 -217 254c0 140 78 253 207 253c131 0 201 -111 201 -257v-29h-307c4 -79 48 -139 126 -139c38 0 81 19 109 52l48 -60c-41 -47 -102 -74 -167 -74zM346 280c-1 60 -28 134 -105 134c-75 0 -103 -76 -106 -134h211zM213 587l-39 10
c9 32 34 53 70 53c37 0 67 -20 67 -67c0 -22 -7 -39 -18 -56h-44c15 18 21 36 21 54c0 23 -12 32 -27 32c-16 0 -25 -10 -30 -26z" />
    <glyph glyph-name="uni1EBD" unicode="&#x1ebd;" horiz-adv-x="474" 
d="M252 -12c-133 0 -217 104 -217 254c0 140 78 253 207 253c131 0 201 -111 201 -257v-29h-307c4 -79 48 -139 126 -139c38 0 81 19 109 52l48 -60c-41 -47 -102 -74 -167 -74zM346 280c-1 60 -28 134 -105 134c-75 0 -103 -76 -106 -134h211zM293 554
c-62 0 -69 81 -103 81c-18 0 -34 -23 -34 -75h-54c0 79 32 134 92 134c61 0 68 -80 103 -80c18 0 33 22 33 74h54c0 -79 -31 -134 -91 -134z" />
    <glyph glyph-name="uni1EBF" unicode="&#x1ebf;" horiz-adv-x="474" 
d="M369 556h-60l-67 97l-64 -97h-60l79 144h91zM538 771l-134 -144h-68l110 144h92zM252 -12c-133 0 -217 104 -217 254c0 140 78 253 207 253c131 0 201 -111 201 -257v-29h-307c4 -79 48 -139 126 -139c38 0 81 19 109 52l48 -60c-41 -47 -102 -74 -167 -74zM346 280
c-1 60 -28 134 -105 134c-75 0 -103 -76 -106 -134h211z" />
    <glyph glyph-name="uni1EC1" unicode="&#x1ec1;" horiz-adv-x="474" 
d="M369 556h-60l-67 97l-64 -97h-60l79 144h91zM252 -12c-133 0 -217 104 -217 254c0 140 78 253 207 253c131 0 201 -111 201 -257v-29h-307c4 -79 48 -139 126 -139c38 0 81 19 109 52l48 -60c-41 -47 -102 -74 -167 -74zM346 280c-1 60 -28 134 -105 134
c-75 0 -103 -76 -106 -134h211zM146 627h-68l-134 144h93z" />
    <glyph glyph-name="uni1EC3" unicode="&#x1ec3;" horiz-adv-x="474" 
d="M368 556h-60l-67 97l-64 -97h-60l79 144h91zM252 -12c-133 0 -217 104 -217 254c0 140 78 253 207 253c131 0 201 -111 201 -257v-29h-307c4 -79 48 -139 126 -139c38 0 81 19 109 52l48 -60c-41 -47 -102 -74 -167 -74zM346 280c-1 60 -28 134 -105 134
c-75 0 -103 -76 -106 -134h211zM301 727l-39 10c9 32 34 53 70 53c37 0 67 -20 67 -67c0 -22 -7 -39 -18 -56h-44c15 18 21 36 21 54c0 23 -12 32 -27 32c-16 0 -25 -10 -30 -26z" />
    <glyph glyph-name="uni1EC5" unicode="&#x1ec5;" horiz-adv-x="474" 
d="M368 523h-60l-67 97l-64 -97h-60l79 144h91zM252 -12c-133 0 -217 104 -217 254c0 140 78 253 207 253c131 0 201 -111 201 -257v-29h-307c4 -79 48 -139 126 -139c38 0 81 19 109 52l48 -60c-41 -47 -102 -74 -167 -74zM346 280c-1 60 -28 134 -105 134
c-75 0 -103 -76 -106 -134h211zM293 682c-62 0 -69 81 -103 81c-18 0 -34 -23 -34 -75h-54c0 79 32 134 92 134c61 0 68 -80 103 -80c18 0 33 22 33 74h54c0 -79 -31 -134 -91 -134z" />
    <glyph glyph-name="uni1EC7" unicode="&#x1ec7;" horiz-adv-x="474" 
d="M369 556h-60l-67 97l-64 -97h-60l79 144h91zM252 -12c-133 0 -217 104 -217 254c0 140 78 253 207 253c131 0 201 -111 201 -257v-29h-307c4 -79 48 -139 126 -139c38 0 81 19 109 52l48 -60c-41 -47 -102 -74 -167 -74zM346 280c-1 60 -28 134 -105 134
c-75 0 -103 -76 -106 -134h211zM244 -189c-31 0 -57 25 -57 56s26 57 57 57s56 -26 56 -57s-25 -56 -56 -56z" />
    <glyph glyph-name="fl.alt1" horiz-adv-x="528" 
d="M179 0h-100v396h-63v87h63v45c0 96 54 149 131 149c30 0 53 -5 73 -16l-21 -77c-7 6 -17 9 -31 9c-32 0 -52 -23 -52 -65v-45h80v-87h-80v-396zM445 -12c-76 0 -112 41 -112 120v559h100v-538c0 -33 11 -53 37 -53c16 0 30 7 38 16l23 -75c-17 -18 -45 -29 -86 -29z" />
    <glyph glyph-name="f_f_l.alt1" horiz-adv-x="801" 
d="M453 0h-100v396h-63v87h63v45c0 96 54 149 131 149c30 0 53 -5 73 -16l-21 -77c-7 6 -17 9 -31 9c-32 0 -52 -23 -52 -65v-45h80v-87h-80v-396zM718 -12c-76 0 -112 41 -112 120v559h100v-538c0 -33 11 -53 37 -53c16 0 30 7 38 16l23 -75c-17 -18 -45 -29 -86 -29z
M179 0h-100v396h-63v87h63v45c0 94 52 149 136 149c36 0 72 -10 97 -34l-34 -70c-13 13 -26 20 -45 20c-35 0 -54 -23 -54 -65v-45h80v-87h-80v-396z" />
    <glyph glyph-name="uni1E1F" unicode="&#x1e1f;" horiz-adv-x="274" 
d="M215 717c-31 0 -57 25 -57 56s26 57 57 57s56 -26 56 -57s-25 -56 -56 -56zM179 0h-100v396h-63v87h63v45c0 94 52 149 136 149c36 0 72 -10 97 -34l-34 -70c-13 13 -26 20 -45 20c-35 0 -54 -23 -54 -65v-45h80v-87h-80v-396z" />
    <glyph glyph-name="gcircumflex" unicode="&#x11d;" horiz-adv-x="493" 
d="M375 556h-60l-67 97l-64 -97h-60l79 144h91zM226 -196c-69 0 -123 16 -171 61l41 77c33 -36 75 -54 125 -54c60 0 114 33 114 121v69c-29 -49 -76 -79 -124 -79c-108 0 -176 93 -176 248c0 153 67 248 176 248c47 0 94 -25 124 -77v65h99v-466
c0 -167 -104 -213 -208 -213zM241 88c38 0 77 30 94 66v187c-17 36 -56 66 -94 66c-69 0 -103 -67 -103 -160c0 -92 34 -159 103 -159z" />
    <glyph glyph-name="gbreve" unicode="&#x11f;" horiz-adv-x="493" 
d="M226 -196c-69 0 -123 16 -171 61l41 77c33 -36 75 -54 125 -54c60 0 114 33 114 121v69c-29 -49 -76 -79 -124 -79c-108 0 -176 93 -176 248c0 153 67 248 176 248c47 0 94 -25 124 -77v65h99v-466c0 -167 -104 -213 -208 -213zM241 88c38 0 77 30 94 66v187
c-17 36 -56 66 -94 66c-69 0 -103 -67 -103 -160c0 -92 34 -159 103 -159zM398 616c-34 -46 -88 -75 -149 -75c-60 0 -114 29 -149 75l47 38c23 -33 60 -53 102 -53s79 20 102 53z" />
    <glyph glyph-name="gdotaccent" unicode="&#x121;" horiz-adv-x="493" 
d="M226 -196c-69 0 -123 16 -171 61l41 77c33 -36 75 -54 125 -54c60 0 114 33 114 121v69c-29 -49 -76 -79 -124 -79c-108 0 -176 93 -176 248c0 153 67 248 176 248c47 0 94 -25 124 -77v65h99v-466c0 -167 -104 -213 -208 -213zM241 88c38 0 77 30 94 66v187
c-17 36 -56 66 -94 66c-69 0 -103 -67 -103 -160c0 -92 34 -159 103 -159zM249 550c-31 0 -57 25 -57 56s26 57 57 57s56 -26 56 -57s-25 -56 -56 -56z" />
    <glyph glyph-name="gcommaaccent" unicode="&#x123;" horiz-adv-x="493" 
d="M193 611c0 62 30 118 74 148l38 -30c-27 -17 -57 -51 -60 -80c1 0 3 1 6 1c25 0 52 -23 52 -52s-24 -54 -55 -54c-24 0 -55 18 -55 67zM226 -196c-69 0 -123 16 -171 61l41 77c33 -36 75 -54 125 -54c60 0 114 33 114 121v69c-29 -49 -76 -79 -124 -79
c-108 0 -176 93 -176 248c0 153 67 248 176 248c47 0 94 -25 124 -77v65h99v-466c0 -167 -104 -213 -208 -213zM241 88c38 0 77 30 94 66v187c-17 36 -56 66 -94 66c-69 0 -103 -67 -103 -160c0 -92 34 -159 103 -159z" />
    <glyph glyph-name="hbar" unicode="&#x127;" horiz-adv-x="493" 
d="M303 532h-136v-114c26 39 81 77 141 77c86 0 126 -45 126 -130v-365h-99v331c0 56 -27 76 -70 76c-42 0 -79 -33 -98 -67v-340h-100v532h-53v60h53v75h100v-75h136v-60z" />
    <glyph glyph-name="hcircumflex" unicode="&#x125;" horiz-adv-x="485" 
d="M369 723h-60l-67 97l-64 -97h-60l79 144h91zM426 0h-99v331c0 56 -27 76 -70 76c-42 0 -79 -33 -98 -67v-340h-100v667h100v-249c26 39 81 77 141 77c86 0 126 -45 126 -130v-365z" />
    <glyph glyph-name="uni1E23" unicode="&#x1e23;" horiz-adv-x="485" 
d="M426 0h-99v331c0 56 -27 76 -70 76c-42 0 -79 -33 -98 -67v-340h-100v667h100v-249c26 39 81 77 141 77c86 0 126 -45 126 -130v-365zM243 717c-31 0 -57 25 -57 56s26 57 57 57s56 -26 56 -57s-25 -56 -56 -56z" />
    <glyph glyph-name="dotlessi" unicode="&#x131;" horiz-adv-x="218" 
d="M159 0h-100v483h100v-483z" />
    <glyph glyph-name="iacute" unicode="&#xed;" horiz-adv-x="218" 
d="M260 700l-134 -144h-68l110 144h92zM159 0h-100v483h100v-483z" />
    <glyph glyph-name="ibreve" unicode="&#x12d;" horiz-adv-x="218" 
d="M159 0h-100v483h100v-483zM258 616c-34 -46 -88 -75 -149 -75c-60 0 -114 29 -149 75l47 38c23 -33 60 -53 102 -53s79 20 102 53z" />
    <glyph glyph-name="icircumflex" unicode="&#xee;" horiz-adv-x="218" 
d="M234 556h-60l-67 97l-64 -97h-60l79 144h91zM159 0h-100v483h100v-483z" />
    <glyph glyph-name="idieresis" unicode="&#xef;" horiz-adv-x="218" 
d="M256 607c0 -31 -26 -56 -57 -56s-56 25 -56 56s25 56 56 56s57 -25 57 -56zM74 607c0 -31 -25 -56 -56 -56s-57 25 -57 56s26 56 57 56s56 -25 56 -56zM159 0h-100v483h100v-483z" />
    <glyph glyph-name="igrave" unicode="&#xec;" horiz-adv-x="218" 
d="M159 0h-100v483h100v-483zM159 556h-68l-134 144h93z" />
    <glyph glyph-name="imacron" unicode="&#x12b;" horiz-adv-x="218" 
d="M159 0h-100v483h100v-483zM263 567h-309v60h309v-60z" />
    <glyph glyph-name="iogonek" unicode="&#x12f;" horiz-adv-x="218" 
d="M163 -106l44 -25c-14 -31 -39 -55 -82 -55c-48 0 -86 26 -86 84c0 38 18 73 48 102h-28v483h100v-483c-42 -25 -67 -58 -67 -99c0 -29 15 -42 33 -42c20 0 32 14 38 35zM109 544c-34 0 -63 28 -63 62c0 35 29 63 63 63s62 -28 62 -63c0 -34 -28 -62 -62 -62z" />
    <glyph glyph-name="itilde" unicode="&#x129;" horiz-adv-x="218" 
d="M159 0h-100v483h100v-483zM159 554c-62 0 -69 81 -103 81c-18 0 -34 -23 -34 -75h-54c0 79 32 134 92 134c61 0 68 -80 103 -80c18 0 33 22 33 74h54c0 -79 -31 -134 -91 -134z" />
    <glyph glyph-name="uni1EC9" unicode="&#x1ec9;" horiz-adv-x="218" 
d="M159 0h-100v483h100v-483zM79 587l-39 10c9 32 34 53 70 53c37 0 67 -20 67 -67c0 -22 -7 -39 -18 -56h-44c15 18 21 36 21 54c0 23 -12 32 -27 32c-16 0 -25 -10 -30 -26z" />
    <glyph glyph-name="uni1ECB" unicode="&#x1ecb;" horiz-adv-x="218" 
d="M109 544c-34 0 -63 28 -63 62c0 35 29 63 63 63s62 -28 62 -63c0 -34 -28 -62 -62 -62zM159 0h-100v483h100v-483zM110 -189c-31 0 -57 25 -57 56s26 57 57 57s56 -26 56 -57s-25 -56 -56 -56z" />
    <glyph glyph-name="ij" unicode="&#x133;" horiz-adv-x="435" 
d="M109 544c-34 0 -63 28 -63 62c0 35 29 63 63 63s62 -28 62 -63c0 -34 -28 -62 -62 -62zM159 0h-100v483h100v-483zM327 544c-34 0 -63 28 -63 62c0 35 29 63 63 63s62 -28 62 -63c0 -34 -28 -62 -62 -62zM237 -196c-41 0 -64 10 -87 31l28 75c12 -13 26 -22 47 -22
c31 0 52 20 52 71v524h100v-524c0 -101 -46 -155 -140 -155z" />
    <glyph glyph-name="uni0237" unicode="&#x237;" horiz-adv-x="218" 
d="M19 -196c-41 0 -64 10 -87 31l28 75c12 -13 26 -22 47 -22c31 0 52 20 52 71v524h100v-524c0 -101 -46 -155 -140 -155z" />
    <glyph glyph-name="jcircumflex" unicode="&#x135;" horiz-adv-x="218" 
d="M236 556h-60l-67 97l-64 -97h-60l79 144h91zM19 -196c-41 0 -64 10 -87 31l28 75c12 -13 26 -22 47 -22c31 0 52 20 52 71v524h100v-524c0 -101 -46 -155 -140 -155z" />
    <glyph glyph-name="kcommaaccent" unicode="&#x137;" horiz-adv-x="456" 
d="M292 -138c0 -58 -33 -110 -77 -142l-38 30c29 18 56 54 61 83c-2 0 -9 -1 -13 -1c-27 0 -47 20 -47 49c0 30 23 54 53 54c32 0 61 -26 61 -73zM448 0h-117l-114 202l-58 -78v-124h-100v667h100v-421l170 237h116l-160 -217z" />
    <glyph glyph-name="kgreenlandic" unicode="&#x138;" horiz-adv-x="456" 
d="M448 0h-117l-114 202l-58 -78v-124h-100v483h100v-237l170 237h116l-160 -217z" />
    <glyph glyph-name="lacute" unicode="&#x13a;" horiz-adv-x="218" 
d="M260 867l-134 -144h-68l110 144h92zM159 0h-100v667h100v-667z" />
    <glyph glyph-name="lcommaaccent" unicode="&#x13c;" horiz-adv-x="218" 
d="M173 -138c0 -58 -33 -110 -77 -142l-38 30c29 18 56 54 61 83c-2 0 -9 -1 -13 -1c-27 0 -47 20 -47 49c0 30 23 54 53 54c32 0 61 -26 61 -73zM159 0h-100v667h100v-667z" />
    <glyph glyph-name="lcaron" unicode="&#x13e;" horiz-adv-x="310" 
d="M330 607c0 -58 -33 -110 -77 -142l-38 30c29 18 56 54 61 83c-2 0 -9 -1 -13 -1c-27 0 -47 20 -47 49c0 30 23 54 53 54c32 0 61 -26 61 -73zM159 0h-100v667h100v-667z" />
    <glyph glyph-name="ldot" unicode="&#x140;" horiz-adv-x="339" 
d="M159 0h-100v667h100v-667zM345 245c0 -36 -30 -67 -67 -67s-67 31 -67 67s30 67 67 67s67 -31 67 -67z" />
    <glyph glyph-name="lslash" unicode="&#x142;" horiz-adv-x="266" 
d="M14 230v76l70 40v321h100v-264l68 39v-75l-68 -39v-328h-100v270z" />
    <glyph glyph-name="lacute.alt1" horiz-adv-x="254" 
d="M260 867l-134 -144h-68l110 144h92zM171 -12c-76 0 -112 41 -112 120v559h100v-538c0 -33 11 -53 37 -53c16 0 30 7 38 16l23 -75c-17 -18 -45 -29 -86 -29z" />
    <glyph glyph-name="lcommaaccent.alt1" horiz-adv-x="254" 
d="M182 -138c0 -58 -33 -110 -77 -142l-38 30c29 18 56 54 61 83c-2 0 -9 -1 -13 -1c-27 0 -47 20 -47 49c0 30 23 54 53 54c32 0 61 -26 61 -73zM171 -12c-76 0 -112 41 -112 120v559h100v-538c0 -33 11 -53 37 -53c16 0 30 7 38 16l23 -75c-17 -18 -45 -29 -86 -29z" />
    <glyph glyph-name="lcaron.alt1" horiz-adv-x="310" 
d="M330 607c0 -58 -33 -110 -77 -142l-38 30c29 18 56 54 61 83c-2 0 -9 -1 -13 -1c-27 0 -47 20 -47 49c0 30 23 54 53 54c32 0 61 -26 61 -73zM171 -12c-76 0 -112 41 -112 120v559h100v-538c0 -33 11 -53 37 -53c16 0 30 7 38 16l23 -75c-17 -18 -45 -29 -86 -29z" />
    <glyph glyph-name="ldot.alt1" horiz-adv-x="339" 
d="M171 -12c-76 0 -112 41 -112 120v559h100v-538c0 -33 11 -53 37 -53c16 0 30 7 38 16l23 -75c-17 -18 -45 -29 -86 -29zM345 245c0 -36 -30 -67 -67 -67s-67 31 -67 67s30 67 67 67s67 -31 67 -67z" />
    <glyph glyph-name="lslash.alt1" horiz-adv-x="279" 
d="M14 230v76l69 39v322h100v-265l69 40v-75l-69 -40v-198c0 -33 11 -53 37 -53c16 0 30 7 38 16l23 -75c-17 -18 -45 -29 -86 -29c-76 0 -112 41 -112 120v161z" />
    <glyph glyph-name="nacute" unicode="&#x144;" horiz-adv-x="485" 
d="M393 700l-134 -144h-68l110 144h92zM426 0h-100v329c0 57 -26 78 -69 78s-80 -33 -98 -67v-340h-100v483h100v-65c26 39 80 77 140 77c87 0 127 -48 127 -131v-364z" />
    <glyph glyph-name="napostrophe" unicode="&#x149;" horiz-adv-x="485" 
d="M159 680c0 -58 -33 -110 -77 -142l-38 30c29 18 56 54 61 83c-2 0 -9 -1 -13 -1c-27 0 -47 20 -47 49c0 30 23 54 53 54c32 0 61 -26 61 -73zM426 0h-100v329c0 57 -26 78 -69 78s-80 -33 -98 -67v-340h-100v483h100v-65c26 39 80 77 140 77c87 0 127 -48 127 -131v-364z
" />
    <glyph glyph-name="ncaron" unicode="&#x148;" horiz-adv-x="485" 
d="M290 556h-91l-82 144h60l67 -97l64 97h60zM426 0h-100v329c0 57 -26 78 -69 78s-80 -33 -98 -67v-340h-100v483h100v-65c26 39 80 77 140 77c87 0 127 -48 127 -131v-364z" />
    <glyph glyph-name="ncommaaccent" unicode="&#x146;" horiz-adv-x="485" 
d="M304 -138c0 -58 -33 -110 -77 -142l-38 30c29 18 56 54 61 83c-2 0 -9 -1 -13 -1c-27 0 -47 20 -47 49c0 30 23 54 53 54c32 0 61 -26 61 -73zM426 0h-100v329c0 57 -26 78 -69 78s-80 -33 -98 -67v-340h-100v483h100v-65c26 39 80 77 140 77c87 0 127 -48 127 -131v-364
z" />
    <glyph glyph-name="ntilde" unicode="&#xf1;" horiz-adv-x="485" 
d="M426 0h-100v329c0 57 -26 78 -69 78s-80 -33 -98 -67v-340h-100v483h100v-65c26 39 80 77 140 77c87 0 127 -48 127 -131v-364zM294 554c-62 0 -69 81 -103 81c-18 0 -34 -23 -34 -75h-54c0 79 32 134 92 134c61 0 68 -80 103 -80c18 0 33 22 33 74h54
c0 -79 -31 -134 -91 -134z" />
    <glyph glyph-name="eng" unicode="&#x14b;" horiz-adv-x="485" 
d="M426 364v-405c0 -101 -45 -155 -140 -155c-40 0 -63 10 -86 31l28 78c12 -13 26 -21 46 -21c31 0 52 20 52 67v370c0 57 -26 78 -69 78s-80 -33 -98 -67v-340h-100v483h100v-65c26 39 80 77 140 77c87 0 127 -48 127 -131z" />
    <glyph glyph-name="oacute" unicode="&#xf3;" horiz-adv-x="488" 
d="M395 700l-134 -144h-68l110 144h92zM244 -12c-137 0 -209 118 -209 254s72 253 209 253s209 -117 209 -253s-72 -254 -209 -254zM244 76c73 0 106 79 106 166s-33 165 -106 165s-106 -78 -106 -165s33 -166 106 -166z" />
    <glyph glyph-name="obreve" unicode="&#x14f;" horiz-adv-x="488" 
d="M244 -12c-137 0 -209 118 -209 254s72 253 209 253s209 -117 209 -253s-72 -254 -209 -254zM244 76c73 0 106 79 106 166s-33 165 -106 165s-106 -78 -106 -165s33 -166 106 -166zM393 616c-34 -46 -88 -75 -149 -75c-60 0 -114 29 -149 75l47 38c23 -33 60 -53 102 -53
s79 20 102 53z" />
    <glyph glyph-name="ocircumflex" unicode="&#xf4;" horiz-adv-x="488" 
d="M370 556h-60l-67 97l-64 -97h-60l79 144h91zM244 -12c-137 0 -209 118 -209 254s72 253 209 253s209 -117 209 -253s-72 -254 -209 -254zM244 76c73 0 106 79 106 166s-33 165 -106 165s-106 -78 -106 -165s33 -166 106 -166z" />
    <glyph glyph-name="odieresis" unicode="&#xf6;" horiz-adv-x="488" 
d="M392 607c0 -31 -26 -56 -57 -56s-56 25 -56 56s25 56 56 56s57 -25 57 -56zM210 607c0 -31 -25 -56 -56 -56s-57 25 -57 56s26 56 57 56s56 -25 56 -56zM244 -12c-137 0 -209 118 -209 254s72 253 209 253s209 -117 209 -253s-72 -254 -209 -254zM244 76
c73 0 106 79 106 166s-33 165 -106 165s-106 -78 -106 -165s33 -166 106 -166z" />
    <glyph glyph-name="ograve" unicode="&#xf2;" horiz-adv-x="488" 
d="M244 -12c-137 0 -209 118 -209 254s72 253 209 253s209 -117 209 -253s-72 -254 -209 -254zM244 76c73 0 106 79 106 166s-33 165 -106 165s-106 -78 -106 -165s33 -166 106 -166zM295 556h-68l-134 144h93z" />
    <glyph glyph-name="ohungarumlaut" unicode="&#x151;" horiz-adv-x="488" 
d="M291 700l-97 -144h-57l73 144h81zM425 700l-97 -144h-56l72 144h81zM244 -12c-137 0 -209 118 -209 254s72 253 209 253s209 -117 209 -253s-72 -254 -209 -254zM244 76c73 0 106 79 106 166s-33 165 -106 165s-106 -78 -106 -165s33 -166 106 -166z" />
    <glyph glyph-name="omacron" unicode="&#x14d;" horiz-adv-x="488" 
d="M399 567h-309v60h309v-60zM244 -12c-137 0 -209 118 -209 254s72 253 209 253s209 -117 209 -253s-72 -254 -209 -254zM244 76c73 0 106 79 106 166s-33 165 -106 165s-106 -78 -106 -165s33 -166 106 -166z" />
    <glyph glyph-name="oslash" unicode="&#xf8;" horiz-adv-x="488" 
d="M106 0h-61l43 63c-35 46 -53 110 -53 179c0 136 72 253 209 253c47 0 85 -14 117 -37l17 25h62l-42 -61c36 -46 55 -111 55 -180c0 -136 -72 -254 -209 -254c-48 0 -88 14 -120 39zM244 76c73 0 106 79 106 166c0 32 -5 64 -15 90l-157 -227c17 -18 39 -29 66 -29z
M138 242c0 -32 4 -62 13 -88l156 226c-16 17 -37 27 -63 27c-73 0 -106 -78 -106 -165z" />
    <glyph glyph-name="oslashacute" unicode="&#x1ff;" horiz-adv-x="488" 
d="M395 700l-134 -144h-68l110 144h92zM106 0h-61l43 63c-35 46 -53 110 -53 179c0 136 72 253 209 253c47 0 85 -14 117 -37l17 25h62l-42 -61c36 -46 55 -111 55 -180c0 -136 -72 -254 -209 -254c-48 0 -88 14 -120 39zM244 76c73 0 106 79 106 166c0 32 -5 64 -15 90
l-157 -227c17 -18 39 -29 66 -29zM138 242c0 -32 4 -62 13 -88l156 226c-16 17 -37 27 -63 27c-73 0 -106 -78 -106 -165z" />
    <glyph glyph-name="otilde" unicode="&#xf5;" horiz-adv-x="488" 
d="M244 -12c-137 0 -209 118 -209 254s72 253 209 253s209 -117 209 -253s-72 -254 -209 -254zM244 76c73 0 106 79 106 166s-33 165 -106 165s-106 -78 -106 -165s33 -166 106 -166zM294 554c-62 0 -69 81 -103 81c-18 0 -34 -23 -34 -75h-54c0 79 32 134 92 134
c61 0 68 -80 103 -80c18 0 33 22 33 74h54c0 -79 -31 -134 -91 -134z" />
    <glyph glyph-name="uni1ECD" unicode="&#x1ecd;" horiz-adv-x="488" 
d="M244 -12c-137 0 -209 118 -209 254s72 253 209 253s209 -117 209 -253s-72 -254 -209 -254zM244 76c73 0 106 79 106 166s-33 165 -106 165s-106 -78 -106 -165s33 -166 106 -166zM245 -189c-31 0 -57 25 -57 56s26 57 57 57s56 -26 56 -57s-25 -56 -56 -56z" />
    <glyph glyph-name="uni1ECF" unicode="&#x1ecf;" horiz-adv-x="488" 
d="M244 -12c-137 0 -209 118 -209 254s72 253 209 253s209 -117 209 -253s-72 -254 -209 -254zM244 76c73 0 106 79 106 166s-33 165 -106 165s-106 -78 -106 -165s33 -166 106 -166zM215 587l-39 10c9 32 34 53 70 53c37 0 67 -20 67 -67c0 -22 -7 -39 -18 -56h-44
c15 18 21 36 21 54c0 23 -12 32 -27 32c-16 0 -25 -10 -30 -26z" />
    <glyph glyph-name="uni1ED1" unicode="&#x1ed1;" horiz-adv-x="488" 
d="M370 556h-60l-67 97l-64 -97h-60l79 144h91zM539 771l-134 -144h-68l110 144h92zM244 -12c-137 0 -209 118 -209 254s72 253 209 253s209 -117 209 -253s-72 -254 -209 -254zM244 76c73 0 106 79 106 166s-33 165 -106 165s-106 -78 -106 -165s33 -166 106 -166z" />
    <glyph glyph-name="uni1ED3" unicode="&#x1ed3;" horiz-adv-x="488" 
d="M370 556h-60l-67 97l-64 -97h-60l79 144h91zM244 -12c-137 0 -209 118 -209 254s72 253 209 253s209 -117 209 -253s-72 -254 -209 -254zM244 76c73 0 106 79 106 166s-33 165 -106 165s-106 -78 -106 -165s33 -166 106 -166zM147 627h-68l-134 144h93z" />
    <glyph glyph-name="uni1ED5" unicode="&#x1ed5;" horiz-adv-x="488" 
d="M370 556h-60l-67 97l-64 -97h-60l79 144h91zM244 -12c-137 0 -209 118 -209 254s72 253 209 253s209 -117 209 -253s-72 -254 -209 -254zM244 76c73 0 106 79 106 166s-33 165 -106 165s-106 -78 -106 -165s33 -166 106 -166zM302 727l-39 10c9 32 34 53 70 53
c37 0 67 -20 67 -67c0 -22 -7 -39 -18 -56h-44c15 18 21 36 21 54c0 23 -12 32 -27 32c-16 0 -25 -10 -30 -26z" />
    <glyph glyph-name="uni1ED7" unicode="&#x1ed7;" horiz-adv-x="488" 
d="M370 523h-60l-67 97l-64 -97h-60l79 144h91zM244 -12c-137 0 -209 118 -209 254s72 253 209 253s209 -117 209 -253s-72 -254 -209 -254zM244 76c73 0 106 79 106 166s-33 165 -106 165s-106 -78 -106 -165s33 -166 106 -166zM294 682c-62 0 -69 81 -103 81
c-18 0 -34 -23 -34 -75h-54c0 79 32 134 92 134c61 0 68 -80 103 -80c18 0 33 22 33 74h54c0 -79 -31 -134 -91 -134z" />
    <glyph glyph-name="uni1ED9" unicode="&#x1ed9;" horiz-adv-x="488" 
d="M370 556h-60l-67 97l-64 -97h-60l79 144h91zM244 -12c-137 0 -209 118 -209 254s72 253 209 253s209 -117 209 -253s-72 -254 -209 -254zM244 76c73 0 106 79 106 166s-33 165 -106 165s-106 -78 -106 -165s33 -166 106 -166zM244 -189c-31 0 -57 25 -57 56s26 57 57 57
s56 -26 56 -57s-25 -56 -56 -56z" />
    <glyph glyph-name="ohorn" unicode="&#x1a1;" horiz-adv-x="488" 
d="M466 531c0 -48 -25 -92 -59 -122c30 -45 46 -104 46 -167c0 -136 -72 -254 -209 -254s-209 118 -209 254s72 253 209 253c56 0 101 -20 135 -53c19 18 35 42 38 64c-1 -1 -7 -2 -12 -2c-25 0 -43 19 -43 46s21 49 49 49c29 0 55 -25 55 -68zM244 76c73 0 106 79 106 166
s-33 165 -106 165s-106 -78 -106 -165s33 -166 106 -166z" />
    <glyph glyph-name="uni1EDB" unicode="&#x1edb;" horiz-adv-x="488" 
d="M395 700l-134 -144h-68l110 144h92zM466 531c0 -48 -25 -92 -59 -122c30 -45 46 -104 46 -167c0 -136 -72 -254 -209 -254s-209 118 -209 254s72 253 209 253c56 0 101 -20 135 -53c19 18 35 42 38 64c-1 -1 -7 -2 -12 -2c-25 0 -43 19 -43 46s21 49 49 49
c29 0 55 -25 55 -68zM244 76c73 0 106 79 106 166s-33 165 -106 165s-106 -78 -106 -165s33 -166 106 -166z" />
    <glyph glyph-name="uni1EDD" unicode="&#x1edd;" horiz-adv-x="488" 
d="M466 531c0 -48 -25 -92 -59 -122c30 -45 46 -104 46 -167c0 -136 -72 -254 -209 -254s-209 118 -209 254s72 253 209 253c56 0 101 -20 135 -53c19 18 35 42 38 64c-1 -1 -7 -2 -12 -2c-25 0 -43 19 -43 46s21 49 49 49c29 0 55 -25 55 -68zM244 76c73 0 106 79 106 166
s-33 165 -106 165s-106 -78 -106 -165s33 -166 106 -166zM295 556h-68l-134 144h93z" />
    <glyph glyph-name="uni1EDF" unicode="&#x1edf;" horiz-adv-x="488" 
d="M466 531c0 -48 -25 -92 -59 -122c30 -45 46 -104 46 -167c0 -136 -72 -254 -209 -254s-209 118 -209 254s72 253 209 253c56 0 101 -20 135 -53c19 18 35 42 38 64c-1 -1 -7 -2 -12 -2c-25 0 -43 19 -43 46s21 49 49 49c29 0 55 -25 55 -68zM244 76c73 0 106 79 106 166
s-33 165 -106 165s-106 -78 -106 -165s33 -166 106 -166zM215 587l-39 10c9 32 34 53 70 53c37 0 67 -20 67 -67c0 -22 -7 -39 -18 -56h-44c15 18 21 36 21 54c0 23 -12 32 -27 32c-16 0 -25 -10 -30 -26z" />
    <glyph glyph-name="uni1EE1" unicode="&#x1ee1;" horiz-adv-x="488" 
d="M466 531c0 -48 -25 -92 -59 -122c30 -45 46 -104 46 -167c0 -136 -72 -254 -209 -254s-209 118 -209 254s72 253 209 253c56 0 101 -20 135 -53c19 18 35 42 38 64c-1 -1 -7 -2 -12 -2c-25 0 -43 19 -43 46s21 49 49 49c29 0 55 -25 55 -68zM244 76c73 0 106 79 106 166
s-33 165 -106 165s-106 -78 -106 -165s33 -166 106 -166zM286 554c-62 0 -69 81 -103 81c-18 0 -34 -23 -34 -75h-54c0 79 32 134 92 134c61 0 68 -80 103 -80c18 0 33 22 33 74h54c0 -79 -31 -134 -91 -134z" />
    <glyph glyph-name="uni1EE3" unicode="&#x1ee3;" horiz-adv-x="488" 
d="M466 531c0 -48 -25 -92 -59 -122c30 -45 46 -104 46 -167c0 -136 -72 -254 -209 -254s-209 118 -209 254s72 253 209 253c56 0 101 -20 135 -53c19 18 35 42 38 64c-1 -1 -7 -2 -12 -2c-25 0 -43 19 -43 46s21 49 49 49c29 0 55 -25 55 -68zM244 76c73 0 106 79 106 166
s-33 165 -106 165s-106 -78 -106 -165s33 -166 106 -166zM245 -189c-31 0 -57 25 -57 56s26 57 57 57s56 -26 56 -57s-25 -56 -56 -56z" />
    <glyph glyph-name="oe" unicode="&#x153;" horiz-adv-x="788" 
d="M757 209h-306c4 -79 47 -139 125 -139c39 0 81 19 109 52l49 -60c-42 -47 -102 -74 -167 -74c-91 0 -138 53 -166 109c-26 -55 -73 -109 -157 -109c-137 0 -209 118 -209 254s72 253 209 253c84 0 131 -53 157 -108c26 56 75 108 156 108c131 0 200 -112 200 -258v-28z
M450 280h211c-2 60 -28 134 -106 134c-74 0 -103 -76 -105 -134zM350 242c0 89 -34 165 -106 165c-71 0 -106 -76 -106 -165s35 -166 106 -166c72 0 106 77 106 166z" />
    <glyph glyph-name="uni1E57" unicode="&#x1e57;" horiz-adv-x="492" 
d="M283 -12c-48 0 -95 25 -124 77v-249h-100v667h100v-64c28 48 75 76 124 76c109 0 176 -97 176 -253c0 -154 -67 -254 -176 -254zM253 76c69 0 103 73 103 166s-34 165 -103 165c-38 0 -77 -29 -94 -66v-198c17 -36 56 -67 94 -67zM254 550c-31 0 -57 25 -57 56
s26 57 57 57s56 -26 56 -57s-25 -56 -56 -56z" />
    <glyph glyph-name="racute" unicode="&#x155;" horiz-adv-x="308" 
d="M327 700l-134 -144h-68l110 144h92zM159 0h-100v483h100v-71c28 47 79 82 133 82v-99c-8 2 -17 3 -26 3c-41 0 -87 -31 -107 -67v-331z" />
    <glyph glyph-name="rcaron" unicode="&#x159;" horiz-adv-x="308" 
d="M221 556h-91l-82 144h60l67 -97l64 97h60zM159 0h-100v483h100v-71c28 47 79 82 133 82v-99c-8 2 -17 3 -26 3c-41 0 -87 -31 -107 -67v-331z" />
    <glyph glyph-name="rcommaaccent" unicode="&#x157;" horiz-adv-x="308" 
d="M217 -138c0 -58 -33 -110 -77 -142l-38 30c29 18 56 54 61 83c-2 0 -9 -1 -13 -1c-27 0 -47 20 -47 49c0 30 23 54 53 54c32 0 61 -26 61 -73zM159 0h-100v483h100v-71c28 47 79 82 133 82v-99c-8 2 -17 3 -26 3c-41 0 -87 -31 -107 -67v-331z" />
    <glyph glyph-name="sacute" unicode="&#x15b;" horiz-adv-x="401" 
d="M353 700l-134 -144h-68l110 144h92zM198 -12c-74 0 -136 25 -177 69l45 70c29 -32 80 -60 130 -60s80 25 80 63c0 93 -239 53 -239 227c0 75 60 138 166 138c67 0 121 -25 159 -62l-42 -68c-24 29 -67 51 -115 51c-45 0 -74 -24 -74 -56c0 -85 240 -49 240 -228
c0 -83 -67 -144 -173 -144z" />
    <glyph glyph-name="scaron" unicode="&#x161;" horiz-adv-x="401" 
d="M249 556h-91l-82 144h60l67 -97l64 97h60zM198 -12c-74 0 -136 25 -177 69l45 70c29 -32 80 -60 130 -60s80 25 80 63c0 93 -239 53 -239 227c0 75 60 138 166 138c67 0 121 -25 159 -62l-42 -68c-24 29 -67 51 -115 51c-45 0 -74 -24 -74 -56c0 -85 240 -49 240 -228
c0 -83 -67 -144 -173 -144z" />
    <glyph glyph-name="scircumflex" unicode="&#x15d;" horiz-adv-x="401" 
d="M327 556h-60l-67 97l-64 -97h-60l79 144h91zM198 -12c-74 0 -136 25 -177 69l45 70c29 -32 80 -60 130 -60s80 25 80 63c0 93 -239 53 -239 227c0 75 60 138 166 138c67 0 121 -25 159 -62l-42 -68c-24 29 -67 51 -115 51c-45 0 -74 -24 -74 -56c0 -85 240 -49 240 -228
c0 -83 -67 -144 -173 -144z" />
    <glyph glyph-name="scedilla" unicode="&#x15f;" horiz-adv-x="401" 
d="M194 -194c-39 0 -74 15 -94 31l21 44c23 -19 47 -28 71 -28c26 0 50 13 50 37c0 18 -11 30 -30 30c-12 0 -23 -6 -30 -14l-39 22l23 62c-60 6 -110 29 -145 67l45 70c29 -32 80 -60 130 -60s80 25 80 63c0 93 -239 53 -239 227c0 75 60 138 166 138c67 0 121 -25 159 -62
l-42 -68c-24 29 -67 51 -115 51c-45 0 -74 -24 -74 -56c0 -85 240 -49 240 -228c0 -78 -59 -135 -153 -143l-17 -43c9 7 19 11 32 11c35 0 62 -28 62 -68c0 -50 -45 -83 -101 -83z" />
    <glyph glyph-name="scommaaccent" unicode="&#x219;" horiz-adv-x="402" 
d="M266 -138c0 -58 -33 -110 -77 -142l-38 30c29 18 56 54 61 83c-2 0 -9 -1 -13 -1c-27 0 -47 20 -47 49c0 30 23 54 53 54c32 0 61 -26 61 -73zM198 -12c-74 0 -136 25 -177 69l45 70c29 -32 80 -60 130 -60s80 25 80 63c0 93 -239 53 -239 227c0 75 60 138 166 138
c67 0 121 -25 159 -62l-42 -68c-24 29 -67 51 -115 51c-45 0 -74 -24 -74 -56c0 -85 240 -49 240 -228c0 -83 -67 -144 -173 -144z" />
    <glyph glyph-name="uni1E61" unicode="&#x1e61;" horiz-adv-x="401" 
d="M198 -12c-74 0 -136 25 -177 69l45 70c29 -32 80 -60 130 -60s80 25 80 63c0 93 -239 53 -239 227c0 75 60 138 166 138c67 0 121 -25 159 -62l-42 -68c-24 29 -67 51 -115 51c-45 0 -74 -24 -74 -56c0 -85 240 -49 240 -228c0 -83 -67 -144 -173 -144zM201 550
c-31 0 -57 25 -57 56s26 57 57 57s56 -26 56 -57s-25 -56 -56 -56z" />
    <glyph glyph-name="germandbls" unicode="&#xdf;" horiz-adv-x="556" 
d="M541 133c0 -78 -65 -145 -169 -145c-80 0 -125 29 -165 70l42 70c22 -29 63 -60 115 -60c47 0 77 27 77 63c0 93 -221 60 -221 223c0 99 114 115 114 175c0 36 -37 60 -79 60c-52 0 -93 -32 -93 -95v-494h-99v494c0 102 73 183 193 183c95 0 179 -55 179 -136
c0 -108 -119 -119 -119 -182c0 -85 225 -48 225 -226z" />
    <glyph glyph-name="longs" unicode="&#x17f;" horiz-adv-x="274" 
d="M179 0h-100v396h-63v87h63v45c0 94 52 149 136 149c36 0 72 -10 97 -34l-34 -73c-13 13 -26 19 -45 19c-35 0 -54 -23 -54 -61v-528z" />
    <glyph glyph-name="tbar" unicode="&#x167;" horiz-adv-x="283" 
d="M189 -12c-76 0 -112 41 -112 120v110h-63v60h63v118h-63v87h63v132h100v-132h80v-87h-80v-118h51v-60h-51v-89c0 -33 11 -53 37 -53c16 0 31 7 38 16l24 -75c-18 -18 -46 -29 -87 -29z" />
    <glyph glyph-name="tcaron" unicode="&#x165;" horiz-adv-x="299" 
d="M341 680c0 -58 -33 -110 -77 -142l-38 30c29 18 56 54 61 83c-2 0 -9 -1 -13 -1c-27 0 -47 20 -47 49c0 30 23 54 53 54c32 0 61 -26 61 -73zM189 -12c-76 0 -112 41 -112 120v288h-63v87h63v132h100v-132h80v-87h-80v-267c0 -33 11 -53 37 -53c16 0 31 7 38 16l24 -75
c-18 -18 -46 -29 -87 -29z" />
    <glyph glyph-name="tcommaaccent" unicode="&#x163;" horiz-adv-x="283" 
d="M205 -138c0 -58 -33 -110 -77 -142l-38 30c29 18 56 54 61 83c-2 0 -9 -1 -13 -1c-27 0 -47 20 -47 49c0 30 23 54 53 54c32 0 61 -26 61 -73zM189 -12c-76 0 -112 41 -112 120v288h-63v87h63v132h100v-132h80v-87h-80v-267c0 -33 11 -53 37 -53c16 0 31 7 38 16l24 -75
c-18 -18 -46 -29 -87 -29z" />
    <glyph glyph-name="uni021B" unicode="&#x21b;" horiz-adv-x="283" 
d="M205 -138c0 -58 -33 -110 -77 -142l-38 30c29 18 56 54 61 83c-2 0 -9 -1 -13 -1c-27 0 -47 20 -47 49c0 30 23 54 53 54c32 0 61 -26 61 -73zM189 -12c-76 0 -112 41 -112 120v288h-63v87h63v132h100v-132h80v-87h-80v-267c0 -33 11 -53 37 -53c16 0 31 7 38 16l24 -75
c-18 -18 -46 -29 -87 -29z" />
    <glyph glyph-name="uni1E6B" unicode="&#x1e6b;" horiz-adv-x="283" 
d="M189 -12c-76 0 -112 41 -112 120v288h-63v87h63v132h100v-132h80v-87h-80v-267c0 -33 11 -53 37 -53c16 0 31 7 38 16l24 -75c-18 -18 -46 -29 -87 -29zM131 717c-31 0 -57 25 -57 56s26 57 57 57s56 -26 56 -57s-25 -56 -56 -56z" />
    <glyph glyph-name="uacute" unicode="&#xfa;" horiz-adv-x="485" 
d="M393 700l-134 -144h-68l110 144h92zM426 0h-100v64c-27 -40 -79 -76 -141 -76c-86 0 -126 46 -126 130v365h100v-330c0 -56 26 -77 69 -77c42 0 79 32 98 66v341h100v-483z" />
    <glyph glyph-name="ubreve" unicode="&#x16d;" horiz-adv-x="485" 
d="M426 0h-100v64c-27 -40 -79 -76 -141 -76c-86 0 -126 46 -126 130v365h100v-330c0 -56 26 -77 69 -77c42 0 79 32 98 66v341h100v-483zM392 616c-34 -46 -88 -75 -149 -75c-60 0 -114 29 -149 75l47 38c23 -33 60 -53 102 -53s79 20 102 53z" />
    <glyph glyph-name="ucircumflex" unicode="&#xfb;" horiz-adv-x="485" 
d="M368 556h-60l-67 97l-64 -97h-60l79 144h91zM426 0h-100v64c-27 -40 -79 -76 -141 -76c-86 0 -126 46 -126 130v365h100v-330c0 -56 26 -77 69 -77c42 0 79 32 98 66v341h100v-483z" />
    <glyph glyph-name="udieresis" unicode="&#xfc;" horiz-adv-x="485" 
d="M390 607c0 -31 -26 -56 -57 -56s-56 25 -56 56s25 56 56 56s57 -25 57 -56zM208 607c0 -31 -25 -56 -56 -56s-57 25 -57 56s26 56 57 56s56 -25 56 -56zM426 0h-100v64c-27 -40 -79 -76 -141 -76c-86 0 -126 46 -126 130v365h100v-330c0 -56 26 -77 69 -77
c42 0 79 32 98 66v341h100v-483z" />
    <glyph glyph-name="ugrave" unicode="&#xf9;" horiz-adv-x="485" 
d="M426 0h-100v64c-27 -40 -79 -76 -141 -76c-86 0 -126 46 -126 130v365h100v-330c0 -56 26 -77 69 -77c42 0 79 32 98 66v341h100v-483zM293 556h-68l-134 144h93z" />
    <glyph glyph-name="uhungarumlaut" unicode="&#x171;" horiz-adv-x="485" 
d="M426 0h-100v64c-27 -40 -79 -76 -141 -76c-86 0 -126 46 -126 130v365h100v-330c0 -56 26 -77 69 -77c42 0 79 32 98 66v341h100v-483zM290 700l-97 -144h-57l73 144h81zM424 700l-97 -144h-56l72 144h81z" />
    <glyph glyph-name="umacron" unicode="&#x16b;" horiz-adv-x="485" 
d="M426 0h-100v64c-27 -40 -79 -76 -141 -76c-86 0 -126 46 -126 130v365h100v-330c0 -56 26 -77 69 -77c42 0 79 32 98 66v341h100v-483zM397 567h-309v60h309v-60z" />
    <glyph glyph-name="uogonek" unicode="&#x173;" horiz-adv-x="485" 
d="M426 0c-42 -25 -67 -58 -67 -99c0 -29 15 -42 33 -42c20 0 32 14 38 35l44 -25c-14 -31 -39 -55 -82 -55c-48 0 -86 26 -86 84c0 38 18 73 48 102h-28v64c-27 -40 -79 -76 -141 -76c-86 0 -126 46 -126 130v365h100v-330c0 -56 26 -77 69 -77c42 0 79 32 98 66v341h100
v-483z" />
    <glyph glyph-name="uring" unicode="&#x16f;" horiz-adv-x="485" 
d="M243 538c-51 0 -94 43 -94 95c0 51 43 94 94 94c52 0 94 -43 94 -94c0 -52 -42 -95 -94 -95zM243 585c27 0 47 22 47 48s-20 47 -47 47c-25 0 -47 -21 -47 -47s22 -48 47 -48zM426 0h-100v64c-27 -40 -79 -76 -141 -76c-86 0 -126 46 -126 130v365h100v-330
c0 -56 26 -77 69 -77c42 0 79 32 98 66v341h100v-483z" />
    <glyph glyph-name="utilde" unicode="&#x169;" horiz-adv-x="485" 
d="M426 0h-100v64c-27 -40 -79 -76 -141 -76c-86 0 -126 46 -126 130v365h100v-330c0 -56 26 -77 69 -77c42 0 79 32 98 66v341h100v-483zM292 554c-62 0 -69 81 -103 81c-18 0 -34 -23 -34 -75h-54c0 79 32 134 92 134c61 0 68 -80 103 -80c18 0 33 22 33 74h54
c0 -79 -31 -134 -91 -134z" />
    <glyph glyph-name="uni1EE5" unicode="&#x1ee5;" horiz-adv-x="485" 
d="M426 0h-100v64c-27 -40 -79 -76 -141 -76c-86 0 -126 46 -126 130v365h100v-330c0 -56 26 -77 69 -77c42 0 79 32 98 66v341h100v-483zM244 -189c-31 0 -57 25 -57 56s26 57 57 57s56 -26 56 -57s-25 -56 -56 -56z" />
    <glyph glyph-name="uhorn" unicode="&#x1b0;" horiz-adv-x="485" 
d="M426 0h-100v64c-27 -40 -79 -76 -141 -76c-86 0 -126 46 -126 130v365h100v-330c0 -56 26 -77 69 -77c42 0 79 32 98 66v341h100v-24c15 17 27 38 29 56c-1 0 -8 -1 -12 -1c-25 0 -44 18 -44 45s22 49 49 49c30 0 56 -24 56 -67c0 -50 -27 -101 -78 -136v-405z" />
    <glyph glyph-name="uni1EE7" unicode="&#x1ee7;" horiz-adv-x="485" 
d="M426 0h-100v64c-27 -40 -79 -76 -141 -76c-86 0 -126 46 -126 130v365h100v-330c0 -56 26 -77 69 -77c42 0 79 32 98 66v341h100v-483zM213 587l-39 10c9 32 34 53 70 53c37 0 67 -20 67 -67c0 -22 -7 -39 -18 -56h-44c15 18 21 36 21 54c0 23 -12 32 -27 32
c-16 0 -25 -10 -30 -26z" />
    <glyph glyph-name="uni1EE9" unicode="&#x1ee9;" horiz-adv-x="485" 
d="M393 700l-134 -144h-68l110 144h92zM426 0h-100v64c-27 -40 -79 -76 -141 -76c-86 0 -126 46 -126 130v365h100v-330c0 -56 26 -77 69 -77c42 0 79 32 98 66v341h100v-24c15 17 27 38 29 56c-1 0 -8 -1 -12 -1c-25 0 -44 18 -44 45s22 49 49 49c30 0 56 -24 56 -67
c0 -50 -27 -101 -78 -136v-405z" />
    <glyph glyph-name="uni1EEB" unicode="&#x1eeb;" horiz-adv-x="485" 
d="M293 556h-68l-134 144h93zM426 0h-100v64c-27 -40 -79 -76 -141 -76c-86 0 -126 46 -126 130v365h100v-330c0 -56 26 -77 69 -77c42 0 79 32 98 66v341h100v-24c15 17 27 38 29 56c-1 0 -8 -1 -12 -1c-25 0 -44 18 -44 45s22 49 49 49c30 0 56 -24 56 -67
c0 -50 -27 -101 -78 -136v-405z" />
    <glyph glyph-name="uni1EED" unicode="&#x1eed;" horiz-adv-x="485" 
d="M213 587l-39 10c9 32 34 53 70 53c37 0 67 -20 67 -67c0 -22 -7 -39 -18 -56h-44c15 18 21 36 21 54c0 23 -12 32 -27 32c-16 0 -25 -10 -30 -26zM426 0h-100v64c-27 -40 -79 -76 -141 -76c-86 0 -126 46 -126 130v365h100v-330c0 -56 26 -77 69 -77c42 0 79 32 98 66
v341h100v-24c15 17 27 38 29 56c-1 0 -8 -1 -12 -1c-25 0 -44 18 -44 45s22 49 49 49c30 0 56 -24 56 -67c0 -50 -27 -101 -78 -136v-405z" />
    <glyph glyph-name="uni1EEF" unicode="&#x1eef;" horiz-adv-x="485" 
d="M426 0h-100v64c-27 -40 -79 -76 -141 -76c-86 0 -126 46 -126 130v365h100v-330c0 -56 26 -77 69 -77c42 0 79 32 98 66v341h100v-24c15 17 27 38 29 56c-1 0 -8 -1 -12 -1c-25 0 -44 18 -44 45s22 49 49 49c30 0 56 -24 56 -67c0 -50 -27 -101 -78 -136v-405zM293 554
c-62 0 -69 81 -103 81c-18 0 -34 -23 -34 -75h-54c0 79 32 134 92 134c61 0 68 -80 103 -80c18 0 33 22 33 74h54c0 -79 -31 -134 -91 -134z" />
    <glyph glyph-name="uni1EF1" unicode="&#x1ef1;" horiz-adv-x="485" 
d="M244 -189c-31 0 -57 25 -57 56s26 57 57 57s56 -26 56 -57s-25 -56 -56 -56zM426 0h-100v64c-27 -40 -79 -76 -141 -76c-86 0 -126 46 -126 130v365h100v-330c0 -56 26 -77 69 -77c42 0 79 32 98 66v341h100v-24c15 17 27 38 29 56c-1 0 -8 -1 -12 -1
c-25 0 -44 18 -44 45s22 49 49 49c30 0 56 -24 56 -67c0 -50 -27 -101 -78 -136v-405z" />
    <glyph glyph-name="wacute" unicode="&#x1e83;" horiz-adv-x="667" 
d="M485 700l-134 -144h-68l110 144h92zM531 0h-104l-93 355l-94 -355h-104l-129 483h103l84 -352l92 352h92l94 -352l85 352h103z" />
    <glyph glyph-name="wcircumflex" unicode="&#x175;" horiz-adv-x="667" 
d="M460 556h-60l-67 97l-64 -97h-60l79 144h91zM531 0h-104l-93 355l-94 -355h-104l-129 483h103l84 -352l92 352h92l94 -352l85 352h103z" />
    <glyph glyph-name="wdieresis" unicode="&#x1e85;" horiz-adv-x="667" 
d="M481 607c0 -31 -26 -56 -57 -56s-56 25 -56 56s25 56 56 56s57 -25 57 -56zM299 607c0 -31 -25 -56 -56 -56s-57 25 -57 56s26 56 57 56s56 -25 56 -56zM531 0h-104l-93 355l-94 -355h-104l-129 483h103l84 -352l92 352h92l94 -352l85 352h103z" />
    <glyph glyph-name="wgrave" unicode="&#x1e81;" horiz-adv-x="667" 
d="M531 0h-104l-93 355l-94 -355h-104l-129 483h103l84 -352l92 352h92l94 -352l85 352h103zM385 556h-68l-134 144h93z" />
    <glyph glyph-name="yacute" unicode="&#xfd;" horiz-adv-x="430" 
d="M42 -189l15 88c9 -5 23 -7 32 -7c27 0 44 10 55 40l20 58l-162 493h106l107 -363l108 363h106l-191 -574c-27 -81 -74 -105 -142 -105c-15 0 -41 3 -54 7zM366 700l-134 -144h-68l110 144h92z" />
    <glyph glyph-name="ycircumflex" unicode="&#x177;" horiz-adv-x="430" 
d="M42 -189l15 88c9 -5 23 -7 32 -7c27 0 44 10 55 40l20 58l-162 493h106l107 -363l108 363h106l-191 -574c-27 -81 -74 -105 -142 -105c-15 0 -41 3 -54 7zM343 556h-60l-67 97l-64 -97h-60l79 144h91z" />
    <glyph glyph-name="ydieresis" unicode="&#xff;" horiz-adv-x="430" 
d="M42 -189l15 88c9 -5 23 -7 32 -7c27 0 44 10 55 40l20 58l-162 493h106l107 -363l108 363h106l-191 -574c-27 -81 -74 -105 -142 -105c-15 0 -41 3 -54 7zM365 607c0 -31 -26 -56 -57 -56s-56 25 -56 56s25 56 56 56s57 -25 57 -56zM183 607c0 -31 -25 -56 -56 -56
s-57 25 -57 56s26 56 57 56s56 -25 56 -56z" />
    <glyph glyph-name="ygrave" unicode="&#x1ef3;" horiz-adv-x="430" 
d="M42 -189l15 88c9 -5 23 -7 32 -7c27 0 44 10 55 40l20 58l-162 493h106l107 -363l108 363h106l-191 -574c-27 -81 -74 -105 -142 -105c-15 0 -41 3 -54 7zM266 556h-68l-134 144h93z" />
    <glyph glyph-name="yacute.alt1" horiz-adv-x="485" 
d="M393 700l-134 -144h-68l110 144h92zM223 -196c-69 0 -125 20 -167 61l41 77c32 -37 78 -54 122 -54c67 0 107 43 107 123v67c-27 -40 -79 -75 -141 -75c-86 0 -126 45 -126 130v350h100v-316c0 -56 26 -76 69 -76c42 0 79 31 98 65v327h100v-466
c0 -140 -79 -213 -203 -213z" />
    <glyph glyph-name="ycircumflex.alt1" horiz-adv-x="485" 
d="M369 556h-60l-67 97l-64 -97h-60l79 144h91zM223 -196c-69 0 -125 20 -167 61l41 77c32 -37 78 -54 122 -54c67 0 107 43 107 123v67c-27 -40 -79 -75 -141 -75c-86 0 -126 45 -126 130v350h100v-316c0 -56 26 -76 69 -76c42 0 79 31 98 65v327h100v-466
c0 -140 -79 -213 -203 -213z" />
    <glyph glyph-name="ydieresis.alt1" horiz-adv-x="485" 
d="M391 607c0 -31 -26 -56 -57 -56s-56 25 -56 56s25 56 56 56s57 -25 57 -56zM209 607c0 -31 -25 -56 -56 -56s-57 25 -57 56s26 56 57 56s56 -25 56 -56zM223 -196c-69 0 -125 20 -167 61l41 77c32 -37 78 -54 122 -54c67 0 107 43 107 123v67c-27 -40 -79 -75 -141 -75
c-86 0 -126 45 -126 130v350h100v-316c0 -56 26 -76 69 -76c42 0 79 31 98 65v327h100v-466c0 -140 -79 -213 -203 -213z" />
    <glyph glyph-name="ygrave.alt1" horiz-adv-x="485" 
d="M223 -196c-69 0 -125 20 -167 61l41 77c32 -37 78 -54 122 -54c67 0 107 43 107 123v67c-27 -40 -79 -75 -141 -75c-86 0 -126 45 -126 130v350h100v-316c0 -56 26 -76 69 -76c42 0 79 31 98 65v327h100v-466c0 -140 -79 -213 -203 -213zM293 556h-68l-134 144h93z" />
    <glyph glyph-name="zacute" unicode="&#x17a;" horiz-adv-x="399" 
d="M350 700l-134 -144h-68l110 144h92zM360 0h-322v76l193 320h-193v87h318v-73l-193 -323h197v-87z" />
    <glyph glyph-name="zcaron" unicode="&#x17e;" horiz-adv-x="399" 
d="M244 556h-91l-82 144h60l67 -97l64 97h60zM360 0h-322v76l193 320h-193v87h318v-73l-193 -323h197v-87z" />
    <glyph glyph-name="zdotaccent" unicode="&#x17c;" horiz-adv-x="399" 
d="M360 0h-322v76l193 320h-193v87h318v-73l-193 -323h197v-87zM198 550c-31 0 -57 25 -57 56s26 57 57 57s56 -26 56 -57s-25 -56 -56 -56z" />
    <glyph glyph-name="eth" unicode="&#xf0;" horiz-adv-x="488" 
d="M120 493l-22 49l108 47c-18 19 -37 36 -55 52l70 62c26 -24 51 -49 74 -74l89 39l21 -48l-75 -34c75 -96 123 -206 123 -329c0 -156 -72 -269 -209 -269c-135 0 -209 109 -209 242s69 240 181 240c56 0 95 -29 124 -78c-19 53 -54 107 -96 156zM244 76
c73 0 106 73 106 154c0 79 -33 152 -106 152s-106 -73 -106 -152c0 -81 33 -154 106 -154z" />
    <glyph glyph-name="thorn" unicode="&#xfe;" horiz-adv-x="492" 
d="M283 -12c-48 0 -95 24 -124 76v-248h-100v851h100v-246c28 48 74 74 124 74c109 0 176 -97 176 -253c0 -154 -67 -254 -176 -254zM253 76c69 0 103 73 103 166s-34 165 -103 165c-38 0 -77 -29 -94 -66v-198c17 -36 56 -67 94 -67z" />
    <glyph glyph-name="Aacute.smcp" unicode="&#xf7e1;" 
d="M384 750l-134 -144h-68l110 144h92zM173 550h121l171 -550h-111l-30 107h-181l-30 -107h-112zM302 197l-69 241l-69 -241h138z" />
    <glyph glyph-name="Abreve.smcp" unicode="&#xf66d;" 
d="M173 550h121l171 -550h-111l-30 107h-181l-30 -107h-112zM302 197l-69 241l-69 -241h138zM383 666c-34 -46 -88 -75 -149 -75c-60 0 -114 29 -149 75l47 38c23 -33 60 -53 102 -53s79 20 102 53z" />
    <glyph glyph-name="Acircumflex.smcp" unicode="&#xf7e2;" 
d="M360 606h-60l-67 97l-64 -97h-60l79 144h91zM173 550h121l171 -550h-111l-30 107h-181l-30 -107h-112zM302 197l-69 241l-69 -241h138z" />
    <glyph glyph-name="Adieresis.smcp" unicode="&#xf7e4;" 
d="M381 666c0 -31 -26 -56 -57 -56s-56 25 -56 56s25 56 56 56s57 -25 57 -56zM199 666c0 -31 -25 -56 -56 -56s-57 25 -57 56s26 56 57 56s56 -25 56 -56zM173 550h121l171 -550h-111l-30 107h-181l-30 -107h-112zM302 197l-69 241l-69 -241h138z" />
    <glyph glyph-name="Agrave.smcp" unicode="&#xf7e0;" 
d="M173 550h121l171 -550h-111l-30 107h-181l-30 -107h-112zM302 197l-69 241l-69 -241h138zM284 606h-68l-134 144h93z" />
    <glyph glyph-name="Amacron.smcp" unicode="&#xf66e;" 
d="M388 617h-309v60h309v-60zM173 550h121l171 -550h-111l-30 107h-181l-30 -107h-112zM302 197l-69 241l-69 -241h138z" />
    <glyph glyph-name="Aogonek.smcp" unicode="&#xf66f;" 
d="M173 550h121l171 -550c-42 -25 -67 -58 -67 -99c0 -29 15 -42 33 -42c20 0 32 14 38 35l44 -25c-14 -31 -39 -55 -82 -55c-48 0 -86 26 -86 84c0 38 18 73 48 102h-39l-30 107h-181l-30 -107h-112zM302 197l-69 241l-69 -241h138z" />
    <glyph glyph-name="Aring.smcp" unicode="&#xf7e5;" 
d="M234 574c-51 0 -94 43 -94 95c0 51 43 94 94 94c52 0 94 -43 94 -94c0 -52 -42 -95 -94 -95zM234 621c27 0 47 22 47 48s-20 47 -47 47c-25 0 -47 -21 -47 -47s22 -48 47 -48zM173 550h121l171 -550h-111l-30 107h-181l-30 -107h-112zM302 197l-69 241l-69 -241h138z" />
    <glyph glyph-name="Atilde.smcp" unicode="&#xf7e3;" 
d="M173 550h121l171 -550h-111l-30 107h-181l-30 -107h-112zM302 197l-69 241l-69 -241h138zM284 604c-62 0 -69 81 -103 81c-18 0 -34 -23 -34 -75h-54c0 79 32 134 92 134c61 0 68 -80 103 -80c18 0 33 22 33 74h54c0 -79 -31 -134 -91 -134z" />
    <glyph glyph-name="uni1EA0.smcp" 
d="M173 550h121l171 -550h-111l-30 107h-181l-30 -107h-112zM302 197l-69 241l-69 -241h138zM234 -189c-31 0 -57 25 -57 56s26 57 57 57s56 -26 56 -57s-25 -56 -56 -56z" />
    <glyph glyph-name="uni1EA2.smcp" 
d="M173 550h121l171 -550h-111l-30 107h-181l-30 -107h-112zM302 197l-69 241l-69 -241h138zM204 640l-39 10c9 32 34 53 70 53c37 0 67 -20 67 -67c0 -22 -7 -39 -18 -56h-44c15 18 21 36 21 54c0 23 -12 32 -27 32c-16 0 -25 -10 -30 -26z" />
    <glyph glyph-name="uni1EA4.smcp" 
d="M360 606h-60l-67 97l-64 -97h-60l79 144h91zM529 821l-134 -144h-68l110 144h92zM173 550h121l171 -550h-111l-30 107h-181l-30 -107h-112zM302 197l-69 241l-69 -241h138z" />
    <glyph glyph-name="uni1EAC.smcp" 
d="M359 606h-60l-67 97l-64 -97h-60l79 144h91zM173 550h121l171 -550h-111l-30 107h-181l-30 -107h-112zM302 197l-69 241l-69 -241h138zM234 -189c-31 0 -57 25 -57 56s26 57 57 57s56 -26 56 -57s-25 -56 -56 -56z" />
    <glyph glyph-name="uni1EA6.smcp" 
d="M360 606h-60l-67 97l-64 -97h-60l79 144h91zM173 550h121l171 -550h-111l-30 107h-181l-30 -107h-112zM302 197l-69 241l-69 -241h138zM138 677h-68l-134 144h93z" />
    <glyph glyph-name="uni1EA8.smcp" 
d="M359 606h-60l-67 97l-64 -97h-60l79 144h91zM173 550h121l171 -550h-111l-30 107h-181l-30 -107h-112zM302 197l-69 241l-69 -241h138zM292 777l-39 10c9 32 34 53 70 53c37 0 67 -20 67 -67c0 -22 -7 -39 -18 -56h-44c15 18 21 36 21 54c0 23 -12 32 -27 32
c-16 0 -25 -10 -30 -26z" />
    <glyph glyph-name="uni1EAE.smcp" 
d="M386 830l-134 -144h-68l110 144h92zM173 550h121l171 -550h-111l-30 107h-181l-30 -107h-112zM302 197l-69 241l-69 -241h138zM383 654c-34 -46 -88 -75 -149 -75c-60 0 -114 29 -149 75l47 38c23 -33 60 -53 102 -53s79 20 102 53z" />
    <glyph glyph-name="uni1EAA.smcp" 
d="M359 573h-60l-67 97l-64 -97h-60l79 144h91zM173 550h121l171 -550h-111l-30 107h-181l-30 -107h-112zM302 197l-69 241l-69 -241h138zM283 732c-62 0 -69 81 -103 81c-18 0 -34 -23 -34 -75h-54c0 79 32 134 92 134c61 0 68 -80 103 -80c18 0 33 22 33 74h54
c0 -79 -31 -134 -91 -134z" />
    <glyph glyph-name="uni1EB0.smcp" 
d="M173 550h121l171 -550h-111l-30 107h-181l-30 -107h-112zM302 197l-69 241l-69 -241h138zM285 686h-68l-134 144h93zM384 654c-34 -46 -88 -75 -149 -75c-60 0 -114 29 -149 75l47 38c23 -33 60 -53 102 -53s79 20 102 53z" />
    <glyph glyph-name="uni1EB2.smcp" 
d="M173 550h121l171 -550h-111l-30 107h-181l-30 -107h-112zM302 197l-69 241l-69 -241h138zM205 745l-39 10c9 32 34 53 70 53c37 0 67 -20 67 -67c0 -22 -7 -39 -18 -56h-44c15 18 21 36 21 54c0 23 -12 32 -27 32c-16 0 -25 -10 -30 -26zM384 654
c-34 -46 -88 -75 -149 -75c-60 0 -114 29 -149 75l47 38c23 -33 60 -53 102 -53s79 20 102 53z" />
    <glyph glyph-name="uni1EB4.smcp" 
d="M384 654c-34 -46 -88 -75 -149 -75c-60 0 -114 29 -149 75l47 38c23 -33 60 -53 102 -53s79 20 102 53zM173 550h121l171 -550h-111l-30 107h-181l-30 -107h-112zM302 197l-69 241l-69 -241h138zM284 707c-62 0 -69 81 -103 81c-18 0 -34 -23 -34 -75h-54
c0 79 32 134 92 134c61 0 68 -80 103 -80c18 0 33 22 33 74h54c0 -79 -31 -134 -91 -134z" />
    <glyph glyph-name="uni1EB6.smcp" 
d="M173 550h121l171 -550h-111l-30 107h-181l-30 -107h-112zM302 197l-69 241l-69 -241h138zM234 -189c-31 0 -57 25 -57 56s26 57 57 57s56 -26 56 -57s-25 -56 -56 -56zM383 666c-34 -46 -88 -75 -149 -75c-60 0 -114 29 -149 75l47 38c23 -33 60 -53 102 -53
s79 20 102 53z" />
    <glyph glyph-name="AE.smcp" unicode="&#xf7e6;" horiz-adv-x="669" 
d="M629 0h-322v107h-148l-49 -107h-112l267 550h364v-90h-218v-134h212v-90h-212v-146h218v-90zM307 197v241l-111 -241h111z" />
    <glyph glyph-name="AEacute.smcp" unicode="&#xf670;" horiz-adv-x="669" 
d="M510 750l-134 -144h-68l110 144h92zM629 0h-322v107h-148l-49 -107h-112l267 550h364v-90h-218v-134h212v-90h-212v-146h218v-90zM307 197v241l-111 -241h111z" />
    <glyph glyph-name="uni1E02.smcp" horiz-adv-x="471" 
d="M284 0h-225v550h218c100 0 151 -62 151 -141c0 -66 -36 -109 -85 -124c56 -14 95 -71 95 -136c0 -85 -51 -149 -154 -149zM264 90c45 0 68 28 68 72c0 39 -22 74 -68 74h-101v-146h101zM260 326c43 0 63 29 63 67c0 37 -20 67 -63 67h-97v-134h97zM244 600
c-31 0 -57 25 -57 56s26 57 57 57s56 -26 56 -57s-25 -56 -56 -56z" />
    <glyph glyph-name="Cacute.smcp" unicode="&#xf671;" horiz-adv-x="478" 
d="M423 750l-134 -144h-68l110 144h92zM272 -12c-147 0 -236 122 -236 287c0 167 89 287 236 287c97 0 152 -59 185 -128l-85 -35c-21 44 -55 72 -100 72c-82 0 -131 -83 -131 -196c0 -111 49 -196 131 -196c46 0 82 30 100 74l85 -34c-32 -70 -87 -131 -185 -131z" />
    <glyph glyph-name="Ccaron.smcp" unicode="&#xf672;" horiz-adv-x="478" 
d="M320 606h-91l-82 144h60l67 -97l64 97h60zM272 -12c-147 0 -236 122 -236 287c0 167 89 287 236 287c97 0 152 -59 185 -128l-85 -35c-21 44 -55 72 -100 72c-82 0 -131 -83 -131 -196c0 -111 49 -196 131 -196c46 0 82 30 100 74l85 -34c-32 -70 -87 -131 -185 -131z
" />
    <glyph glyph-name="Ccedilla.smcp" unicode="&#xf7e7;" horiz-adv-x="478" 
d="M266 -194c-39 0 -74 15 -94 31l21 44c23 -19 47 -28 71 -28c26 0 50 13 50 37c0 18 -11 30 -30 30c-12 0 -23 -6 -30 -14l-39 22l23 62c-127 17 -202 133 -202 285c0 167 89 287 236 287c97 0 152 -59 185 -128l-85 -35c-21 44 -55 72 -100 72c-82 0 -131 -83 -131 -196
c0 -111 49 -196 131 -196c46 0 82 30 100 74l85 -34c-30 -66 -80 -123 -167 -130l-17 -43c9 7 19 11 32 11c35 0 62 -28 62 -68c0 -50 -45 -83 -101 -83z" />
    <glyph glyph-name="Ccircumflex.smcp" unicode="&#xf673;" horiz-adv-x="478" 
d="M398 606h-60l-67 97l-64 -97h-60l79 144h91zM272 -12c-147 0 -236 122 -236 287c0 167 89 287 236 287c97 0 152 -59 185 -128l-85 -35c-21 44 -55 72 -100 72c-82 0 -131 -83 -131 -196c0 -111 49 -196 131 -196c46 0 82 30 100 74l85 -34c-32 -70 -87 -131 -185 -131z
" />
    <glyph glyph-name="Cdotaccent.smcp" unicode="&#xf674;" horiz-adv-x="478" 
d="M272 -12c-147 0 -236 122 -236 287c0 167 89 287 236 287c97 0 152 -59 185 -128l-85 -35c-21 44 -55 72 -100 72c-82 0 -131 -83 -131 -196c0 -111 49 -196 131 -196c46 0 82 30 100 74l85 -34c-32 -70 -87 -131 -185 -131zM273 600c-31 0 -57 25 -57 56s26 57 57 57
s56 -26 56 -57s-25 -56 -56 -56z" />
    <glyph glyph-name="Dcaron.smcp" unicode="&#xf675;" horiz-adv-x="515" 
d="M299 606h-91l-82 144h60l67 -97l64 97h60zM229 0h-178v550h177c157 0 244 -116 244 -276c0 -159 -87 -274 -243 -274zM228 90c91 0 138 78 138 184c0 110 -45 186 -138 186h-73v-370h73z" />
    <glyph glyph-name="Dcroat.smcp" unicode="&#xf676;" horiz-adv-x="532" 
d="M247 0h-178v241h-55v69h55v240h177c157 0 244 -116 244 -276c0 -159 -87 -274 -243 -274zM263 241h-90v-151h73c91 0 138 78 138 184c0 110 -45 186 -138 186h-73v-150h90v-69z" />
    <glyph glyph-name="uni1E0A.smcp" horiz-adv-x="515" 
d="M237 0h-178v550h177c157 0 244 -116 244 -276c0 -159 -87 -274 -243 -274zM236 90c91 0 138 78 138 184c0 110 -45 186 -138 186h-73v-370h73zM255 600c-31 0 -57 25 -57 56s26 57 57 57s56 -26 56 -57s-25 -56 -56 -56z" />
    <glyph glyph-name="Eacute.smcp" unicode="&#xf7e9;" horiz-adv-x="421" 
d="M371 750l-134 -144h-68l110 144h92zM381 0h-322v550h322v-90h-218v-134h212v-90h-212v-146h218v-90z" />
    <glyph glyph-name="Ebreve.smcp" unicode="&#xf677;" horiz-adv-x="421" 
d="M381 0h-322v550h322v-90h-218v-134h212v-90h-212v-146h218v-90zM369 666c-34 -46 -88 -75 -149 -75c-60 0 -114 29 -149 75l47 38c23 -33 60 -53 102 -53s79 20 102 53z" />
    <glyph glyph-name="Ecaron.smcp" unicode="&#xf678;" horiz-adv-x="421" 
d="M268 606h-91l-82 144h60l67 -97l64 97h60zM381 0h-322v550h322v-90h-218v-134h212v-90h-212v-146h218v-90z" />
    <glyph glyph-name="Ecircumflex.smcp" unicode="&#xf7ea;" horiz-adv-x="421" 
d="M346 606h-60l-67 97l-64 -97h-60l79 144h91zM381 0h-322v550h322v-90h-218v-134h212v-90h-212v-146h218v-90z" />
    <glyph glyph-name="Edieresis.smcp" unicode="&#xf7eb;" horiz-adv-x="421" 
d="M368 657c0 -31 -26 -56 -57 -56s-56 25 -56 56s25 56 56 56s57 -25 57 -56zM186 657c0 -31 -25 -56 -56 -56s-57 25 -57 56s26 56 57 56s56 -25 56 -56zM381 0h-322v550h322v-90h-218v-134h212v-90h-212v-146h218v-90z" />
    <glyph glyph-name="Edotaccent.smcp" unicode="&#xf679;" horiz-adv-x="421" 
d="M381 0h-322v550h322v-90h-218v-134h212v-90h-212v-146h218v-90zM221 600c-31 0 -57 25 -57 56s26 57 57 57s56 -26 56 -57s-25 -56 -56 -56z" />
    <glyph glyph-name="Egrave.smcp" unicode="&#xf7e8;" horiz-adv-x="421" 
d="M381 0h-322v550h322v-90h-218v-134h212v-90h-212v-146h218v-90zM271 606h-68l-134 144h93z" />
    <glyph glyph-name="Emacron.smcp" unicode="&#xf67a;" horiz-adv-x="421" 
d="M381 0h-322v550h322v-90h-218v-134h212v-90h-212v-146h218v-90zM375 617h-309v60h309v-60z" />
    <glyph glyph-name="Eogonek.smcp" unicode="&#xf67c;" horiz-adv-x="421" 
d="M385 -106l44 -25c-14 -31 -39 -55 -82 -55c-48 0 -86 26 -86 84c0 38 18 73 48 102h-250v550h322v-90h-218v-134h212v-90h-212v-146h218v-90c-42 -25 -67 -58 -67 -99c0 -29 15 -42 33 -42c20 0 32 14 38 35z" />
    <glyph glyph-name="uni1EB8.smcp" horiz-adv-x="421" 
d="M381 0h-322v550h322v-90h-218v-134h212v-90h-212v-146h218v-90zM221 -189c-31 0 -57 25 -57 56s26 57 57 57s56 -26 56 -57s-25 -56 -56 -56z" />
    <glyph glyph-name="uni1EBA.smcp" horiz-adv-x="421" 
d="M381 0h-322v550h322v-90h-218v-134h212v-90h-212v-146h218v-90zM191 640l-39 10c9 32 34 53 70 53c37 0 67 -20 67 -67c0 -22 -7 -39 -18 -56h-44c15 18 21 36 21 54c0 23 -12 32 -27 32c-16 0 -25 -10 -30 -26z" />
    <glyph glyph-name="uni1EBC.smcp" horiz-adv-x="421" 
d="M381 0h-322v550h322v-90h-218v-134h212v-90h-212v-146h218v-90zM270 604c-62 0 -69 81 -103 81c-18 0 -34 -23 -34 -75h-54c0 79 32 134 92 134c61 0 68 -80 103 -80c18 0 33 22 33 74h54c0 -79 -31 -134 -91 -134z" />
    <glyph glyph-name="uni1EBE.smcp" horiz-adv-x="421" 
d="M346 606h-60l-67 97l-64 -97h-60l79 144h91zM515 821l-134 -144h-68l110 144h92zM381 0h-322v550h322v-90h-218v-134h212v-90h-212v-146h218v-90z" />
    <glyph glyph-name="uni1EC0.smcp" horiz-adv-x="421" 
d="M345 606h-60l-67 97l-64 -97h-60l79 144h91zM381 0h-322v550h322v-90h-218v-134h212v-90h-212v-146h218v-90zM123 677h-68l-134 144h93z" />
    <glyph glyph-name="uni1EC2.smcp" horiz-adv-x="421" 
d="M345 606h-60l-67 97l-64 -97h-60l79 144h91zM381 0h-322v550h322v-90h-218v-134h212v-90h-212v-146h218v-90zM279 777l-39 10c9 32 34 53 70 53c37 0 67 -20 67 -67c0 -22 -7 -39 -18 -56h-44c15 18 21 36 21 54c0 23 -12 32 -27 32c-16 0 -25 -10 -30 -26z" />
    <glyph glyph-name="uni1EC4.smcp" horiz-adv-x="421" 
d="M345 573h-60l-67 97l-64 -97h-60l79 144h91zM381 0h-322v550h322v-90h-218v-134h212v-90h-212v-146h218v-90zM270 732c-62 0 -69 81 -103 81c-18 0 -34 -23 -34 -75h-54c0 79 32 134 92 134c61 0 68 -80 103 -80c18 0 33 22 33 74h54c0 -79 -31 -134 -91 -134z" />
    <glyph glyph-name="uni1EC6.smcp" horiz-adv-x="421" 
d="M346 606h-60l-67 97l-64 -97h-60l79 144h91zM381 0h-322v550h322v-90h-218v-134h212v-90h-212v-146h218v-90zM221 -189c-31 0 -57 25 -57 56s26 57 57 57s56 -26 56 -57s-25 -56 -56 -56z" />
    <glyph glyph-name="uni1E1E.smcp" horiz-adv-x="413" 
d="M221 600c-31 0 -57 25 -57 56s26 57 57 57s56 -26 56 -57s-25 -56 -56 -56zM163 0h-104v550h322v-90h-218v-134h212v-90h-212v-236z" />
    <glyph glyph-name="Gbreve.smcp" unicode="&#xf67d;" horiz-adv-x="506" 
d="M272 -12c-144 0 -236 117 -236 287c0 171 92 287 236 287c91 0 149 -53 183 -119l-83 -39c-21 38 -53 67 -100 67c-80 0 -130 -77 -130 -196c0 -118 50 -196 132 -196c40 0 71 17 88 37v95h-105v86h204v-223c-49 -54 -110 -86 -189 -86zM422 666
c-34 -46 -88 -75 -149 -75c-60 0 -114 29 -149 75l47 38c23 -33 60 -53 102 -53s79 20 102 53z" />
    <glyph glyph-name="Gcircumflex.smcp" unicode="&#xf67e;" horiz-adv-x="506" 
d="M272 -12c-144 0 -236 117 -236 287c0 171 92 287 236 287c91 0 149 -53 183 -119l-83 -39c-21 38 -53 67 -100 67c-80 0 -130 -77 -130 -196c0 -118 50 -196 132 -196c40 0 71 17 88 37v95h-105v86h204v-223c-49 -54 -110 -86 -189 -86zM399 606h-60l-67 97l-64 -97h-60
l79 144h91z" />
    <glyph glyph-name="Gcommaaccent.smcp" unicode="&#xf67f;" horiz-adv-x="506" 
d="M272 -12c-144 0 -236 117 -236 287c0 171 92 287 236 287c91 0 149 -53 183 -119l-83 -39c-21 38 -53 67 -100 67c-80 0 -130 -77 -130 -196c0 -118 50 -196 132 -196c40 0 71 17 88 37v95h-105v86h204v-223c-49 -54 -110 -86 -189 -86zM331 -138
c0 -58 -33 -110 -77 -142l-38 30c29 18 56 54 61 83c-2 0 -9 -1 -13 -1c-27 0 -47 20 -47 49c0 30 23 54 53 54c32 0 61 -26 61 -73z" />
    <glyph glyph-name="Gdotaccent.smcp" unicode="&#xf680;" horiz-adv-x="506" 
d="M272 -12c-144 0 -236 117 -236 287c0 171 92 287 236 287c91 0 149 -53 183 -119l-83 -39c-21 38 -53 67 -100 67c-80 0 -130 -77 -130 -196c0 -118 50 -196 132 -196c40 0 71 17 88 37v95h-105v86h204v-223c-49 -54 -110 -86 -189 -86zM274 600c-31 0 -57 25 -57 56
s26 57 57 57s56 -26 56 -57s-25 -56 -56 -56z" />
    <glyph glyph-name="Gbreve.smcp.alt1" horiz-adv-x="514" 
d="M268 -12c-140 0 -232 117 -232 287c0 171 92 287 236 287c91 0 149 -53 183 -119l-83 -39c-21 39 -53 67 -100 67c-80 0 -130 -77 -130 -196c0 -118 50 -196 130 -196c64 0 105 62 113 132h-128v85h232c0 -185 -76 -308 -221 -308zM422 666c-34 -46 -88 -75 -149 -75
c-60 0 -114 29 -149 75l47 38c23 -33 60 -53 102 -53s79 20 102 53z" />
    <glyph glyph-name="Gcommaaccent.smcp.alt1" horiz-adv-x="514" 
d="M331 -138c0 -58 -33 -110 -77 -142l-38 30c29 18 56 54 61 83c-2 0 -9 -1 -13 -1c-27 0 -47 20 -47 49c0 30 23 54 53 54c32 0 61 -26 61 -73zM268 -12c-140 0 -232 117 -232 287c0 171 92 287 236 287c91 0 149 -53 183 -119l-83 -39c-21 39 -53 67 -100 67
c-80 0 -130 -77 -130 -196c0 -118 50 -196 130 -196c64 0 105 62 113 132h-128v85h232c0 -185 -76 -308 -221 -308z" />
    <glyph glyph-name="Gcircumflex.smcp.alt1" horiz-adv-x="514" 
d="M398 606h-60l-67 97l-64 -97h-60l79 144h91zM268 -12c-140 0 -232 117 -232 287c0 171 92 287 236 287c91 0 149 -53 183 -119l-83 -39c-21 39 -53 67 -100 67c-80 0 -130 -77 -130 -196c0 -118 50 -196 130 -196c64 0 105 62 113 132h-128v85h232
c0 -185 -76 -308 -221 -308z" />
    <glyph glyph-name="Gdotaccent.smcp.alt1" horiz-adv-x="514" 
d="M268 -12c-140 0 -232 117 -232 287c0 171 92 287 236 287c91 0 149 -53 183 -119l-83 -39c-21 39 -53 67 -100 67c-80 0 -130 -77 -130 -196c0 -118 50 -196 130 -196c64 0 105 62 113 132h-128v85h232c0 -185 -76 -308 -221 -308zM273 600c-31 0 -57 25 -57 56
s26 57 57 57s56 -26 56 -57s-25 -56 -56 -56z" />
    <glyph glyph-name="Hbar.smcp" unicode="&#xf682;" horiz-adv-x="556" 
d="M484 0h-103v237h-204v-237h-104v407h-59v60h59v83h104v-83h204v83h103v-83h54v-60h-54v-407zM177 327h204v80h-204v-80z" />
    <glyph glyph-name="Hcircumflex.smcp" unicode="&#xf681;" horiz-adv-x="530" 
d="M391 606h-60l-67 97l-64 -97h-60l79 144h91zM470 0h-103v237h-204v-237h-104v550h104v-223h204v223h103v-550z" />
    <glyph glyph-name="uni1E22.smcp" horiz-adv-x="530" 
d="M470 0h-103v237h-204v-237h-104v550h104v-223h204v223h103v-550zM266 600c-31 0 -57 25 -57 56s26 57 57 57s56 -26 56 -57s-25 -56 -56 -56z" />
    <glyph glyph-name="Iacute.smcp" unicode="&#xf7ed;" horiz-adv-x="222" 
d="M262 750l-134 -144h-68l110 144h92zM163 0h-104v550h104v-550z" />
    <glyph glyph-name="Ibreve.smcp" unicode="&#xf683;" horiz-adv-x="222" 
d="M163 0h-104v550h104v-550zM260 666c-34 -46 -88 -75 -149 -75c-60 0 -114 29 -149 75l47 38c23 -33 60 -53 102 -53s79 20 102 53z" />
    <glyph glyph-name="Igrave.smcp" unicode="&#xf7ec;" horiz-adv-x="222" 
d="M163 0h-104v550h104v-550zM161 606h-68l-134 144h93z" />
    <glyph glyph-name="Icircumflex.smcp" unicode="&#xf7ee;" horiz-adv-x="222" 
d="M237 606h-60l-67 97l-64 -97h-60l79 144h91zM163 0h-104v550h104v-550z" />
    <glyph glyph-name="Idieresis.smcp" unicode="&#xf7ef;" horiz-adv-x="222" 
d="M259 657c0 -31 -26 -56 -57 -56s-56 25 -56 56s25 56 56 56s57 -25 57 -56zM77 657c0 -31 -25 -56 -56 -56s-57 25 -57 56s26 56 57 56s56 -25 56 -56zM163 0h-104v550h104v-550z" />
    <glyph glyph-name="Idotaccent.smcp" unicode="&#xf6ad;" horiz-adv-x="222" 
d="M163 0h-104v550h104v-550zM112 600c-31 0 -57 25 -57 56s26 57 57 57s56 -26 56 -57s-25 -56 -56 -56z" />
    <glyph glyph-name="Imacron.smcp" unicode="&#xf685;" horiz-adv-x="222" 
d="M266 617h-309v60h309v-60zM163 0h-104v550h104v-550z" />
    <glyph glyph-name="Iogonek.smcp" unicode="&#xf686;" horiz-adv-x="222" 
d="M163 0c-42 -25 -67 -58 -67 -99c0 -29 15 -42 33 -42c20 0 32 14 38 35l44 -25c-14 -31 -39 -55 -82 -55c-48 0 -86 26 -86 84c0 38 18 73 48 102h-32v550h104v-550z" />
    <glyph glyph-name="Itilde.smcp" unicode="&#xf687;" horiz-adv-x="222" 
d="M163 0h-104v550h104v-550zM161 604c-62 0 -69 81 -103 81c-18 0 -34 -23 -34 -75h-54c0 79 32 134 92 134c61 0 68 -80 103 -80c18 0 33 22 33 74h54c0 -79 -31 -134 -91 -134z" />
    <glyph glyph-name="uni1EC8.smcp" horiz-adv-x="222" 
d="M163 0h-104v550h104v-550zM83 640l-39 10c9 32 34 53 70 53c37 0 67 -20 67 -67c0 -22 -7 -39 -18 -56h-44c15 18 21 36 21 54c0 23 -12 32 -27 32c-16 0 -25 -10 -30 -26z" />
    <glyph glyph-name="uni1ECA.smcp" horiz-adv-x="222" 
d="M163 0h-104v550h104v-550zM113 -189c-31 0 -57 25 -57 56s26 57 57 57s56 -26 56 -57s-25 -56 -56 -56z" />
    <glyph glyph-name="IJ.smcp" unicode="&#xf684;" horiz-adv-x="584" 
d="M351 -12c-47 0 -90 16 -123 50l37 79c19 -23 46 -38 77 -38c49 0 80 30 80 82v389h104v-399c0 -113 -72 -163 -175 -163zM163 0h-104v550h104v-550z" />
    <glyph glyph-name="Jcircumflex.smcp" unicode="&#xf688;" horiz-adv-x="363" 
d="M378 606h-60l-67 97l-64 -97h-60l79 144h91zM129 -12c-47 0 -90 16 -123 50l37 79c19 -23 46 -38 77 -38c49 0 80 30 80 82v389h104v-399c0 -113 -72 -163 -175 -163z" />
    <glyph glyph-name="Kcommaaccent.smcp" unicode="&#xf689;" horiz-adv-x="475" 
d="M304 -138c0 -58 -33 -110 -77 -142l-38 30c29 18 56 54 61 83c-2 0 -9 -1 -13 -1c-27 0 -47 20 -47 49c0 30 23 54 53 54c32 0 61 -26 61 -73zM468 0h-121l-146 221l-38 -57v-164h-104v550h104v-250l171 250h120l-189 -260z" />
    <glyph glyph-name="Lacute.smcp" unicode="&#xf68a;" horiz-adv-x="388" 
d="M361 0h-302v550h104v-460h198v-90zM361 750l-134 -144h-68l110 144h92z" />
    <glyph glyph-name="Lcaron.smcp" unicode="&#xf68b;" horiz-adv-x="388" 
d="M332 486c0 -58 -33 -110 -77 -142l-38 30c29 18 56 54 61 83c-2 0 -9 -1 -13 -1c-27 0 -47 20 -47 49c0 30 23 54 53 54c32 0 61 -26 61 -73zM361 0h-302v550h104v-460h198v-90z" />
    <glyph glyph-name="Lcommaaccent.smcp" unicode="&#xf68c;" horiz-adv-x="388" 
d="M271 -138c0 -58 -33 -110 -77 -142l-38 30c29 18 56 54 61 83c-2 0 -9 -1 -13 -1c-27 0 -47 20 -47 49c0 30 23 54 53 54c32 0 61 -26 61 -73zM361 0h-302v550h104v-460h198v-90z" />
    <glyph glyph-name="Ldot.smcp" unicode="&#xf68d;" horiz-adv-x="434" 
d="M361 0h-302v550h104v-460h198v-90zM399 299c0 -36 -30 -67 -67 -67s-67 31 -67 67s30 67 67 67s67 -31 67 -67z" />
    <glyph glyph-name="Lslash.smcp" unicode="&#xf6f9;" horiz-adv-x="403" 
d="M14 165v92l60 35v258h104v-198l74 43v-93l-74 -43v-169h198v-90h-302v199z" />
    <glyph glyph-name="Nacute.smcp" unicode="&#xf68e;" horiz-adv-x="525" 
d="M413 750l-134 -144h-68l110 144h92zM466 0h-103l-200 345v-345h-104v550h109l195 -334v334h103v-550z" />
    <glyph glyph-name="Ncaron.smcp" unicode="&#xf68f;" horiz-adv-x="525" 
d="M309 606h-91l-82 144h60l67 -97l64 97h60zM466 0h-103l-200 345v-345h-104v550h109l195 -334v334h103v-550z" />
    <glyph glyph-name="Ncommaaccent.smcp" unicode="&#xf690;" horiz-adv-x="525" 
d="M325 -138c0 -58 -33 -110 -77 -142l-38 30c29 18 56 54 61 83c-2 0 -9 -1 -13 -1c-27 0 -47 20 -47 49c0 30 23 54 53 54c32 0 61 -26 61 -73zM466 0h-103l-200 345v-345h-104v550h109l195 -334v334h103v-550z" />
    <glyph glyph-name="Ntilde.smcp" unicode="&#xf7f1;" horiz-adv-x="525" 
d="M466 0h-103l-200 345v-345h-104v550h109l195 -334v334h103v-550zM312 604c-62 0 -69 81 -103 81c-18 0 -34 -23 -34 -75h-54c0 79 32 134 92 134c61 0 68 -80 103 -80c18 0 33 22 33 74h54c0 -79 -31 -134 -91 -134z" />
    <glyph glyph-name="Eng.smcp" unicode="&#xf67b;" horiz-adv-x="525" 
d="M292 -196c-47 0 -90 15 -124 49l37 80c20 -23 47 -38 78 -38c49 0 80 30 80 82v22l-200 366v-365h-104v550h109l195 -354v354h103v-584c0 -112 -71 -162 -174 -162z" />
    <glyph glyph-name="Oacute.smcp" unicode="&#xf7f3;" horiz-adv-x="537" 
d="M268 -12c-149 0 -232 125 -232 287s83 287 232 287s233 -125 233 -287s-84 -287 -233 -287zM268 79c83 0 127 88 127 196c0 110 -44 196 -127 196c-84 0 -127 -86 -127 -196c0 -108 43 -196 127 -196zM419 750l-134 -144h-68l110 144h92z" />
    <glyph glyph-name="Obreve.smcp" unicode="&#xf691;" horiz-adv-x="537" 
d="M268 -12c-149 0 -232 125 -232 287s83 287 232 287s233 -125 233 -287s-84 -287 -233 -287zM268 79c83 0 127 88 127 196c0 110 -44 196 -127 196c-84 0 -127 -86 -127 -196c0 -108 43 -196 127 -196zM418 666c-34 -46 -88 -75 -149 -75c-60 0 -114 29 -149 75l47 38
c23 -33 60 -53 102 -53s79 20 102 53z" />
    <glyph glyph-name="Ocircumflex.smcp" unicode="&#xf7f4;" horiz-adv-x="537" 
d="M268 -12c-149 0 -232 125 -232 287s83 287 232 287s233 -125 233 -287s-84 -287 -233 -287zM268 79c83 0 127 88 127 196c0 110 -44 196 -127 196c-84 0 -127 -86 -127 -196c0 -108 43 -196 127 -196zM394 606h-60l-67 97l-64 -97h-60l79 144h91z" />
    <glyph glyph-name="Odieresis.smcp" unicode="&#xf7f6;" horiz-adv-x="537" 
d="M268 -12c-149 0 -232 125 -232 287s83 287 232 287s233 -125 233 -287s-84 -287 -233 -287zM268 79c83 0 127 88 127 196c0 110 -44 196 -127 196c-84 0 -127 -86 -127 -196c0 -108 43 -196 127 -196zM416 657c0 -31 -26 -56 -57 -56s-56 25 -56 56s25 56 56 56
s57 -25 57 -56zM234 657c0 -31 -25 -56 -56 -56s-57 25 -57 56s26 56 57 56s56 -25 56 -56z" />
    <glyph glyph-name="Ograve.smcp" unicode="&#xf7f2;" horiz-adv-x="537" 
d="M268 -12c-149 0 -232 125 -232 287s83 287 232 287s233 -125 233 -287s-84 -287 -233 -287zM268 79c83 0 127 88 127 196c0 110 -44 196 -127 196c-84 0 -127 -86 -127 -196c0 -108 43 -196 127 -196zM319 606h-68l-134 144h93z" />
    <glyph glyph-name="Ohungarumlaut.smcp" unicode="&#xf692;" horiz-adv-x="537" 
d="M268 -12c-149 0 -232 125 -232 287s83 287 232 287s233 -125 233 -287s-84 -287 -233 -287zM268 79c83 0 127 88 127 196c0 110 -44 196 -127 196c-84 0 -127 -86 -127 -196c0 -108 43 -196 127 -196zM318 750l-97 -144h-57l73 144h81zM452 750l-97 -144h-56l72 144h81z
" />
    <glyph glyph-name="Omacron.smcp" unicode="&#xf693;" horiz-adv-x="537" 
d="M268 -12c-149 0 -232 125 -232 287s83 287 232 287s233 -125 233 -287s-84 -287 -233 -287zM268 79c83 0 127 88 127 196c0 110 -44 196 -127 196c-84 0 -127 -86 -127 -196c0 -108 43 -196 127 -196zM423 617h-309v60h309v-60z" />
    <glyph glyph-name="Otilde.smcp" unicode="&#xf7f5;" horiz-adv-x="537" 
d="M268 -12c-149 0 -232 125 -232 287s83 287 232 287s233 -125 233 -287s-84 -287 -233 -287zM268 79c83 0 127 88 127 196c0 110 -44 196 -127 196c-84 0 -127 -86 -127 -196c0 -108 43 -196 127 -196zM319 604c-62 0 -69 81 -103 81c-18 0 -34 -23 -34 -75h-54
c0 79 32 134 92 134c61 0 68 -80 103 -80c18 0 33 22 33 74h54c0 -79 -31 -134 -91 -134z" />
    <glyph glyph-name="Oslash.smcp" unicode="&#xf7f8;" horiz-adv-x="537" 
d="M268 -12c-49 0 -90 13 -124 36l-16 -24h-71l42 66c-41 52 -63 125 -63 209c0 162 83 287 232 287c49 0 91 -13 125 -37l16 25h71l-43 -67c42 -52 64 -125 64 -208c0 -162 -84 -287 -233 -287zM141 275c0 -42 6 -81 19 -113l180 280c-19 18 -43 29 -72 29
c-84 0 -127 -86 -127 -196zM268 79c83 0 127 88 127 196c0 42 -7 80 -19 112l-180 -280c19 -18 43 -28 72 -28z" />
    <glyph glyph-name="Oslashacute.smcp" unicode="&#xf694;" horiz-adv-x="537" 
d="M268 -12c-49 0 -90 13 -124 36l-16 -24h-71l42 66c-41 52 -63 125 -63 209c0 162 83 287 232 287c49 0 91 -13 125 -37l16 25h71l-43 -67c42 -52 64 -125 64 -208c0 -162 -84 -287 -233 -287zM141 275c0 -42 6 -81 19 -113l180 280c-19 18 -43 29 -72 29
c-84 0 -127 -86 -127 -196zM268 79c83 0 127 88 127 196c0 42 -7 80 -19 112l-180 -280c19 -18 43 -28 72 -28zM419 750l-134 -144h-68l110 144h92z" />
    <glyph glyph-name="uni1ECC.smcp" horiz-adv-x="537" 
d="M268 -12c-149 0 -232 125 -232 287s83 287 232 287s233 -125 233 -287s-84 -287 -233 -287zM268 79c83 0 127 88 127 196c0 110 -44 196 -127 196c-84 0 -127 -86 -127 -196c0 -108 43 -196 127 -196zM270 -189c-31 0 -57 25 -57 56s26 57 57 57s56 -26 56 -57
s-25 -56 -56 -56z" />
    <glyph glyph-name="uni1ECE.smcp" horiz-adv-x="537" 
d="M268 -12c-149 0 -232 125 -232 287s83 287 232 287s233 -125 233 -287s-84 -287 -233 -287zM268 79c83 0 127 88 127 196c0 110 -44 196 -127 196c-84 0 -127 -86 -127 -196c0 -108 43 -196 127 -196zM240 645l-39 10c9 32 34 53 70 53c37 0 67 -20 67 -67
c0 -22 -7 -39 -18 -56h-44c15 18 21 36 21 54c0 23 -12 32 -27 32c-16 0 -25 -10 -30 -26z" />
    <glyph glyph-name="uni1ED0.smcp" horiz-adv-x="537" 
d="M268 -12c-149 0 -232 125 -232 287s83 287 232 287s233 -125 233 -287s-84 -287 -233 -287zM268 79c83 0 127 88 127 196c0 110 -44 196 -127 196c-84 0 -127 -86 -127 -196c0 -108 43 -196 127 -196zM395 606h-60l-67 97l-64 -97h-60l79 144h91zM564 821l-134 -144h-68
l110 144h92z" />
    <glyph glyph-name="uni1ED2.smcp" horiz-adv-x="537" 
d="M268 -12c-149 0 -232 125 -232 287s83 287 232 287s233 -125 233 -287s-84 -287 -233 -287zM268 79c83 0 127 88 127 196c0 110 -44 196 -127 196c-84 0 -127 -86 -127 -196c0 -108 43 -196 127 -196zM395 606h-60l-67 97l-64 -97h-60l79 144h91zM173 677h-68l-134 144
h93z" />
    <glyph glyph-name="uni1ED4.smcp" horiz-adv-x="537" 
d="M268 -12c-149 0 -232 125 -232 287s83 287 232 287s233 -125 233 -287s-84 -287 -233 -287zM268 79c83 0 127 88 127 196c0 110 -44 196 -127 196c-84 0 -127 -86 -127 -196c0 -108 43 -196 127 -196zM395 606h-60l-67 97l-64 -97h-60l79 144h91zM328 777l-39 10
c9 32 34 53 70 53c37 0 67 -20 67 -67c0 -22 -7 -39 -18 -56h-44c15 18 21 36 21 54c0 23 -12 32 -27 32c-16 0 -25 -10 -30 -26z" />
    <glyph glyph-name="uni1ED6.smcp" horiz-adv-x="537" 
d="M268 -12c-149 0 -232 125 -232 287s83 287 232 287s233 -125 233 -287s-84 -287 -233 -287zM268 79c83 0 127 88 127 196c0 110 -44 196 -127 196c-84 0 -127 -86 -127 -196c0 -108 43 -196 127 -196zM395 573h-60l-67 97l-64 -97h-60l79 144h91zM320 732
c-62 0 -69 81 -103 81c-18 0 -34 -23 -34 -75h-54c0 79 32 134 92 134c61 0 68 -80 103 -80c18 0 33 22 33 74h54c0 -79 -31 -134 -91 -134z" />
    <glyph glyph-name="uni1ED8.smcp" horiz-adv-x="537" 
d="M268 -12c-149 0 -232 125 -232 287s83 287 232 287s233 -125 233 -287s-84 -287 -233 -287zM268 79c83 0 127 88 127 196c0 110 -44 196 -127 196c-84 0 -127 -86 -127 -196c0 -108 43 -196 127 -196zM395 606h-60l-67 97l-64 -97h-60l79 144h91zM270 -189
c-31 0 -57 25 -57 56s26 57 57 57s56 -26 56 -57s-25 -56 -56 -56z" />
    <glyph glyph-name="Ohorn.smcp" horiz-adv-x="537" 
d="M268 -12c-149 0 -232 125 -232 287s83 287 232 287c80 0 141 -37 181 -96c18 18 32 42 36 62c-2 -1 -8 -2 -12 -2c-25 0 -44 20 -44 46c0 27 22 49 49 49c30 0 56 -24 56 -67c0 -50 -27 -96 -64 -126c20 -44 31 -96 31 -153c0 -162 -84 -287 -233 -287zM268 79
c83 0 127 88 127 196c0 110 -44 196 -127 196c-84 0 -127 -86 -127 -196c0 -108 43 -196 127 -196z" />
    <glyph glyph-name="uni1EDA.smcp" horiz-adv-x="537" 
d="M268 -12c-149 0 -232 125 -232 287s83 287 232 287c80 0 141 -37 181 -96c18 18 32 42 36 62c-2 -1 -8 -2 -12 -2c-25 0 -44 20 -44 46c0 27 22 49 49 49c30 0 56 -24 56 -67c0 -50 -27 -96 -64 -126c20 -44 31 -96 31 -153c0 -162 -84 -287 -233 -287zM268 79
c83 0 127 88 127 196c0 110 -44 196 -127 196c-84 0 -127 -86 -127 -196c0 -108 43 -196 127 -196zM419 750l-134 -144h-68l110 144h92z" />
    <glyph glyph-name="uni1EDC.smcp" horiz-adv-x="537" 
d="M268 -12c-149 0 -232 125 -232 287s83 287 232 287c80 0 141 -37 181 -96c18 18 32 42 36 62c-2 -1 -8 -2 -12 -2c-25 0 -44 20 -44 46c0 27 22 49 49 49c30 0 56 -24 56 -67c0 -50 -27 -96 -64 -126c20 -44 31 -96 31 -153c0 -162 -84 -287 -233 -287zM268 79
c83 0 127 88 127 196c0 110 -44 196 -127 196c-84 0 -127 -86 -127 -196c0 -108 43 -196 127 -196zM319 606h-68l-134 144h93z" />
    <glyph glyph-name="uni1EDE.smcp" horiz-adv-x="537" 
d="M268 -12c-149 0 -232 125 -232 287s83 287 232 287c80 0 141 -37 181 -96c18 18 32 42 36 62c-2 -1 -8 -2 -12 -2c-25 0 -44 20 -44 46c0 27 22 49 49 49c30 0 56 -24 56 -67c0 -50 -27 -96 -64 -126c20 -44 31 -96 31 -153c0 -162 -84 -287 -233 -287zM268 79
c83 0 127 88 127 196c0 110 -44 196 -127 196c-84 0 -127 -86 -127 -196c0 -108 43 -196 127 -196zM239 645l-39 10c9 32 34 53 70 53c37 0 67 -20 67 -67c0 -22 -7 -39 -18 -56h-44c15 18 21 36 21 54c0 23 -12 32 -27 32c-16 0 -25 -10 -30 -26z" />
    <glyph glyph-name="uni1EE0.smcp" horiz-adv-x="537" 
d="M268 -12c-149 0 -232 125 -232 287s83 287 232 287c80 0 141 -37 181 -96c18 18 32 42 36 62c-2 -1 -8 -2 -12 -2c-25 0 -44 20 -44 46c0 27 22 49 49 49c30 0 56 -24 56 -67c0 -50 -27 -96 -64 -126c20 -44 31 -96 31 -153c0 -162 -84 -287 -233 -287zM268 79
c83 0 127 88 127 196c0 110 -44 196 -127 196c-84 0 -127 -86 -127 -196c0 -108 43 -196 127 -196zM319 604c-62 0 -69 81 -103 81c-18 0 -34 -23 -34 -75h-54c0 79 32 134 92 134c61 0 68 -80 103 -80c18 0 33 22 33 74h54c0 -79 -31 -134 -91 -134z" />
    <glyph glyph-name="uni1EE2.smcp" horiz-adv-x="537" 
d="M268 -12c-149 0 -232 125 -232 287s83 287 232 287c80 0 141 -37 181 -96c18 18 32 42 36 62c-2 -1 -8 -2 -12 -2c-25 0 -44 20 -44 46c0 27 22 49 49 49c30 0 56 -24 56 -67c0 -50 -27 -96 -64 -126c20 -44 31 -96 31 -153c0 -162 -84 -287 -233 -287zM268 79
c83 0 127 88 127 196c0 110 -44 196 -127 196c-84 0 -127 -86 -127 -196c0 -108 43 -196 127 -196zM270 -189c-31 0 -57 25 -57 56s26 57 57 57s56 -26 56 -57s-25 -56 -56 -56z" />
    <glyph glyph-name="OE.smcp" unicode="&#xf6fa;" horiz-adv-x="744" 
d="M705 0h-322v64c-32 -55 -82 -76 -135 -76c-136 0 -212 125 -212 287s76 287 212 287c53 0 103 -21 135 -76v64h322v-90h-219v-134h213v-90h-213v-145h219v-91zM383 180v191c-20 67 -62 100 -114 100c-85 0 -128 -86 -128 -196c0 -109 43 -196 128 -196
c53 0 94 35 114 101z" />
    <glyph glyph-name="uni1E56.smcp" horiz-adv-x="452" 
d="M163 0h-104v550h201c113 0 170 -80 170 -173c0 -95 -55 -175 -170 -175h-97v-202zM249 292c50 0 75 36 75 84s-25 84 -75 84h-86v-168h86zM243 600c-31 0 -57 25 -57 56s26 57 57 57s56 -26 56 -57s-25 -56 -56 -56z" />
    <glyph glyph-name="Racute.smcp" unicode="&#xf695;" horiz-adv-x="471" 
d="M393 750l-134 -144h-68l110 144h92zM437 0h-116l-94 202h-64v-202h-104v550h202c108 0 169 -76 169 -173c0 -93 -51 -146 -105 -159zM249 292c50 0 76 36 76 85c0 48 -27 83 -76 83h-86v-168h86z" />
    <glyph glyph-name="Rcaron.smcp" unicode="&#xf696;" horiz-adv-x="471" 
d="M278 606h-91l-82 144h60l67 -97l64 97h60zM437 0h-116l-94 202h-64v-202h-104v550h202c108 0 169 -76 169 -173c0 -93 -51 -146 -105 -159zM249 292c50 0 76 36 76 85c0 48 -27 83 -76 83h-86v-168h86z" />
    <glyph glyph-name="Rcommaaccent.smcp" unicode="&#xf697;" horiz-adv-x="471" 
d="M294 -138c0 -58 -33 -110 -77 -142l-38 30c29 18 56 54 61 83c-2 0 -9 -1 -13 -1c-27 0 -47 20 -47 49c0 30 23 54 53 54c32 0 61 -26 61 -73zM437 0h-116l-94 202h-64v-202h-104v550h202c108 0 169 -76 169 -173c0 -93 -51 -146 -105 -159zM249 292c50 0 76 36 76 85
c0 48 -27 83 -76 83h-86v-168h86z" />
    <glyph glyph-name="Sacute.smcp" unicode="&#xf698;" horiz-adv-x="423" 
d="M364 750l-134 -144h-68l110 144h92zM207 -12c-80 0 -142 27 -187 71l47 79c32 -35 83 -61 138 -61c56 0 87 29 87 71c0 107 -253 76 -253 259c0 87 71 155 180 155c71 0 126 -22 169 -61l-45 -77c-33 33 -79 49 -122 49c-44 0 -76 -25 -76 -64c0 -94 253 -70 253 -258
c0 -95 -69 -163 -191 -163z" />
    <glyph glyph-name="Scaron.smcp" unicode="&#xf6fd;" horiz-adv-x="423" 
d="M263 606h-91l-82 144h60l67 -97l64 97h60zM207 -12c-80 0 -142 27 -187 71l47 79c32 -35 83 -61 138 -61c56 0 87 29 87 71c0 107 -253 76 -253 259c0 87 71 155 180 155c71 0 126 -22 169 -61l-45 -77c-33 33 -79 49 -122 49c-44 0 -76 -25 -76 -64
c0 -94 253 -70 253 -258c0 -95 -69 -163 -191 -163z" />
    <glyph glyph-name="Scircumflex.smcp" unicode="&#xf69a;" horiz-adv-x="423" 
d="M341 606h-60l-67 97l-64 -97h-60l79 144h91zM207 -12c-80 0 -142 27 -187 71l47 79c32 -35 83 -61 138 -61c56 0 87 29 87 71c0 107 -253 76 -253 259c0 87 71 155 180 155c71 0 126 -22 169 -61l-45 -77c-33 33 -79 49 -122 49c-44 0 -76 -25 -76 -64
c0 -94 253 -70 253 -258c0 -95 -69 -163 -191 -163z" />
    <glyph glyph-name="Scedilla.smcp" unicode="&#xf699;" horiz-adv-x="423" 
d="M208 -194c-39 0 -74 15 -94 31l21 44c23 -19 47 -28 71 -28c26 0 50 13 50 37c0 18 -11 30 -30 30c-12 0 -23 -6 -30 -14l-39 22l22 61c-67 6 -120 31 -159 70l47 79c32 -35 83 -61 138 -61c56 0 87 29 87 71c0 107 -253 76 -253 259c0 87 71 155 180 155
c71 0 126 -22 169 -61l-45 -77c-33 33 -79 49 -122 49c-44 0 -76 -25 -76 -64c0 -94 253 -70 253 -258c0 -89 -60 -153 -166 -162l-17 -43c9 7 19 11 32 11c35 0 62 -28 62 -68c0 -50 -45 -83 -101 -83z" />
    <glyph glyph-name="Scommaaccent.smcp" unicode="&#xf69b;" horiz-adv-x="423" 
d="M275 -138c0 -58 -33 -110 -77 -142l-38 30c29 18 56 54 61 83c-2 0 -9 -1 -13 -1c-27 0 -47 20 -47 49c0 30 23 54 53 54c32 0 61 -26 61 -73zM207 -12c-80 0 -142 27 -187 71l47 79c32 -35 83 -61 138 -61c56 0 87 29 87 71c0 107 -253 76 -253 259c0 87 71 155 180 155
c71 0 126 -22 169 -61l-45 -77c-33 33 -79 49 -122 49c-44 0 -76 -25 -76 -64c0 -94 253 -70 253 -258c0 -95 -69 -163 -191 -163z" />
    <glyph glyph-name="uni1E60.smcp" horiz-adv-x="423" 
d="M207 -12c-80 0 -142 27 -187 71l47 79c32 -35 83 -61 138 -61c56 0 87 29 87 71c0 107 -253 76 -253 259c0 87 71 155 180 155c71 0 126 -22 169 -61l-45 -77c-33 33 -79 49 -122 49c-44 0 -76 -25 -76 -64c0 -94 253 -70 253 -258c0 -95 -69 -163 -191 -163zM219 600
c-31 0 -57 25 -57 56s26 57 57 57s56 -26 56 -57s-25 -56 -56 -56z" />
    <glyph glyph-name="Tbar.smcp" unicode="&#xf69c;" horiz-adv-x="387" 
d="M245 0h-103v224h-80v60h80v176h-123v90h349v-90h-123v-176h75v-60h-75v-224z" />
    <glyph glyph-name="Tcaron.smcp" unicode="&#xf69d;" horiz-adv-x="387" 
d="M242 606h-91l-82 144h60l67 -97l64 97h60zM245 0h-103v460h-123v90h349v-90h-123v-460z" />
    <glyph glyph-name="Tcommaaccent.smcp" unicode="&#xf69e;" horiz-adv-x="387" 
d="M255 -138c0 -58 -33 -110 -77 -142l-38 30c29 18 56 54 61 83c-2 0 -9 -1 -13 -1c-27 0 -47 20 -47 49c0 30 23 54 53 54c32 0 61 -26 61 -73zM245 0h-103v460h-123v90h349v-90h-123v-460z" />
    <glyph glyph-name="uni021A.smcp" horiz-adv-x="387" 
d="M255 -138c0 -58 -33 -110 -77 -142l-38 30c29 18 56 54 61 83c-2 0 -9 -1 -13 -1c-27 0 -47 20 -47 49c0 30 23 54 53 54c32 0 61 -26 61 -73zM245 0h-103v460h-123v90h349v-90h-123v-460z" />
    <glyph glyph-name="uni1E6A.smcp" horiz-adv-x="387" 
d="M245 0h-103v460h-123v90h349v-90h-123v-460zM196 600c-31 0 -57 25 -57 56s26 57 57 57s56 -26 56 -57s-25 -56 -56 -56z" />
    <glyph glyph-name="Uacute.smcp" unicode="&#xf7fa;" horiz-adv-x="525" 
d="M414 750l-134 -144h-68l110 144h92zM263 -12c-134 0 -204 78 -204 220v342h104v-356c0 -73 34 -115 100 -115c64 0 99 42 99 115v356h104v-342c0 -142 -70 -220 -203 -220z" />
    <glyph glyph-name="Ubreve.smcp" unicode="&#xf69f;" horiz-adv-x="525" 
d="M263 -12c-134 0 -204 78 -204 220v342h104v-356c0 -73 34 -115 100 -115c64 0 99 42 99 115v356h104v-342c0 -142 -70 -220 -203 -220zM412 666c-34 -46 -88 -75 -149 -75c-60 0 -114 29 -149 75l47 38c23 -33 60 -53 102 -53s79 20 102 53z" />
    <glyph glyph-name="Ucircumflex.smcp" unicode="&#xf7fb;" horiz-adv-x="525" 
d="M389 606h-60l-67 97l-64 -97h-60l79 144h91zM263 -12c-134 0 -204 78 -204 220v342h104v-356c0 -73 34 -115 100 -115c64 0 99 42 99 115v356h104v-342c0 -142 -70 -220 -203 -220z" />
    <glyph glyph-name="Udieresis.smcp" unicode="&#xf7fc;" horiz-adv-x="525" 
d="M411 657c0 -31 -26 -56 -57 -56s-56 25 -56 56s25 56 56 56s57 -25 57 -56zM229 657c0 -31 -25 -56 -56 -56s-57 25 -57 56s26 56 57 56s56 -25 56 -56zM263 -12c-134 0 -204 78 -204 220v342h104v-356c0 -73 34 -115 100 -115c64 0 99 42 99 115v356h104v-342
c0 -142 -70 -220 -203 -220z" />
    <glyph glyph-name="Ugrave.smcp" unicode="&#xf7f9;" horiz-adv-x="525" 
d="M263 -12c-134 0 -204 78 -204 220v342h104v-356c0 -73 34 -115 100 -115c64 0 99 42 99 115v356h104v-342c0 -142 -70 -220 -203 -220zM314 606h-68l-134 144h93z" />
    <glyph glyph-name="Uhungarumlaut.smcp" unicode="&#xf6a0;" horiz-adv-x="525" 
d="M263 -12c-134 0 -204 78 -204 220v342h104v-356c0 -73 34 -115 100 -115c64 0 99 42 99 115v356h104v-342c0 -142 -70 -220 -203 -220zM310 750l-97 -144h-57l73 144h81zM444 750l-97 -144h-56l72 144h81z" />
    <glyph glyph-name="Umacron.smcp" unicode="&#xf6a1;" horiz-adv-x="525" 
d="M263 -12c-134 0 -204 78 -204 220v342h104v-356c0 -73 34 -115 100 -115c64 0 99 42 99 115v356h104v-342c0 -142 -70 -220 -203 -220zM418 617h-309v60h309v-60z" />
    <glyph glyph-name="Uogonek.smcp" unicode="&#xf6a2;" horiz-adv-x="525" 
d="M348 -106l44 -25c-14 -31 -39 -55 -82 -55c-48 0 -86 26 -86 84c0 33 13 64 36 90c-132 1 -201 79 -201 220v342h104v-356c0 -73 34 -115 100 -115c64 0 99 42 99 115v356h104v-342c0 -110 -42 -181 -122 -208c-42 -25 -67 -58 -67 -99c0 -29 15 -42 33 -42
c20 0 32 14 38 35z" />
    <glyph glyph-name="Uring.smcp" unicode="&#xf6a3;" horiz-adv-x="525" 
d="M263 -12c-134 0 -204 78 -204 220v342h104v-356c0 -73 34 -115 100 -115c64 0 99 42 99 115v356h104v-342c0 -142 -70 -220 -203 -220zM264 574c-51 0 -94 43 -94 95c0 51 43 94 94 94c52 0 94 -43 94 -94c0 -52 -42 -95 -94 -95zM264 621c27 0 47 22 47 48
s-20 47 -47 47c-25 0 -47 -21 -47 -47s22 -48 47 -48z" />
    <glyph glyph-name="Utilde.smcp" unicode="&#xf6a4;" horiz-adv-x="525" 
d="M263 -12c-134 0 -204 78 -204 220v342h104v-356c0 -73 34 -115 100 -115c64 0 99 42 99 115v356h104v-342c0 -142 -70 -220 -203 -220zM313 604c-62 0 -69 81 -103 81c-18 0 -34 -23 -34 -75h-54c0 79 32 134 92 134c61 0 68 -80 103 -80c18 0 33 22 33 74h54
c0 -79 -31 -134 -91 -134z" />
    <glyph glyph-name="uni1EE4.smcp" horiz-adv-x="525" 
d="M263 -12c-134 0 -204 78 -204 220v342h104v-356c0 -73 34 -115 100 -115c64 0 99 42 99 115v356h104v-342c0 -142 -70 -220 -203 -220zM263 -189c-31 0 -57 25 -57 56s26 57 57 57s56 -26 56 -57s-25 -56 -56 -56z" />
    <glyph glyph-name="Uhorn.smcp" horiz-adv-x="525" 
d="M263 -12c-134 0 -204 78 -204 220v342h104v-356c0 -73 34 -115 100 -115c64 0 99 42 99 115v356h104v-38c25 19 46 50 49 75c-1 -1 -7 -2 -11 -2c-26 0 -44 19 -44 46s21 49 48 49c30 0 56 -25 56 -68c0 -56 -34 -114 -98 -148v-256c0 -142 -70 -220 -203 -220z" />
    <glyph glyph-name="uni1EE6.smcp" horiz-adv-x="525" 
d="M263 -12c-134 0 -204 78 -204 220v342h104v-356c0 -73 34 -115 100 -115c64 0 99 42 99 115v356h104v-342c0 -142 -70 -220 -203 -220zM233 640l-39 10c9 32 34 53 70 53c37 0 67 -20 67 -67c0 -22 -7 -39 -18 -56h-44c15 18 21 36 21 54c0 23 -12 32 -27 32
c-16 0 -25 -10 -30 -26z" />
    <glyph glyph-name="uni1EE8.smcp" horiz-adv-x="525" 
d="M414 750l-134 -144h-68l110 144h92zM263 -12c-134 0 -204 78 -204 220v342h104v-356c0 -73 34 -115 100 -115c64 0 99 42 99 115v356h104v-38c25 19 46 50 49 75c-1 -1 -7 -2 -11 -2c-26 0 -44 19 -44 46s21 49 48 49c30 0 56 -25 56 -68c0 -56 -34 -114 -98 -148v-256
c0 -142 -70 -220 -203 -220z" />
    <glyph glyph-name="uni1EEA.smcp" horiz-adv-x="525" 
d="M314 606h-68l-134 144h93zM263 -12c-134 0 -204 78 -204 220v342h104v-356c0 -73 34 -115 100 -115c64 0 99 42 99 115v356h104v-38c25 19 46 50 49 75c-1 -1 -7 -2 -11 -2c-26 0 -44 19 -44 46s21 49 48 49c30 0 56 -25 56 -68c0 -56 -34 -114 -98 -148v-256
c0 -142 -70 -220 -203 -220z" />
    <glyph glyph-name="uni1EEC.smcp" horiz-adv-x="525" 
d="M233 640l-39 10c9 32 34 53 70 53c37 0 67 -20 67 -67c0 -22 -7 -39 -18 -56h-44c15 18 21 36 21 54c0 23 -12 32 -27 32c-16 0 -25 -10 -30 -26zM263 -12c-134 0 -204 78 -204 220v342h104v-356c0 -73 34 -115 100 -115c64 0 99 42 99 115v356h104v-38
c25 19 46 50 49 75c-1 -1 -7 -2 -11 -2c-26 0 -44 19 -44 46s21 49 48 49c30 0 56 -25 56 -68c0 -56 -34 -114 -98 -148v-256c0 -142 -70 -220 -203 -220z" />
    <glyph glyph-name="uni1EEE.smcp" horiz-adv-x="525" 
d="M263 -12c-134 0 -204 78 -204 220v342h104v-356c0 -73 34 -115 100 -115c64 0 99 42 99 115v356h104v-38c25 19 46 50 49 75c-1 -1 -7 -2 -11 -2c-26 0 -44 19 -44 46s21 49 48 49c30 0 56 -25 56 -68c0 -56 -34 -114 -98 -148v-256c0 -142 -70 -220 -203 -220zM313 604
c-62 0 -69 81 -103 81c-18 0 -34 -23 -34 -75h-54c0 79 32 134 92 134c61 0 68 -80 103 -80c18 0 33 22 33 74h54c0 -79 -31 -134 -91 -134z" />
    <glyph glyph-name="uni1EF0.smcp" horiz-adv-x="525" 
d="M263 -189c-31 0 -57 25 -57 56s26 57 57 57s56 -26 56 -57s-25 -56 -56 -56zM263 -12c-134 0 -204 78 -204 220v342h104v-356c0 -73 34 -115 100 -115c64 0 99 42 99 115v356h104v-38c25 19 46 50 49 75c-1 -1 -7 -2 -11 -2c-26 0 -44 19 -44 46s21 49 48 49
c30 0 56 -25 56 -68c0 -56 -34 -114 -98 -148v-256c0 -142 -70 -220 -203 -220z" />
    <glyph glyph-name="Wacute.smcp" horiz-adv-x="649" 
d="M511 0h-106l-81 373l-80 -373h-107l-132 550h111l80 -387l87 387h83l87 -388l81 388h110zM475 750l-134 -144h-68l110 144h92z" />
    <glyph glyph-name="Wcircumflex.smcp" unicode="&#xf6a6;" horiz-adv-x="649" 
d="M450 606h-60l-67 97l-64 -97h-60l79 144h91zM511 0h-106l-81 373l-80 -373h-107l-132 550h111l80 -387l87 387h83l87 -388l81 388h110z" />
    <glyph glyph-name="Wdieresis.smcp" horiz-adv-x="649" 
d="M511 0h-106l-81 373l-80 -373h-107l-132 550h111l80 -387l87 387h83l87 -388l81 388h110zM472 657c0 -31 -26 -56 -57 -56s-56 25 -56 56s25 56 56 56s57 -25 57 -56zM290 657c0 -31 -25 -56 -56 -56s-57 25 -57 56s26 56 57 56s56 -25 56 -56z" />
    <glyph glyph-name="Wgrave.smcp" horiz-adv-x="649" 
d="M511 0h-106l-81 373l-80 -373h-107l-132 550h111l80 -387l87 387h83l87 -388l81 388h110zM375 606h-68l-134 144h93z" />
    <glyph glyph-name="Yacute.smcp" unicode="&#xf7fd;" horiz-adv-x="458" 
d="M381 750l-134 -144h-68l110 144h92zM281 0h-103v230l-179 320h114l117 -225l115 225h114l-178 -320v-230z" />
    <glyph glyph-name="Ycircumflex.smcp" unicode="&#xf6a9;" horiz-adv-x="458" 
d="M356 606h-60l-67 97l-64 -97h-60l79 144h91zM281 0h-103v230l-179 320h114l117 -225l115 225h114l-178 -320v-230z" />
    <glyph glyph-name="Ydieresis.smcp" unicode="&#xf7ff;" horiz-adv-x="458" 
d="M378 657c0 -31 -26 -56 -57 -56s-56 25 -56 56s25 56 56 56s57 -25 57 -56zM196 657c0 -31 -25 -56 -56 -56s-57 25 -57 56s26 56 57 56s56 -25 56 -56zM281 0h-103v230l-179 320h114l117 -225l115 225h114l-178 -320v-230z" />
    <glyph glyph-name="Ygrave.smcp" horiz-adv-x="458" 
d="M281 0h-103v230l-179 320h114l117 -225l115 225h114l-178 -320v-230zM281 606h-68l-134 144h93z" />
    <glyph glyph-name="Zacute.smcp" unicode="&#xf6ab;" horiz-adv-x="415" 
d="M358 750l-134 -144h-68l110 144h92zM384 0h-353v78l217 382h-217v90h346v-76l-216 -383h223v-91z" />
    <glyph glyph-name="Zcaron.smcp" unicode="&#xf6ff;" horiz-adv-x="415" 
d="M253 606h-91l-82 144h60l67 -97l64 97h60zM384 0h-353v78l217 382h-217v90h346v-76l-216 -383h223v-91z" />
    <glyph glyph-name="Zdotaccent.smcp" unicode="&#xf6ac;" horiz-adv-x="415" 
d="M384 0h-353v78l217 382h-217v90h346v-76l-216 -383h223v-91zM207 600c-31 0 -57 25 -57 56s26 57 57 57s56 -26 56 -57s-25 -56 -56 -56z" />
    <glyph glyph-name="Eth.smcp" unicode="&#xf7f0;" horiz-adv-x="532" 
d="M247 0h-178v241h-55v69h55v240h177c157 0 244 -116 244 -276c0 -159 -87 -274 -243 -274zM263 241h-90v-151h73c91 0 138 78 138 184c0 110 -45 186 -138 186h-73v-150h90v-69z" />
    <glyph glyph-name="Thorn.smcp" unicode="&#xf7fe;" horiz-adv-x="452" 
d="M163 0h-104v550h104v-87h97c113 0 170 -81 170 -174c0 -94 -55 -174 -170 -174h-97v-115zM249 205c50 0 75 36 75 83c0 48 -25 85 -75 85h-86v-168h86z" />
    <glyph glyph-name="acute" unicode="&#xb4;" horiz-adv-x="202" 
d="M202 700l-134 -144h-68l110 144h92z" />
    <glyph glyph-name="dieresis" unicode="&#xa8;" horiz-adv-x="279" 
d="M287 607c0 -31 -26 -56 -57 -56s-56 25 -56 56s25 56 56 56s57 -25 57 -56zM105 607c0 -31 -25 -56 -56 -56s-57 25 -57 56s26 56 57 56s56 -25 56 -56z" />
    <glyph glyph-name="grave" unicode="`" horiz-adv-x="202" 
d="M202 556h-68l-134 144h93z" />
    <glyph glyph-name="uni02CB" unicode="&#x2cb;" horiz-adv-x="202" 
d="M202 556h-68l-134 144h93z" />
    <glyph glyph-name="circumflex" unicode="&#x2c6;" horiz-adv-x="251" 
d="M251 556h-60l-67 97l-64 -97h-60l79 144h91z" />
    <glyph glyph-name="tilde" unicode="&#x2dc;" horiz-adv-x="282" 
d="M191 554c-62 0 -69 81 -103 81c-18 0 -34 -23 -34 -75h-54c0 79 32 134 92 134c61 0 68 -80 103 -80c18 0 33 22 33 74h54c0 -79 -31 -134 -91 -134z" />
    <glyph glyph-name="macron" unicode="&#xaf;" horiz-adv-x="309" 
d="M309 567h-309v60h309v-60z" />
    <glyph glyph-name="uni203E" unicode="&#x203e;" horiz-adv-x="309" 
d="M309 567h-309v60h309v-60z" />
    <glyph glyph-name="breve" unicode="&#x2d8;" horiz-adv-x="298" 
d="M298 616c-34 -46 -88 -75 -149 -75c-60 0 -114 29 -149 75l47 38c23 -33 60 -53 102 -53s79 20 102 53z" />
    <glyph glyph-name="dotaccent" unicode="&#x2d9;" horiz-adv-x="141" 
d="M71 550c-31 0 -57 25 -57 56s26 57 57 57s56 -26 56 -57s-25 -56 -56 -56z" />
    <glyph glyph-name="ring" unicode="&#x2da;" horiz-adv-x="188" 
d="M94 538c-51 0 -94 43 -94 95c0 51 43 94 94 94c52 0 94 -43 94 -94c0 -52 -42 -95 -94 -95zM94 585c27 0 47 22 47 48s-20 47 -47 47c-25 0 -47 -21 -47 -47s22 -48 47 -48z" />
    <glyph glyph-name="cedilla" unicode="&#xb8;" horiz-adv-x="195" 
d="M94 -194c-39 0 -74 15 -94 31l21 44c23 -19 47 -28 71 -28c26 0 50 13 50 37c0 18 -11 30 -30 30c-12 0 -23 -6 -30 -14l-39 22l31 83h53l-26 -65c9 7 19 11 32 11c35 0 62 -28 62 -68c0 -50 -45 -83 -101 -83z" />
    <glyph glyph-name="hungarumlaut" unicode="&#x2dd;" horiz-adv-x="288" 
d="M154 700l-97 -144h-57l73 144h81zM288 700l-97 -144h-56l72 144h81z" />
    <glyph glyph-name="ogonek" unicode="&#x2db;" horiz-adv-x="168" 
d="M124 -106l44 -25c-14 -31 -39 -55 -82 -55c-48 0 -86 26 -86 84c0 50 31 95 81 128l39 -26c-42 -25 -67 -58 -67 -99c0 -29 15 -42 33 -42c20 0 32 14 38 35z" />
    <glyph glyph-name="caron" unicode="&#x2c7;" horiz-adv-x="251" 
d="M173 556h-91l-82 144h60l67 -97l64 97h60z" />
    <glyph glyph-name="commaaccent" unicode="&#xf6c3;" horiz-adv-x="243" 
d="M181 -138c0 -58 -33 -110 -77 -142l-38 30c29 18 56 54 61 83c-2 0 -9 -1 -13 -1c-27 0 -47 20 -47 49c0 30 23 54 53 54c32 0 61 -26 61 -73z" />
    <glyph glyph-name="uni02C9" unicode="&#x2c9;" horiz-adv-x="309" 
d="M309 591h-309v60h309v-60z" />
    <glyph glyph-name="hookabovecomb" unicode="&#x309;" horiz-adv-x="168" 
d="M53 727l-39 10c9 32 34 53 70 53c37 0 67 -20 67 -67c0 -22 -7 -39 -18 -56h-44c15 18 21 36 21 54c0 23 -12 32 -27 32c-16 0 -25 -10 -30 -26z" />
    <glyph glyph-name="Alpha" unicode="&#x391;" horiz-adv-x="536" 
d="M533 0h-120l-36 132h-219l-36 -132h-120l199 667h133zM355 230l-87 319l-87 -319h174z" />
    <glyph glyph-name="Beta" unicode="&#x392;" horiz-adv-x="540" 
d="M324 0h-260v667h252c113 0 172 -75 172 -170c0 -84 -46 -137 -105 -153c66 -10 116 -82 116 -164c0 -104 -58 -180 -175 -180zM292 389c56 0 82 37 82 90c0 52 -26 91 -82 91h-117v-181h117zM296 98c59 0 89 36 89 97c0 53 -29 96 -89 96h-121v-193h121z" />
    <glyph glyph-name="Gamma" unicode="&#x393;" horiz-adv-x="464" 
d="M175 0h-111v667h365v-97h-254v-570z" />
    <glyph glyph-name="uni0394" unicode="&#x394;" horiz-adv-x="547" 
d="M545 0h-543l205 667h133zM402 98l-129 451l-127 -451h256z" />
    <glyph glyph-name="Delta" unicode="&#x2206;" horiz-adv-x="547" 
d="M545 0h-543l205 667h133zM402 98l-129 451l-127 -451h256z" />
    <glyph glyph-name="Epsilon" unicode="&#x395;" horiz-adv-x="472" 
d="M429 0h-365v667h365v-97h-254v-181h247v-98h-247v-193h254v-98z" />
    <glyph glyph-name="Zeta" unicode="&#x396;" horiz-adv-x="475" 
d="M437 0h-399v92l258 478h-258v97h392v-90l-259 -479h266v-98z" />
    <glyph glyph-name="Eta" unicode="&#x397;" horiz-adv-x="593" 
d="M530 0h-111v294h-244v-294h-111v667h111v-275h244v275h111v-667z" />
    <glyph glyph-name="Theta" unicode="&#x398;" horiz-adv-x="612" 
d="M421 291h-230v98h230v-98zM306 -12c-169 0 -267 149 -267 345s98 345 267 345s267 -149 267 -345s-98 -345 -267 -345zM306 87c99 0 154 108 154 246c0 140 -55 247 -154 247c-100 0 -154 -107 -154 -247c0 -138 54 -246 154 -246z" />
    <glyph glyph-name="Iota" unicode="&#x399;" horiz-adv-x="239" 
d="M175 0h-111v667h111v-667z" />
    <glyph glyph-name="Kappa" unicode="&#x39a;" horiz-adv-x="535" 
d="M528 0h-131l-172 275l-50 -76v-199h-111v667h111v-321l207 321h130l-218 -315z" />
    <glyph glyph-name="Lambda" unicode="&#x39b;" horiz-adv-x="536" 
d="M533 0h-120l-145 549l-146 -549h-120l199 667h133z" />
    <glyph glyph-name="Mu" unicode="&#x39c;" horiz-adv-x="713" 
d="M650 0h-110v460l-162 -460h-43l-160 460v-460h-111v667h150l143 -406l144 406h149v-667z" />
    <glyph glyph-name="Nu" unicode="&#x39d;" horiz-adv-x="592" 
d="M528 0h-106l-247 431v-431h-111v667h112l241 -419v419h111v-667z" />
    <glyph glyph-name="Xi" unicode="&#x39e;" horiz-adv-x="504" 
d="M460 570h-416v97h416v-97zM460 0h-416v98h416v-98zM453 291h-402v98h402v-98z" />
    <glyph glyph-name="Omicron" unicode="&#x39f;" horiz-adv-x="612" 
d="M306 -12c-169 0 -267 149 -267 345s98 345 267 345s267 -149 267 -345s-98 -345 -267 -345zM306 87c99 0 154 108 154 246c0 140 -55 247 -154 247c-100 0 -154 -107 -154 -247c0 -138 54 -246 154 -246z" />
    <glyph glyph-name="Pi" unicode="&#x3a0;" horiz-adv-x="593" 
d="M530 0h-111v570h-244v-570h-111v667h466v-667z" />
    <glyph glyph-name="Rho" unicode="&#x3a1;" horiz-adv-x="513" 
d="M175 0h-111v667h227c131 0 197 -96 197 -207c0 -112 -66 -208 -197 -208h-116v-252zM278 350c59 0 97 44 97 110s-38 110 -97 110h-103v-220h103z" />
    <glyph glyph-name="Sigma" unicode="&#x3a3;" horiz-adv-x="464" 
d="M171 570l162 -227l-166 -245h257v-98h-380v100l164 243l-164 227v97h380v-97h-253z" />
    <glyph glyph-name="Tau" unicode="&#x3a4;" horiz-adv-x="462" 
d="M286 0h-110v570h-153v97h416v-97h-153v-570z" />
    <glyph glyph-name="Upsilon" unicode="&#x3a5;" horiz-adv-x="521" 
d="M316 0h-110v278l-207 389h123l139 -285l139 285h122l-206 -389v-278z" />
    <glyph glyph-name="Phi" unicode="&#x3a6;" horiz-adv-x="730" 
d="M420 0h-111v67c-178 18 -270 123 -270 266c0 142 92 248 270 266v68h111v-68c179 -18 271 -123 271 -266s-92 -249 -271 -266v-67zM577 333c0 85 -50 150 -157 167v-333c107 16 157 81 157 166zM152 333c0 -85 50 -150 157 -166v333c-107 -17 -157 -82 -157 -167z" />
    <glyph glyph-name="Chi" unicode="&#x3a7;" horiz-adv-x="535" 
d="M533 0h-128l-138 254l-137 -254h-128l197 341l-185 326h127l126 -240l126 240h128l-185 -325z" />
    <glyph glyph-name="Psi" unicode="&#x3a8;" horiz-adv-x="739" 
d="M425 0h-110v126c-156 16 -251 104 -251 249v292h112v-290c0 -89 49 -138 139 -151v441h110v-441c88 13 138 63 138 151v290h112v-291c0 -147 -95 -234 -250 -250v-126z" />
    <glyph glyph-name="uni03A9" unicode="&#x3a9;" horiz-adv-x="606" 
d="M50 98h100c-60 47 -114 130 -114 258c0 193 101 322 267 322s268 -129 268 -322c0 -128 -54 -211 -115 -258h101v-98h-205v98c55 25 105 111 105 236c0 141 -49 245 -154 245c-104 0 -154 -104 -154 -245c0 -125 50 -211 106 -236v-98h-205v98z" />
    <glyph glyph-name="Omega" unicode="&#x2126;" horiz-adv-x="606" 
d="M50 98h100c-60 47 -114 130 -114 258c0 193 101 322 267 322s268 -129 268 -322c0 -128 -54 -211 -115 -258h101v-98h-205v98c55 25 105 111 105 236c0 141 -49 245 -154 245c-104 0 -154 -104 -154 -245c0 -125 50 -211 106 -236v-98h-205v98z" />
    <glyph glyph-name="alpha" unicode="&#x3b1;" horiz-adv-x="506" 
d="M487 78l7 -84c-11 -4 -29 -6 -47 -6c-66 0 -97 32 -107 84c-26 -49 -75 -84 -129 -84c-108 0 -176 98 -176 253c0 153 67 254 176 254c47 0 95 -25 124 -77v65h100v-360c0 -29 11 -47 35 -47c6 0 12 1 17 2zM241 76c38 0 77 30 94 66v198c-17 36 -56 66 -94 66
c-69 0 -103 -71 -103 -165c0 -92 34 -165 103 -165z" />
    <glyph glyph-name="beta" unicode="&#x3b2;" horiz-adv-x="494" 
d="M159 455v-313c18 -36 56 -66 99 -66c65 0 97 50 97 110c0 76 -45 110 -101 110h-28v88h24c55 0 92 36 92 102s-35 102 -83 102c-56 0 -100 -38 -100 -133zM159 64v-248h-100v639c0 164 101 222 201 222c111 0 185 -62 185 -179c0 -79 -48 -138 -113 -153
c61 -11 127 -70 127 -176c0 -101 -70 -181 -169 -181c-56 0 -102 28 -131 76z" />
    <glyph glyph-name="gamma" unicode="&#x3b3;" horiz-adv-x="430" 
d="M265 -184h-100v125c0 212 -73 410 -174 542h112c64 -95 117 -228 126 -353c46 88 81 230 81 353h99c0 -159 -61 -345 -144 -476v-191z" />
    <glyph glyph-name="delta" unicode="&#x3b4;" horiz-adv-x="488" 
d="M248 -12c-141 0 -213 108 -213 226c0 97 49 171 111 212c-38 26 -65 59 -65 115c0 75 60 138 166 138c67 0 120 -25 159 -62l-42 -68c-24 29 -67 51 -116 51c-45 0 -73 -24 -73 -56c0 -89 278 -75 278 -335c0 -113 -67 -221 -205 -221zM358 208c0 98 -63 138 -129 172
c-56 -33 -91 -94 -91 -166c0 -69 35 -138 109 -138c76 0 111 69 111 132z" />
    <glyph glyph-name="epsilon" unicode="&#x3b5;" horiz-adv-x="437" 
d="M229 -12c-121 0 -194 61 -194 143c0 69 61 110 118 116c-59 11 -110 58 -110 117c0 82 78 131 198 131c75 0 132 -30 172 -77l-50 -60c-32 39 -73 56 -124 56c-56 0 -96 -24 -96 -63c0 -44 37 -67 95 -67h89v-80h-90c-54 0 -102 -12 -102 -65c0 -42 36 -70 96 -70
c57 0 107 21 140 58l49 -61c-41 -47 -104 -78 -191 -78z" />
    <glyph glyph-name="zeta" unicode="&#x3b6;" horiz-adv-x="410" 
d="M285 -42c0 22 -10 30 -36 30c-130 0 -214 90 -214 210c0 151 81 279 226 382h-215v87h329v-73c-143 -109 -237 -244 -237 -383c0 -78 46 -135 131 -135c80 0 112 -32 112 -93c0 -39 -17 -88 -45 -140h-98c20 32 47 85 47 115z" />
    <glyph glyph-name="eta" unicode="&#x3b7;" horiz-adv-x="485" 
d="M426 -184h-100v513c0 57 -26 78 -69 78s-80 -33 -98 -67v-340h-100v483h100v-65c26 39 80 77 140 77c87 0 127 -48 127 -131v-548z" />
    <glyph glyph-name="theta" unicode="&#x3b8;" horiz-adv-x="488" 
d="M244 -12c-143 0 -209 151 -209 346c0 196 66 345 209 345s209 -149 209 -345c0 -195 -66 -346 -209 -346zM244 76c72 0 100 79 105 216h-210c4 -137 33 -216 105 -216zM244 591c-72 0 -100 -79 -105 -212h210c-5 133 -34 212 -105 212z" />
    <glyph glyph-name="iota" unicode="&#x3b9;" horiz-adv-x="230" 
d="M171 -12c-76 0 -112 41 -112 120v375h100v-360c0 -29 11 -47 35 -47c6 0 12 1 17 2l7 -84c-11 -4 -29 -6 -47 -6z" />
    </font>
</defs>
</svg>
